G04 #@! TF.GenerationSoftware,KiCad,Pcbnew,(5.1.5-0-10_14)*
G04 #@! TF.CreationDate,2020-02-05T16:48:16+09:00*
G04 #@! TF.ProjectId,baloon-markII,62616c6f-6f6e-42d6-9d61-726b49492e6b,rev?*
G04 #@! TF.SameCoordinates,PX258bd10PY730f910*
G04 #@! TF.FileFunction,Copper,L2,Bot*
G04 #@! TF.FilePolarity,Positive*
%FSLAX46Y46*%
G04 Gerber Fmt 4.6, Leading zero omitted, Abs format (unit mm)*
G04 Created by KiCad (PCBNEW (5.1.5-0-10_14)) date 2020-02-05 16:48:16*
%MOMM*%
%LPD*%
G04 APERTURE LIST*
%ADD10O,2.000000X1.905000*%
%ADD11R,2.000000X1.905000*%
%ADD12C,1.560000*%
%ADD13R,1.560000X1.560000*%
%ADD14O,1.400000X1.400000*%
%ADD15C,1.400000*%
%ADD16O,1.700000X1.850000*%
%ADD17C,0.100000*%
%ADD18C,2.340000*%
%ADD19R,1.300000X1.300000*%
%ADD20C,1.300000*%
%ADD21C,1.600000*%
%ADD22O,1.600000X1.600000*%
%ADD23R,1.600000X1.600000*%
%ADD24C,0.800000*%
%ADD25C,0.250000*%
%ADD26C,0.254000*%
G04 APERTURE END LIST*
D10*
X48260000Y3810000D03*
X48260000Y6350000D03*
D11*
X48260000Y8890000D03*
D12*
X76200000Y13410000D03*
X76200000Y15950000D03*
X76200000Y18490000D03*
X76200000Y21030000D03*
X76200000Y23570000D03*
X76200000Y26110000D03*
X76200000Y28650000D03*
X76200000Y31190000D03*
X76200000Y33730000D03*
X76200000Y36270000D03*
X76200000Y38810000D03*
X76200000Y41350000D03*
X76200000Y43890000D03*
X76200000Y46430000D03*
X76200000Y48970000D03*
X76200000Y51510000D03*
X76200000Y54050000D03*
X76200000Y56590000D03*
X76200000Y59130000D03*
X50800000Y15950000D03*
X50800000Y18490000D03*
X50800000Y21030000D03*
X50800000Y23570000D03*
X50800000Y26110000D03*
X50800000Y28650000D03*
X50800000Y31190000D03*
X50800000Y33730000D03*
X50800000Y36270000D03*
X50800000Y38810000D03*
X50800000Y41350000D03*
X50800000Y43890000D03*
X50800000Y46430000D03*
X50800000Y48970000D03*
X50800000Y51510000D03*
X50800000Y54050000D03*
X50800000Y13410000D03*
X50800000Y56590000D03*
D13*
X50800000Y59130000D03*
D14*
X33020000Y53340000D03*
D15*
X33020000Y45720000D03*
D16*
X39250000Y73660000D03*
X36750000Y73660000D03*
X34250000Y73660000D03*
G04 #@! TA.AperFunction,ComponentPad*
D17*
G36*
X32374504Y74583796D02*
G01*
X32398773Y74580196D01*
X32422571Y74574235D01*
X32445671Y74565970D01*
X32467849Y74555480D01*
X32488893Y74542867D01*
X32508598Y74528253D01*
X32526777Y74511777D01*
X32543253Y74493598D01*
X32557867Y74473893D01*
X32570480Y74452849D01*
X32580970Y74430671D01*
X32589235Y74407571D01*
X32595196Y74383773D01*
X32598796Y74359504D01*
X32600000Y74335000D01*
X32600000Y72985000D01*
X32598796Y72960496D01*
X32595196Y72936227D01*
X32589235Y72912429D01*
X32580970Y72889329D01*
X32570480Y72867151D01*
X32557867Y72846107D01*
X32543253Y72826402D01*
X32526777Y72808223D01*
X32508598Y72791747D01*
X32488893Y72777133D01*
X32467849Y72764520D01*
X32445671Y72754030D01*
X32422571Y72745765D01*
X32398773Y72739804D01*
X32374504Y72736204D01*
X32350000Y72735000D01*
X31150000Y72735000D01*
X31125496Y72736204D01*
X31101227Y72739804D01*
X31077429Y72745765D01*
X31054329Y72754030D01*
X31032151Y72764520D01*
X31011107Y72777133D01*
X30991402Y72791747D01*
X30973223Y72808223D01*
X30956747Y72826402D01*
X30942133Y72846107D01*
X30929520Y72867151D01*
X30919030Y72889329D01*
X30910765Y72912429D01*
X30904804Y72936227D01*
X30901204Y72960496D01*
X30900000Y72985000D01*
X30900000Y74335000D01*
X30901204Y74359504D01*
X30904804Y74383773D01*
X30910765Y74407571D01*
X30919030Y74430671D01*
X30929520Y74452849D01*
X30942133Y74473893D01*
X30956747Y74493598D01*
X30973223Y74511777D01*
X30991402Y74528253D01*
X31011107Y74542867D01*
X31032151Y74555480D01*
X31054329Y74565970D01*
X31077429Y74574235D01*
X31101227Y74580196D01*
X31125496Y74583796D01*
X31150000Y74585000D01*
X32350000Y74585000D01*
X32374504Y74583796D01*
G37*
G04 #@! TD.AperFunction*
D16*
X39250000Y66040000D03*
X36750000Y66040000D03*
X34250000Y66040000D03*
G04 #@! TA.AperFunction,ComponentPad*
D17*
G36*
X32374504Y66963796D02*
G01*
X32398773Y66960196D01*
X32422571Y66954235D01*
X32445671Y66945970D01*
X32467849Y66935480D01*
X32488893Y66922867D01*
X32508598Y66908253D01*
X32526777Y66891777D01*
X32543253Y66873598D01*
X32557867Y66853893D01*
X32570480Y66832849D01*
X32580970Y66810671D01*
X32589235Y66787571D01*
X32595196Y66763773D01*
X32598796Y66739504D01*
X32600000Y66715000D01*
X32600000Y65365000D01*
X32598796Y65340496D01*
X32595196Y65316227D01*
X32589235Y65292429D01*
X32580970Y65269329D01*
X32570480Y65247151D01*
X32557867Y65226107D01*
X32543253Y65206402D01*
X32526777Y65188223D01*
X32508598Y65171747D01*
X32488893Y65157133D01*
X32467849Y65144520D01*
X32445671Y65134030D01*
X32422571Y65125765D01*
X32398773Y65119804D01*
X32374504Y65116204D01*
X32350000Y65115000D01*
X31150000Y65115000D01*
X31125496Y65116204D01*
X31101227Y65119804D01*
X31077429Y65125765D01*
X31054329Y65134030D01*
X31032151Y65144520D01*
X31011107Y65157133D01*
X30991402Y65171747D01*
X30973223Y65188223D01*
X30956747Y65206402D01*
X30942133Y65226107D01*
X30929520Y65247151D01*
X30919030Y65269329D01*
X30910765Y65292429D01*
X30904804Y65316227D01*
X30901204Y65340496D01*
X30900000Y65365000D01*
X30900000Y66715000D01*
X30901204Y66739504D01*
X30904804Y66763773D01*
X30910765Y66787571D01*
X30919030Y66810671D01*
X30929520Y66832849D01*
X30942133Y66853893D01*
X30956747Y66873598D01*
X30973223Y66891777D01*
X30991402Y66908253D01*
X31011107Y66922867D01*
X31032151Y66935480D01*
X31054329Y66945970D01*
X31077429Y66954235D01*
X31101227Y66960196D01*
X31125496Y66963796D01*
X31150000Y66965000D01*
X32350000Y66965000D01*
X32374504Y66963796D01*
G37*
G04 #@! TD.AperFunction*
D16*
X25280000Y73660000D03*
X22780000Y73660000D03*
X20280000Y73660000D03*
G04 #@! TA.AperFunction,ComponentPad*
D17*
G36*
X18404504Y74583796D02*
G01*
X18428773Y74580196D01*
X18452571Y74574235D01*
X18475671Y74565970D01*
X18497849Y74555480D01*
X18518893Y74542867D01*
X18538598Y74528253D01*
X18556777Y74511777D01*
X18573253Y74493598D01*
X18587867Y74473893D01*
X18600480Y74452849D01*
X18610970Y74430671D01*
X18619235Y74407571D01*
X18625196Y74383773D01*
X18628796Y74359504D01*
X18630000Y74335000D01*
X18630000Y72985000D01*
X18628796Y72960496D01*
X18625196Y72936227D01*
X18619235Y72912429D01*
X18610970Y72889329D01*
X18600480Y72867151D01*
X18587867Y72846107D01*
X18573253Y72826402D01*
X18556777Y72808223D01*
X18538598Y72791747D01*
X18518893Y72777133D01*
X18497849Y72764520D01*
X18475671Y72754030D01*
X18452571Y72745765D01*
X18428773Y72739804D01*
X18404504Y72736204D01*
X18380000Y72735000D01*
X17180000Y72735000D01*
X17155496Y72736204D01*
X17131227Y72739804D01*
X17107429Y72745765D01*
X17084329Y72754030D01*
X17062151Y72764520D01*
X17041107Y72777133D01*
X17021402Y72791747D01*
X17003223Y72808223D01*
X16986747Y72826402D01*
X16972133Y72846107D01*
X16959520Y72867151D01*
X16949030Y72889329D01*
X16940765Y72912429D01*
X16934804Y72936227D01*
X16931204Y72960496D01*
X16930000Y72985000D01*
X16930000Y74335000D01*
X16931204Y74359504D01*
X16934804Y74383773D01*
X16940765Y74407571D01*
X16949030Y74430671D01*
X16959520Y74452849D01*
X16972133Y74473893D01*
X16986747Y74493598D01*
X17003223Y74511777D01*
X17021402Y74528253D01*
X17041107Y74542867D01*
X17062151Y74555480D01*
X17084329Y74565970D01*
X17107429Y74574235D01*
X17131227Y74580196D01*
X17155496Y74583796D01*
X17180000Y74585000D01*
X18380000Y74585000D01*
X18404504Y74583796D01*
G37*
G04 #@! TD.AperFunction*
D16*
X25280000Y66040000D03*
X22780000Y66040000D03*
X20280000Y66040000D03*
G04 #@! TA.AperFunction,ComponentPad*
D17*
G36*
X18404504Y66963796D02*
G01*
X18428773Y66960196D01*
X18452571Y66954235D01*
X18475671Y66945970D01*
X18497849Y66935480D01*
X18518893Y66922867D01*
X18538598Y66908253D01*
X18556777Y66891777D01*
X18573253Y66873598D01*
X18587867Y66853893D01*
X18600480Y66832849D01*
X18610970Y66810671D01*
X18619235Y66787571D01*
X18625196Y66763773D01*
X18628796Y66739504D01*
X18630000Y66715000D01*
X18630000Y65365000D01*
X18628796Y65340496D01*
X18625196Y65316227D01*
X18619235Y65292429D01*
X18610970Y65269329D01*
X18600480Y65247151D01*
X18587867Y65226107D01*
X18573253Y65206402D01*
X18556777Y65188223D01*
X18538598Y65171747D01*
X18518893Y65157133D01*
X18497849Y65144520D01*
X18475671Y65134030D01*
X18452571Y65125765D01*
X18428773Y65119804D01*
X18404504Y65116204D01*
X18380000Y65115000D01*
X17180000Y65115000D01*
X17155496Y65116204D01*
X17131227Y65119804D01*
X17107429Y65125765D01*
X17084329Y65134030D01*
X17062151Y65144520D01*
X17041107Y65157133D01*
X17021402Y65171747D01*
X17003223Y65188223D01*
X16986747Y65206402D01*
X16972133Y65226107D01*
X16959520Y65247151D01*
X16949030Y65269329D01*
X16940765Y65292429D01*
X16934804Y65316227D01*
X16931204Y65340496D01*
X16930000Y65365000D01*
X16930000Y66715000D01*
X16931204Y66739504D01*
X16934804Y66763773D01*
X16940765Y66787571D01*
X16949030Y66810671D01*
X16959520Y66832849D01*
X16972133Y66853893D01*
X16986747Y66873598D01*
X17003223Y66891777D01*
X17021402Y66908253D01*
X17041107Y66922867D01*
X17062151Y66935480D01*
X17084329Y66945970D01*
X17107429Y66954235D01*
X17131227Y66960196D01*
X17155496Y66963796D01*
X17180000Y66965000D01*
X18380000Y66965000D01*
X18404504Y66963796D01*
G37*
G04 #@! TD.AperFunction*
D18*
X19050000Y53340000D03*
X14050000Y55840000D03*
X19050000Y58340000D03*
D19*
X33020000Y58420000D03*
D20*
X33020000Y55880000D03*
X34290000Y57150000D03*
D21*
X33020000Y43100000D03*
X33020000Y38100000D03*
X25400000Y28020000D03*
X25400000Y33020000D03*
D22*
X44450000Y33020000D03*
X36830000Y25400000D03*
X44450000Y30480000D03*
X36830000Y27940000D03*
X44450000Y27940000D03*
X36830000Y30480000D03*
X44450000Y25400000D03*
D23*
X36830000Y33020000D03*
D18*
X44450000Y13970000D03*
X39450000Y16470000D03*
X44450000Y18970000D03*
D14*
X33020000Y17780000D03*
D15*
X33020000Y25400000D03*
D19*
X33020000Y15240000D03*
D20*
X33020000Y12700000D03*
X34290000Y13970000D03*
D21*
X33020000Y32940000D03*
X33020000Y27940000D03*
D16*
X26670000Y5080000D03*
G04 #@! TA.AperFunction,ComponentPad*
D17*
G36*
X24794504Y6003796D02*
G01*
X24818773Y6000196D01*
X24842571Y5994235D01*
X24865671Y5985970D01*
X24887849Y5975480D01*
X24908893Y5962867D01*
X24928598Y5948253D01*
X24946777Y5931777D01*
X24963253Y5913598D01*
X24977867Y5893893D01*
X24990480Y5872849D01*
X25000970Y5850671D01*
X25009235Y5827571D01*
X25015196Y5803773D01*
X25018796Y5779504D01*
X25020000Y5755000D01*
X25020000Y4405000D01*
X25018796Y4380496D01*
X25015196Y4356227D01*
X25009235Y4332429D01*
X25000970Y4309329D01*
X24990480Y4287151D01*
X24977867Y4266107D01*
X24963253Y4246402D01*
X24946777Y4228223D01*
X24928598Y4211747D01*
X24908893Y4197133D01*
X24887849Y4184520D01*
X24865671Y4174030D01*
X24842571Y4165765D01*
X24818773Y4159804D01*
X24794504Y4156204D01*
X24770000Y4155000D01*
X23570000Y4155000D01*
X23545496Y4156204D01*
X23521227Y4159804D01*
X23497429Y4165765D01*
X23474329Y4174030D01*
X23452151Y4184520D01*
X23431107Y4197133D01*
X23411402Y4211747D01*
X23393223Y4228223D01*
X23376747Y4246402D01*
X23362133Y4266107D01*
X23349520Y4287151D01*
X23339030Y4309329D01*
X23330765Y4332429D01*
X23324804Y4356227D01*
X23321204Y4380496D01*
X23320000Y4405000D01*
X23320000Y5755000D01*
X23321204Y5779504D01*
X23324804Y5803773D01*
X23330765Y5827571D01*
X23339030Y5850671D01*
X23349520Y5872849D01*
X23362133Y5893893D01*
X23376747Y5913598D01*
X23393223Y5931777D01*
X23411402Y5948253D01*
X23431107Y5962867D01*
X23452151Y5975480D01*
X23474329Y5985970D01*
X23497429Y5994235D01*
X23521227Y6000196D01*
X23545496Y6003796D01*
X23570000Y6005000D01*
X24770000Y6005000D01*
X24794504Y6003796D01*
G37*
G04 #@! TD.AperFunction*
D22*
X13970000Y39370000D03*
X21590000Y46990000D03*
X13970000Y41910000D03*
X21590000Y44450000D03*
X13970000Y44450000D03*
X21590000Y41910000D03*
X13970000Y46990000D03*
D23*
X21590000Y39370000D03*
D14*
X25400000Y53340000D03*
D15*
X25400000Y45720000D03*
D21*
X25400000Y38180000D03*
X25400000Y43180000D03*
D19*
X24130000Y58420000D03*
D20*
X24130000Y55880000D03*
X25400000Y57150000D03*
D22*
X36830000Y39370000D03*
X44450000Y46990000D03*
X36830000Y41910000D03*
X44450000Y44450000D03*
X36830000Y44450000D03*
X44450000Y41910000D03*
X36830000Y46990000D03*
D23*
X44450000Y39370000D03*
D22*
X21590000Y33020000D03*
X13970000Y25400000D03*
X21590000Y30480000D03*
X13970000Y27940000D03*
X21590000Y27940000D03*
X13970000Y30480000D03*
X21590000Y25400000D03*
D23*
X13970000Y33020000D03*
D18*
X44450000Y52070000D03*
X39450000Y54570000D03*
X44450000Y57070000D03*
X19050000Y13970000D03*
X14050000Y16470000D03*
X19050000Y18970000D03*
D14*
X25594999Y17780000D03*
D15*
X25594999Y25400000D03*
D19*
X23914999Y15244999D03*
D20*
X23914999Y12704999D03*
X25184999Y13974999D03*
D24*
X25400000Y35560000D03*
X31750000Y41910000D03*
D25*
X21590000Y41910000D02*
X22715001Y43035001D01*
X22715001Y43035001D02*
X22715001Y45864999D01*
X22715001Y45864999D02*
X22389999Y46190001D01*
X22389999Y46190001D02*
X21590000Y46990000D01*
X40720000Y43100000D02*
X44450000Y39370000D01*
X33020000Y43100000D02*
X40720000Y43100000D01*
X25594999Y17780000D02*
X26294998Y17080001D01*
X26294998Y13641996D02*
X25358001Y12704999D01*
X24834237Y12704999D02*
X23914999Y12704999D01*
X26294998Y17080001D02*
X26294998Y13641996D01*
X25358001Y12704999D02*
X24834237Y12704999D01*
X25594999Y18704999D02*
X25594999Y17715050D01*
X26160000Y13506998D02*
X25358001Y12704999D01*
X25184999Y13974999D02*
X19125001Y13974999D01*
X19125001Y13974999D02*
X19050000Y14050000D01*
X13170001Y26199999D02*
X13970000Y25400000D01*
X12700000Y26670000D02*
X13170001Y26199999D01*
X12700000Y29210000D02*
X12700000Y26670000D01*
X13970000Y30480000D02*
X12700000Y29210000D01*
X17880001Y15139999D02*
X19050000Y13970000D01*
X17554999Y15465001D02*
X17880001Y15139999D01*
X17554999Y21815001D02*
X17554999Y15465001D01*
X13970000Y25400000D02*
X17554999Y21815001D01*
X32044999Y16804999D02*
X32320001Y17080001D01*
X32320001Y17080001D02*
X33020000Y17780000D01*
X32044999Y13675001D02*
X32044999Y16804999D01*
X33020000Y12700000D02*
X32044999Y13675001D01*
X36830000Y21590000D02*
X44450000Y13970000D01*
X36830000Y25400000D02*
X36830000Y21590000D01*
X36830000Y25400000D02*
X37955001Y26525001D01*
X37629999Y29680001D02*
X36830000Y30480000D01*
X37955001Y26525001D02*
X37955001Y29354999D01*
X37955001Y29354999D02*
X37629999Y29680001D01*
X39370000Y57150000D02*
X34290000Y57150000D01*
X44450000Y52070000D02*
X39370000Y57150000D01*
X24274999Y34434999D02*
X25000001Y35160001D01*
X21590000Y25400000D02*
X24274999Y28084999D01*
X24274999Y28084999D02*
X24274999Y34434999D01*
X25000001Y35160001D02*
X25400000Y35560000D01*
X22780000Y49845002D02*
X15095001Y42160003D01*
X15095001Y42160003D02*
X15095001Y29065001D01*
X22780000Y66040000D02*
X22780000Y49845002D01*
X15095001Y29065001D02*
X13970000Y27940000D01*
X20280000Y66040000D02*
X20280000Y64865000D01*
X15101370Y46990000D02*
X13970000Y46990000D01*
X20545001Y52433631D02*
X15101370Y46990000D01*
X20545001Y59057601D02*
X20545001Y52433631D01*
X20280000Y59322602D02*
X20545001Y59057601D01*
X20280000Y66040000D02*
X20280000Y59322602D01*
X39450000Y49450000D02*
X44450000Y44450000D01*
X39450000Y54570000D02*
X39450000Y49450000D01*
X36830000Y27940000D02*
X34145001Y30624999D01*
X31750000Y41910000D02*
X34290000Y39370000D01*
X34290000Y39370000D02*
X34145001Y39514999D01*
X34145001Y30624999D02*
X34290000Y39370000D01*
X41659997Y45575001D02*
X43909999Y43324999D01*
X36289999Y45575001D02*
X41659997Y45575001D01*
X34939999Y44225001D02*
X36289999Y45575001D01*
X26894999Y44225001D02*
X34939999Y44225001D01*
X25400000Y45720000D02*
X26894999Y44225001D01*
X45154999Y43324999D02*
X44594999Y43324999D01*
X50800000Y48970000D02*
X45154999Y43324999D01*
X44594999Y43324999D02*
X43909999Y43324999D01*
X25400000Y25400000D02*
X25594999Y25400000D01*
X30535010Y20459989D02*
X25594999Y25400000D01*
X51905001Y23039599D02*
X51905001Y45324999D01*
X51330401Y22464999D02*
X51905001Y23039599D01*
X50269599Y22464999D02*
X51330401Y22464999D01*
X46845019Y19040419D02*
X50269599Y22464999D01*
X46845019Y12879599D02*
X46845019Y19040419D01*
X51579999Y45650001D02*
X50800000Y46430000D01*
X32365599Y11274989D02*
X45240412Y11274990D01*
X51905001Y45324999D02*
X51579999Y45650001D01*
X31144980Y19850019D02*
X31144980Y12495608D01*
X45240412Y11274990D02*
X46845019Y12879599D01*
X31144980Y12495608D02*
X32365599Y11274989D01*
X25594999Y25400000D02*
X31144980Y19850019D01*
X33020000Y24410051D02*
X33020000Y25400000D01*
X33020000Y20687398D02*
X33020000Y24410051D01*
X41232399Y12474999D02*
X33020000Y20687398D01*
X45167601Y12474999D02*
X41232399Y12474999D01*
X45945001Y13252399D02*
X45167601Y12474999D01*
X45945001Y23628087D02*
X45945001Y13252399D01*
X49530000Y27213086D02*
X45945001Y23628087D01*
X49530000Y27380000D02*
X49530000Y27213086D01*
X50800000Y28650000D02*
X49530000Y27380000D01*
X31594989Y12682009D02*
X32551999Y11724999D01*
X31594989Y30438013D02*
X31594989Y12682009D01*
X24859999Y37054999D02*
X24978003Y37054999D01*
X24274999Y37639999D02*
X24859999Y37054999D01*
X24978003Y37054999D02*
X31594989Y30438013D01*
X24274999Y46112001D02*
X24274999Y37639999D01*
X24907999Y46745001D02*
X24274999Y46112001D01*
X31994999Y46745001D02*
X24907999Y46745001D01*
X33020000Y45720000D02*
X31994999Y46745001D01*
X45054011Y11724999D02*
X32551999Y11724999D01*
X46395010Y13065998D02*
X45054011Y11724999D01*
X46395011Y20268097D02*
X46395010Y13065998D01*
X49696914Y23570000D02*
X46395011Y20268097D01*
X50800000Y23570000D02*
X49696914Y23570000D01*
D26*
G36*
X69723000Y69850000D02*
G01*
X69725440Y69825224D01*
X69732667Y69801399D01*
X69744403Y69779443D01*
X69760197Y69760197D01*
X69779443Y69744403D01*
X69801399Y69732667D01*
X69825224Y69725440D01*
X69850000Y69723000D01*
X78613000Y69723000D01*
X78613000Y10287000D01*
X69850000Y10287000D01*
X69825224Y10284560D01*
X69801399Y10277333D01*
X69779443Y10265597D01*
X69760197Y10249803D01*
X69744403Y10230557D01*
X69732667Y10208601D01*
X69725440Y10184776D01*
X69723000Y10160000D01*
X69723000Y1397000D01*
X11557000Y1397000D01*
X11557000Y4155000D01*
X22681928Y4155000D01*
X22694188Y4030518D01*
X22730498Y3910820D01*
X22789463Y3800506D01*
X22868815Y3703815D01*
X22965506Y3624463D01*
X23075820Y3565498D01*
X23195518Y3529188D01*
X23320000Y3516928D01*
X23884250Y3520000D01*
X24043000Y3678750D01*
X24043000Y4953000D01*
X22843750Y4953000D01*
X22685000Y4794250D01*
X22681928Y4155000D01*
X11557000Y4155000D01*
X11557000Y6005000D01*
X22681928Y6005000D01*
X22685000Y5365750D01*
X22843750Y5207000D01*
X24043000Y5207000D01*
X24043000Y6481250D01*
X24297000Y6481250D01*
X24297000Y5207000D01*
X24317000Y5207000D01*
X24317000Y4953000D01*
X24297000Y4953000D01*
X24297000Y3678750D01*
X24455750Y3520000D01*
X25020000Y3516928D01*
X25144482Y3529188D01*
X25264180Y3565498D01*
X25374494Y3624463D01*
X25471185Y3703815D01*
X25550537Y3800506D01*
X25609502Y3910820D01*
X25620055Y3945608D01*
X25840987Y3764294D01*
X26098967Y3626401D01*
X26378890Y3541487D01*
X26670000Y3512815D01*
X26961111Y3541487D01*
X27241034Y3626401D01*
X27499014Y3764294D01*
X27554706Y3810000D01*
X46617319Y3810000D01*
X46647970Y3498796D01*
X46738745Y3199551D01*
X46886155Y2923765D01*
X47084537Y2682037D01*
X47326265Y2483655D01*
X47602051Y2336245D01*
X47901296Y2245470D01*
X48134514Y2222500D01*
X48385486Y2222500D01*
X48618704Y2245470D01*
X48917949Y2336245D01*
X49193735Y2483655D01*
X49435463Y2682037D01*
X49633845Y2923765D01*
X49781255Y3199551D01*
X49872030Y3498796D01*
X49902681Y3810000D01*
X49872030Y4121204D01*
X49781255Y4420449D01*
X49633845Y4696235D01*
X49435463Y4937963D01*
X49256101Y5085163D01*
X49441315Y5240563D01*
X49635969Y5483077D01*
X49779571Y5758906D01*
X49850563Y5977020D01*
X49730594Y6223000D01*
X48387000Y6223000D01*
X48387000Y6203000D01*
X48133000Y6203000D01*
X48133000Y6223000D01*
X46789406Y6223000D01*
X46669437Y5977020D01*
X46740429Y5758906D01*
X46884031Y5483077D01*
X47078685Y5240563D01*
X47263899Y5085163D01*
X47084537Y4937963D01*
X46886155Y4696235D01*
X46738745Y4420449D01*
X46647970Y4121204D01*
X46617319Y3810000D01*
X27554706Y3810000D01*
X27725134Y3949866D01*
X27910706Y4175987D01*
X28048599Y4433967D01*
X28133513Y4713890D01*
X28155000Y4932051D01*
X28155000Y5227950D01*
X28133513Y5446111D01*
X28048599Y5726034D01*
X27910706Y5984014D01*
X27725134Y6210134D01*
X27499013Y6395706D01*
X27241033Y6533599D01*
X26961110Y6618513D01*
X26670000Y6647185D01*
X26378889Y6618513D01*
X26098966Y6533599D01*
X25840986Y6395706D01*
X25620055Y6214392D01*
X25609502Y6249180D01*
X25550537Y6359494D01*
X25471185Y6456185D01*
X25374494Y6535537D01*
X25264180Y6594502D01*
X25144482Y6630812D01*
X25020000Y6643072D01*
X24455750Y6640000D01*
X24297000Y6481250D01*
X24043000Y6481250D01*
X23884250Y6640000D01*
X23320000Y6643072D01*
X23195518Y6630812D01*
X23075820Y6594502D01*
X22965506Y6535537D01*
X22868815Y6456185D01*
X22789463Y6359494D01*
X22730498Y6249180D01*
X22694188Y6129482D01*
X22681928Y6005000D01*
X11557000Y6005000D01*
X11557000Y9842500D01*
X46621928Y9842500D01*
X46621928Y7937500D01*
X46634188Y7813018D01*
X46670498Y7693320D01*
X46729463Y7583006D01*
X46808815Y7486315D01*
X46905506Y7406963D01*
X46997219Y7357941D01*
X46884031Y7216923D01*
X46740429Y6941094D01*
X46669437Y6722980D01*
X46789406Y6477000D01*
X48133000Y6477000D01*
X48133000Y6497000D01*
X48387000Y6497000D01*
X48387000Y6477000D01*
X49730594Y6477000D01*
X49783219Y6584902D01*
X61675000Y6584902D01*
X61675000Y6115098D01*
X61766654Y5654321D01*
X61946440Y5220279D01*
X62207450Y4829651D01*
X62539651Y4497450D01*
X62930279Y4236440D01*
X63364321Y4056654D01*
X63825098Y3965000D01*
X64294902Y3965000D01*
X64755679Y4056654D01*
X65189721Y4236440D01*
X65580349Y4497450D01*
X65912550Y4829651D01*
X66173560Y5220279D01*
X66353346Y5654321D01*
X66445000Y6115098D01*
X66445000Y6584902D01*
X66353346Y7045679D01*
X66173560Y7479721D01*
X65912550Y7870349D01*
X65580349Y8202550D01*
X65189721Y8463560D01*
X64755679Y8643346D01*
X64294902Y8735000D01*
X63825098Y8735000D01*
X63364321Y8643346D01*
X62930279Y8463560D01*
X62539651Y8202550D01*
X62207450Y7870349D01*
X61946440Y7479721D01*
X61766654Y7045679D01*
X61675000Y6584902D01*
X49783219Y6584902D01*
X49850563Y6722980D01*
X49779571Y6941094D01*
X49635969Y7216923D01*
X49522781Y7357941D01*
X49614494Y7406963D01*
X49711185Y7486315D01*
X49790537Y7583006D01*
X49849502Y7693320D01*
X49885812Y7813018D01*
X49898072Y7937500D01*
X49898072Y9842500D01*
X49885812Y9966982D01*
X49849502Y10086680D01*
X49790537Y10196994D01*
X49711185Y10293685D01*
X49614494Y10373037D01*
X49504180Y10432002D01*
X49384482Y10468312D01*
X49260000Y10480572D01*
X47260000Y10480572D01*
X47135518Y10468312D01*
X47015820Y10432002D01*
X46905506Y10373037D01*
X46808815Y10293685D01*
X46729463Y10196994D01*
X46670498Y10086680D01*
X46634188Y9966982D01*
X46621928Y9842500D01*
X11557000Y9842500D01*
X11557000Y16647777D01*
X12245000Y16647777D01*
X12245000Y16292223D01*
X12314365Y15943501D01*
X12450429Y15615012D01*
X12647965Y15319379D01*
X12899379Y15067965D01*
X13195012Y14870429D01*
X13523501Y14734365D01*
X13872223Y14665000D01*
X14227777Y14665000D01*
X14576499Y14734365D01*
X14904988Y14870429D01*
X15200621Y15067965D01*
X15452035Y15319379D01*
X15649571Y15615012D01*
X15785635Y15943501D01*
X15855000Y16292223D01*
X15855000Y16647777D01*
X15785635Y16996499D01*
X15649571Y17324988D01*
X15452035Y17620621D01*
X15200621Y17872035D01*
X14904988Y18069571D01*
X14576499Y18205635D01*
X14227777Y18275000D01*
X13872223Y18275000D01*
X13523501Y18205635D01*
X13195012Y18069571D01*
X12899379Y17872035D01*
X12647965Y17620621D01*
X12450429Y17324988D01*
X12314365Y16996499D01*
X12245000Y16647777D01*
X11557000Y16647777D01*
X11557000Y29210000D01*
X11936324Y29210000D01*
X11940000Y29172677D01*
X11940001Y26707332D01*
X11936324Y26670000D01*
X11940001Y26632667D01*
X11950998Y26521014D01*
X11955085Y26507540D01*
X11994454Y26377754D01*
X12065026Y26245724D01*
X12117896Y26181303D01*
X12160000Y26129999D01*
X12188998Y26106201D01*
X12571312Y25723887D01*
X12535000Y25541335D01*
X12535000Y25258665D01*
X12590147Y24981426D01*
X12698320Y24720273D01*
X12855363Y24485241D01*
X13055241Y24285363D01*
X13290273Y24128320D01*
X13551426Y24020147D01*
X13828665Y23965000D01*
X14111335Y23965000D01*
X14293887Y24001312D01*
X16794999Y21500199D01*
X16795000Y15502333D01*
X16791323Y15465001D01*
X16795000Y15427668D01*
X16800480Y15372035D01*
X16805997Y15316016D01*
X16849453Y15172755D01*
X16920025Y15040725D01*
X16990994Y14954250D01*
X17014999Y14925000D01*
X17043997Y14901202D01*
X17353711Y14591488D01*
X17314365Y14496499D01*
X17245000Y14147777D01*
X17245000Y13792223D01*
X17314365Y13443501D01*
X17450429Y13115012D01*
X17647965Y12819379D01*
X17899379Y12567965D01*
X18195012Y12370429D01*
X18523501Y12234365D01*
X18872223Y12165000D01*
X19227777Y12165000D01*
X19576499Y12234365D01*
X19904988Y12370429D01*
X20200621Y12567965D01*
X20452035Y12819379D01*
X20649571Y13115012D01*
X20690987Y13214999D01*
X22735373Y13214999D01*
X22679380Y13079820D01*
X22629999Y12831560D01*
X22629999Y12578438D01*
X22679380Y12330178D01*
X22776246Y12096323D01*
X22916874Y11885859D01*
X23095859Y11706874D01*
X23306323Y11566246D01*
X23540178Y11469380D01*
X23788438Y11419999D01*
X24041560Y11419999D01*
X24289820Y11469380D01*
X24523675Y11566246D01*
X24734139Y11706874D01*
X24913124Y11885859D01*
X24952640Y11944999D01*
X25320679Y11944999D01*
X25358001Y11941323D01*
X25395323Y11944999D01*
X25395334Y11944999D01*
X25506987Y11955996D01*
X25650248Y11999453D01*
X25782277Y12070025D01*
X25898002Y12164998D01*
X25921804Y12194001D01*
X26723799Y12995995D01*
X26806001Y13078197D01*
X26834999Y13101995D01*
X26929972Y13217720D01*
X27000544Y13349749D01*
X27044001Y13493010D01*
X27054998Y13604663D01*
X27054998Y13604673D01*
X27058674Y13641996D01*
X27054998Y13679319D01*
X27054998Y17042679D01*
X27058674Y17080002D01*
X27054998Y17117325D01*
X27054998Y17117334D01*
X27044001Y17228987D01*
X27000544Y17372248D01*
X26990576Y17390897D01*
X26929972Y17504278D01*
X26906900Y17532391D01*
X26929999Y17648514D01*
X26929999Y17911486D01*
X26878695Y18169405D01*
X26778060Y18412359D01*
X26631961Y18631013D01*
X26446012Y18816962D01*
X26332156Y18893038D01*
X26300545Y18997246D01*
X26229973Y19129275D01*
X26135000Y19245000D01*
X26019274Y19339973D01*
X25887245Y19410545D01*
X25743984Y19454002D01*
X25594999Y19468676D01*
X25446013Y19454002D01*
X25302752Y19410545D01*
X25170723Y19339973D01*
X25054998Y19245000D01*
X24960025Y19129274D01*
X24889453Y18997245D01*
X24857843Y18893038D01*
X24743986Y18816962D01*
X24558037Y18631013D01*
X24411938Y18412359D01*
X24311303Y18169405D01*
X24259999Y17911486D01*
X24259999Y17648514D01*
X24311303Y17390595D01*
X24411938Y17147641D01*
X24558037Y16928987D01*
X24743986Y16743038D01*
X24962640Y16596939D01*
X25205594Y16496304D01*
X25463513Y16445000D01*
X25534998Y16445000D01*
X25534999Y15215555D01*
X25311560Y15259999D01*
X25199999Y15259999D01*
X25199999Y15372001D01*
X25041251Y15372001D01*
X25199999Y15530749D01*
X25203071Y15894999D01*
X25190811Y16019481D01*
X25154501Y16139179D01*
X25095536Y16249493D01*
X25016184Y16346184D01*
X24919493Y16425536D01*
X24809179Y16484501D01*
X24689481Y16520811D01*
X24564999Y16533071D01*
X24200749Y16529999D01*
X24041999Y16371249D01*
X24041999Y15371999D01*
X24061999Y15371999D01*
X24061999Y15117999D01*
X24041999Y15117999D01*
X24041999Y15097999D01*
X23787999Y15097999D01*
X23787999Y15117999D01*
X22788749Y15117999D01*
X22629999Y14959249D01*
X22628108Y14734999D01*
X20686846Y14734999D01*
X20649571Y14824988D01*
X20452035Y15120621D01*
X20200621Y15372035D01*
X19904988Y15569571D01*
X19576499Y15705635D01*
X19227777Y15775000D01*
X18872223Y15775000D01*
X18523501Y15705635D01*
X18428512Y15666289D01*
X18314999Y15779802D01*
X18314999Y15894999D01*
X22626927Y15894999D01*
X22629999Y15530749D01*
X22788749Y15371999D01*
X23787999Y15371999D01*
X23787999Y16371249D01*
X23629249Y16529999D01*
X23264999Y16533071D01*
X23140517Y16520811D01*
X23020819Y16484501D01*
X22910505Y16425536D01*
X22813814Y16346184D01*
X22734462Y16249493D01*
X22675497Y16139179D01*
X22639187Y16019481D01*
X22626927Y15894999D01*
X18314999Y15894999D01*
X18314999Y17320729D01*
X18523501Y17234365D01*
X18872223Y17165000D01*
X19227777Y17165000D01*
X19576499Y17234365D01*
X19904988Y17370429D01*
X20200621Y17567965D01*
X20452035Y17819379D01*
X20649571Y18115012D01*
X20785635Y18443501D01*
X20855000Y18792223D01*
X20855000Y19147777D01*
X20785635Y19496499D01*
X20649571Y19824988D01*
X20452035Y20120621D01*
X20200621Y20372035D01*
X19904988Y20569571D01*
X19576499Y20705635D01*
X19227777Y20775000D01*
X18872223Y20775000D01*
X18523501Y20705635D01*
X18314999Y20619271D01*
X18314999Y21777679D01*
X18318675Y21815002D01*
X18314999Y21852325D01*
X18314999Y21852334D01*
X18304002Y21963987D01*
X18260545Y22107248D01*
X18189973Y22239277D01*
X18095000Y22355002D01*
X18066003Y22378799D01*
X15368688Y25076113D01*
X15405000Y25258665D01*
X15405000Y25541335D01*
X15349853Y25818574D01*
X15241680Y26079727D01*
X15084637Y26314759D01*
X14884759Y26514637D01*
X14652241Y26670000D01*
X14884759Y26825363D01*
X15084637Y27025241D01*
X15241680Y27260273D01*
X15349853Y27521426D01*
X15405000Y27798665D01*
X15405000Y28081335D01*
X15368688Y28263886D01*
X15606004Y28501202D01*
X15635002Y28525000D01*
X15729975Y28640725D01*
X15800547Y28772754D01*
X15844004Y28916015D01*
X15855001Y29027668D01*
X15855001Y29027676D01*
X15858677Y29065001D01*
X15855001Y29102326D01*
X15855001Y33161335D01*
X20155000Y33161335D01*
X20155000Y32878665D01*
X20210147Y32601426D01*
X20318320Y32340273D01*
X20475363Y32105241D01*
X20675241Y31905363D01*
X20907759Y31750000D01*
X20675241Y31594637D01*
X20475363Y31394759D01*
X20318320Y31159727D01*
X20210147Y30898574D01*
X20155000Y30621335D01*
X20155000Y30338665D01*
X20210147Y30061426D01*
X20318320Y29800273D01*
X20475363Y29565241D01*
X20675241Y29365363D01*
X20907759Y29210000D01*
X20675241Y29054637D01*
X20475363Y28854759D01*
X20318320Y28619727D01*
X20210147Y28358574D01*
X20155000Y28081335D01*
X20155000Y27798665D01*
X20210147Y27521426D01*
X20318320Y27260273D01*
X20475363Y27025241D01*
X20675241Y26825363D01*
X20907759Y26670000D01*
X20675241Y26514637D01*
X20475363Y26314759D01*
X20318320Y26079727D01*
X20210147Y25818574D01*
X20155000Y25541335D01*
X20155000Y25258665D01*
X20210147Y24981426D01*
X20318320Y24720273D01*
X20475363Y24485241D01*
X20675241Y24285363D01*
X20910273Y24128320D01*
X21171426Y24020147D01*
X21448665Y23965000D01*
X21731335Y23965000D01*
X22008574Y24020147D01*
X22269727Y24128320D01*
X22504759Y24285363D01*
X22704637Y24485241D01*
X22861680Y24720273D01*
X22969853Y24981426D01*
X23025000Y25258665D01*
X23025000Y25541335D01*
X22988688Y25723886D01*
X24327703Y27062901D01*
X24485241Y26905363D01*
X24720273Y26748320D01*
X24981426Y26640147D01*
X25061841Y26624151D01*
X24962640Y26583061D01*
X24743986Y26436962D01*
X24558037Y26251013D01*
X24411938Y26032359D01*
X24311303Y25789405D01*
X24259999Y25531486D01*
X24259999Y25268514D01*
X24311303Y25010595D01*
X24411938Y24767641D01*
X24558037Y24548987D01*
X24743986Y24363038D01*
X24962640Y24216939D01*
X25205594Y24116304D01*
X25463513Y24065000D01*
X25726485Y24065000D01*
X25833843Y24086355D01*
X30384980Y19535216D01*
X30384981Y12532940D01*
X30381304Y12495608D01*
X30395978Y12346623D01*
X30439434Y12203362D01*
X30510006Y12071332D01*
X30572651Y11995000D01*
X30604980Y11955607D01*
X30633978Y11931809D01*
X31801805Y10763981D01*
X31825599Y10734988D01*
X31854592Y10711194D01*
X31854596Y10711190D01*
X31941322Y10640015D01*
X32073352Y10569443D01*
X32116809Y10556261D01*
X32216614Y10525986D01*
X32328267Y10514989D01*
X32328276Y10514989D01*
X32365599Y10511313D01*
X32402922Y10514989D01*
X45203080Y10514991D01*
X45240412Y10511314D01*
X45389398Y10525988D01*
X45532658Y10569444D01*
X45664688Y10640017D01*
X45751415Y10711191D01*
X45751420Y10711196D01*
X45780413Y10734990D01*
X45804207Y10763983D01*
X47356023Y12315801D01*
X47385020Y12339598D01*
X47479993Y12455323D01*
X47550565Y12587352D01*
X47594022Y12730613D01*
X47605019Y12842266D01*
X47605019Y12842276D01*
X47608695Y12879599D01*
X47605019Y12916922D01*
X47605019Y18725618D01*
X49456155Y20576753D01*
X49546043Y20359746D01*
X49700897Y20127990D01*
X49897990Y19930897D01*
X50129746Y19776043D01*
X50168477Y19760000D01*
X50129746Y19743957D01*
X49897990Y19589103D01*
X49700897Y19392010D01*
X49546043Y19160254D01*
X49439377Y18902740D01*
X49385000Y18629365D01*
X49385000Y18350635D01*
X49439377Y18077260D01*
X49546043Y17819746D01*
X49700897Y17587990D01*
X49897990Y17390897D01*
X50129746Y17236043D01*
X50168477Y17220000D01*
X50129746Y17203957D01*
X49897990Y17049103D01*
X49700897Y16852010D01*
X49546043Y16620254D01*
X49439377Y16362740D01*
X49385000Y16089365D01*
X49385000Y15810635D01*
X49439377Y15537260D01*
X49546043Y15279746D01*
X49700897Y15047990D01*
X49897990Y14850897D01*
X50129746Y14696043D01*
X50168477Y14680000D01*
X50129746Y14663957D01*
X49897990Y14509103D01*
X49700897Y14312010D01*
X49546043Y14080254D01*
X49439377Y13822740D01*
X49385000Y13549365D01*
X49385000Y13270635D01*
X49439377Y12997260D01*
X49546043Y12739746D01*
X49700897Y12507990D01*
X49897990Y12310897D01*
X50129746Y12156043D01*
X50387260Y12049377D01*
X50660635Y11995000D01*
X50939365Y11995000D01*
X51212740Y12049377D01*
X51470254Y12156043D01*
X51702010Y12310897D01*
X51899103Y12507990D01*
X52053957Y12739746D01*
X52160623Y12997260D01*
X52215000Y13270635D01*
X52215000Y13549365D01*
X52160623Y13822740D01*
X52053957Y14080254D01*
X51899103Y14312010D01*
X51702010Y14509103D01*
X51470254Y14663957D01*
X51431523Y14680000D01*
X51470254Y14696043D01*
X51702010Y14850897D01*
X51899103Y15047990D01*
X52053957Y15279746D01*
X52160623Y15537260D01*
X52215000Y15810635D01*
X52215000Y16089365D01*
X52160623Y16362740D01*
X52053957Y16620254D01*
X51899103Y16852010D01*
X51702010Y17049103D01*
X51470254Y17203957D01*
X51431523Y17220000D01*
X51470254Y17236043D01*
X51702010Y17390897D01*
X51899103Y17587990D01*
X52053957Y17819746D01*
X52160623Y18077260D01*
X52215000Y18350635D01*
X52215000Y18629365D01*
X52160623Y18902740D01*
X52053957Y19160254D01*
X51899103Y19392010D01*
X51702010Y19589103D01*
X51470254Y19743957D01*
X51431523Y19760000D01*
X51470254Y19776043D01*
X51702010Y19930897D01*
X51899103Y20127990D01*
X52053957Y20359746D01*
X52160623Y20617260D01*
X52215000Y20890635D01*
X52215000Y21169365D01*
X52160623Y21442740D01*
X52053957Y21700254D01*
X51899103Y21932010D01*
X51886500Y21944613D01*
X51894204Y21954001D01*
X52416005Y22475801D01*
X52445002Y22499598D01*
X52497859Y22564004D01*
X52539975Y22615322D01*
X52610547Y22747352D01*
X52613548Y22757246D01*
X52654004Y22890613D01*
X52665001Y23002266D01*
X52665001Y23002275D01*
X52668677Y23039598D01*
X52665001Y23076921D01*
X52665001Y45287677D01*
X52668677Y45325000D01*
X52665001Y45362323D01*
X52665001Y45362332D01*
X52654004Y45473985D01*
X52610547Y45617246D01*
X52539975Y45749275D01*
X52445002Y45865000D01*
X52415998Y45888803D01*
X52181680Y46123121D01*
X52215000Y46290635D01*
X52215000Y46569365D01*
X52160623Y46842740D01*
X52053957Y47100254D01*
X51899103Y47332010D01*
X51702010Y47529103D01*
X51470254Y47683957D01*
X51431523Y47700000D01*
X51470254Y47716043D01*
X51702010Y47870897D01*
X51899103Y48067990D01*
X52053957Y48299746D01*
X52160623Y48557260D01*
X52215000Y48830635D01*
X52215000Y49109365D01*
X52160623Y49382740D01*
X52053957Y49640254D01*
X51899103Y49872010D01*
X51702010Y50069103D01*
X51470254Y50223957D01*
X51431523Y50240000D01*
X51470254Y50256043D01*
X51702010Y50410897D01*
X51899103Y50607990D01*
X52053957Y50839746D01*
X52160623Y51097260D01*
X52215000Y51370635D01*
X52215000Y51649365D01*
X52160623Y51922740D01*
X52053957Y52180254D01*
X51899103Y52412010D01*
X51702010Y52609103D01*
X51470254Y52763957D01*
X51431523Y52780000D01*
X51470254Y52796043D01*
X51702010Y52950897D01*
X51899103Y53147990D01*
X52053957Y53379746D01*
X52160623Y53637260D01*
X52215000Y53910635D01*
X52215000Y54189365D01*
X52160623Y54462740D01*
X52053957Y54720254D01*
X51899103Y54952010D01*
X51702010Y55149103D01*
X51470254Y55303957D01*
X51431523Y55320000D01*
X51470254Y55336043D01*
X51702010Y55490897D01*
X51899103Y55687990D01*
X52053957Y55919746D01*
X52160623Y56177260D01*
X52215000Y56450635D01*
X52215000Y56729365D01*
X74785000Y56729365D01*
X74785000Y56450635D01*
X74839377Y56177260D01*
X74946043Y55919746D01*
X75100897Y55687990D01*
X75297990Y55490897D01*
X75529746Y55336043D01*
X75568477Y55320000D01*
X75529746Y55303957D01*
X75297990Y55149103D01*
X75100897Y54952010D01*
X74946043Y54720254D01*
X74839377Y54462740D01*
X74785000Y54189365D01*
X74785000Y53910635D01*
X74839377Y53637260D01*
X74946043Y53379746D01*
X75100897Y53147990D01*
X75297990Y52950897D01*
X75529746Y52796043D01*
X75568477Y52780000D01*
X75529746Y52763957D01*
X75297990Y52609103D01*
X75100897Y52412010D01*
X74946043Y52180254D01*
X74839377Y51922740D01*
X74785000Y51649365D01*
X74785000Y51370635D01*
X74839377Y51097260D01*
X74946043Y50839746D01*
X75100897Y50607990D01*
X75297990Y50410897D01*
X75529746Y50256043D01*
X75568477Y50240000D01*
X75529746Y50223957D01*
X75297990Y50069103D01*
X75100897Y49872010D01*
X74946043Y49640254D01*
X74839377Y49382740D01*
X74785000Y49109365D01*
X74785000Y48830635D01*
X74839377Y48557260D01*
X74946043Y48299746D01*
X75100897Y48067990D01*
X75297990Y47870897D01*
X75529746Y47716043D01*
X75568477Y47700000D01*
X75529746Y47683957D01*
X75297990Y47529103D01*
X75100897Y47332010D01*
X74946043Y47100254D01*
X74839377Y46842740D01*
X74785000Y46569365D01*
X74785000Y46290635D01*
X74839377Y46017260D01*
X74946043Y45759746D01*
X75100897Y45527990D01*
X75297990Y45330897D01*
X75529746Y45176043D01*
X75568477Y45160000D01*
X75529746Y45143957D01*
X75297990Y44989103D01*
X75100897Y44792010D01*
X74946043Y44560254D01*
X74839377Y44302740D01*
X74785000Y44029365D01*
X74785000Y43750635D01*
X74839377Y43477260D01*
X74946043Y43219746D01*
X75100897Y42987990D01*
X75297990Y42790897D01*
X75529746Y42636043D01*
X75568477Y42620000D01*
X75529746Y42603957D01*
X75297990Y42449103D01*
X75100897Y42252010D01*
X74946043Y42020254D01*
X74839377Y41762740D01*
X74785000Y41489365D01*
X74785000Y41210635D01*
X74839377Y40937260D01*
X74946043Y40679746D01*
X75100897Y40447990D01*
X75297990Y40250897D01*
X75529746Y40096043D01*
X75568477Y40080000D01*
X75529746Y40063957D01*
X75297990Y39909103D01*
X75100897Y39712010D01*
X74946043Y39480254D01*
X74839377Y39222740D01*
X74785000Y38949365D01*
X74785000Y38670635D01*
X74839377Y38397260D01*
X74946043Y38139746D01*
X75100897Y37907990D01*
X75297990Y37710897D01*
X75529746Y37556043D01*
X75568477Y37540000D01*
X75529746Y37523957D01*
X75297990Y37369103D01*
X75100897Y37172010D01*
X74946043Y36940254D01*
X74839377Y36682740D01*
X74785000Y36409365D01*
X74785000Y36130635D01*
X74839377Y35857260D01*
X74946043Y35599746D01*
X75100897Y35367990D01*
X75297990Y35170897D01*
X75529746Y35016043D01*
X75568477Y35000000D01*
X75529746Y34983957D01*
X75297990Y34829103D01*
X75100897Y34632010D01*
X74946043Y34400254D01*
X74839377Y34142740D01*
X74785000Y33869365D01*
X74785000Y33590635D01*
X74839377Y33317260D01*
X74946043Y33059746D01*
X75100897Y32827990D01*
X75297990Y32630897D01*
X75529746Y32476043D01*
X75568477Y32460000D01*
X75529746Y32443957D01*
X75297990Y32289103D01*
X75100897Y32092010D01*
X74946043Y31860254D01*
X74839377Y31602740D01*
X74785000Y31329365D01*
X74785000Y31050635D01*
X74839377Y30777260D01*
X74946043Y30519746D01*
X75100897Y30287990D01*
X75297990Y30090897D01*
X75529746Y29936043D01*
X75568477Y29920000D01*
X75529746Y29903957D01*
X75297990Y29749103D01*
X75100897Y29552010D01*
X74946043Y29320254D01*
X74839377Y29062740D01*
X74785000Y28789365D01*
X74785000Y28510635D01*
X74839377Y28237260D01*
X74946043Y27979746D01*
X75100897Y27747990D01*
X75297990Y27550897D01*
X75529746Y27396043D01*
X75568477Y27380000D01*
X75529746Y27363957D01*
X75297990Y27209103D01*
X75100897Y27012010D01*
X74946043Y26780254D01*
X74839377Y26522740D01*
X74785000Y26249365D01*
X74785000Y25970635D01*
X74839377Y25697260D01*
X74946043Y25439746D01*
X75100897Y25207990D01*
X75297990Y25010897D01*
X75529746Y24856043D01*
X75568477Y24840000D01*
X75529746Y24823957D01*
X75297990Y24669103D01*
X75100897Y24472010D01*
X74946043Y24240254D01*
X74839377Y23982740D01*
X74785000Y23709365D01*
X74785000Y23430635D01*
X74839377Y23157260D01*
X74946043Y22899746D01*
X75100897Y22667990D01*
X75297990Y22470897D01*
X75529746Y22316043D01*
X75568477Y22300000D01*
X75529746Y22283957D01*
X75297990Y22129103D01*
X75100897Y21932010D01*
X74946043Y21700254D01*
X74839377Y21442740D01*
X74785000Y21169365D01*
X74785000Y20890635D01*
X74839377Y20617260D01*
X74946043Y20359746D01*
X75100897Y20127990D01*
X75297990Y19930897D01*
X75529746Y19776043D01*
X75568477Y19760000D01*
X75529746Y19743957D01*
X75297990Y19589103D01*
X75100897Y19392010D01*
X74946043Y19160254D01*
X74839377Y18902740D01*
X74785000Y18629365D01*
X74785000Y18350635D01*
X74839377Y18077260D01*
X74946043Y17819746D01*
X75100897Y17587990D01*
X75297990Y17390897D01*
X75529746Y17236043D01*
X75568477Y17220000D01*
X75529746Y17203957D01*
X75297990Y17049103D01*
X75100897Y16852010D01*
X74946043Y16620254D01*
X74839377Y16362740D01*
X74785000Y16089365D01*
X74785000Y15810635D01*
X74839377Y15537260D01*
X74946043Y15279746D01*
X75100897Y15047990D01*
X75297990Y14850897D01*
X75529746Y14696043D01*
X75568477Y14680000D01*
X75529746Y14663957D01*
X75297990Y14509103D01*
X75100897Y14312010D01*
X74946043Y14080254D01*
X74839377Y13822740D01*
X74785000Y13549365D01*
X74785000Y13270635D01*
X74839377Y12997260D01*
X74946043Y12739746D01*
X75100897Y12507990D01*
X75297990Y12310897D01*
X75529746Y12156043D01*
X75787260Y12049377D01*
X76060635Y11995000D01*
X76339365Y11995000D01*
X76612740Y12049377D01*
X76870254Y12156043D01*
X77102010Y12310897D01*
X77299103Y12507990D01*
X77453957Y12739746D01*
X77560623Y12997260D01*
X77615000Y13270635D01*
X77615000Y13549365D01*
X77560623Y13822740D01*
X77453957Y14080254D01*
X77299103Y14312010D01*
X77102010Y14509103D01*
X76870254Y14663957D01*
X76831523Y14680000D01*
X76870254Y14696043D01*
X77102010Y14850897D01*
X77299103Y15047990D01*
X77453957Y15279746D01*
X77560623Y15537260D01*
X77615000Y15810635D01*
X77615000Y16089365D01*
X77560623Y16362740D01*
X77453957Y16620254D01*
X77299103Y16852010D01*
X77102010Y17049103D01*
X76870254Y17203957D01*
X76831523Y17220000D01*
X76870254Y17236043D01*
X77102010Y17390897D01*
X77299103Y17587990D01*
X77453957Y17819746D01*
X77560623Y18077260D01*
X77615000Y18350635D01*
X77615000Y18629365D01*
X77560623Y18902740D01*
X77453957Y19160254D01*
X77299103Y19392010D01*
X77102010Y19589103D01*
X76870254Y19743957D01*
X76831523Y19760000D01*
X76870254Y19776043D01*
X77102010Y19930897D01*
X77299103Y20127990D01*
X77453957Y20359746D01*
X77560623Y20617260D01*
X77615000Y20890635D01*
X77615000Y21169365D01*
X77560623Y21442740D01*
X77453957Y21700254D01*
X77299103Y21932010D01*
X77102010Y22129103D01*
X76870254Y22283957D01*
X76831523Y22300000D01*
X76870254Y22316043D01*
X77102010Y22470897D01*
X77299103Y22667990D01*
X77453957Y22899746D01*
X77560623Y23157260D01*
X77615000Y23430635D01*
X77615000Y23709365D01*
X77560623Y23982740D01*
X77453957Y24240254D01*
X77299103Y24472010D01*
X77102010Y24669103D01*
X76870254Y24823957D01*
X76831523Y24840000D01*
X76870254Y24856043D01*
X77102010Y25010897D01*
X77299103Y25207990D01*
X77453957Y25439746D01*
X77560623Y25697260D01*
X77615000Y25970635D01*
X77615000Y26249365D01*
X77560623Y26522740D01*
X77453957Y26780254D01*
X77299103Y27012010D01*
X77102010Y27209103D01*
X76870254Y27363957D01*
X76831523Y27380000D01*
X76870254Y27396043D01*
X77102010Y27550897D01*
X77299103Y27747990D01*
X77453957Y27979746D01*
X77560623Y28237260D01*
X77615000Y28510635D01*
X77615000Y28789365D01*
X77560623Y29062740D01*
X77453957Y29320254D01*
X77299103Y29552010D01*
X77102010Y29749103D01*
X76870254Y29903957D01*
X76831523Y29920000D01*
X76870254Y29936043D01*
X77102010Y30090897D01*
X77299103Y30287990D01*
X77453957Y30519746D01*
X77560623Y30777260D01*
X77615000Y31050635D01*
X77615000Y31329365D01*
X77560623Y31602740D01*
X77453957Y31860254D01*
X77299103Y32092010D01*
X77102010Y32289103D01*
X76870254Y32443957D01*
X76831523Y32460000D01*
X76870254Y32476043D01*
X77102010Y32630897D01*
X77299103Y32827990D01*
X77453957Y33059746D01*
X77560623Y33317260D01*
X77615000Y33590635D01*
X77615000Y33869365D01*
X77560623Y34142740D01*
X77453957Y34400254D01*
X77299103Y34632010D01*
X77102010Y34829103D01*
X76870254Y34983957D01*
X76831523Y35000000D01*
X76870254Y35016043D01*
X77102010Y35170897D01*
X77299103Y35367990D01*
X77453957Y35599746D01*
X77560623Y35857260D01*
X77615000Y36130635D01*
X77615000Y36409365D01*
X77560623Y36682740D01*
X77453957Y36940254D01*
X77299103Y37172010D01*
X77102010Y37369103D01*
X76870254Y37523957D01*
X76831523Y37540000D01*
X76870254Y37556043D01*
X77102010Y37710897D01*
X77299103Y37907990D01*
X77453957Y38139746D01*
X77560623Y38397260D01*
X77615000Y38670635D01*
X77615000Y38949365D01*
X77560623Y39222740D01*
X77453957Y39480254D01*
X77299103Y39712010D01*
X77102010Y39909103D01*
X76870254Y40063957D01*
X76831523Y40080000D01*
X76870254Y40096043D01*
X77102010Y40250897D01*
X77299103Y40447990D01*
X77453957Y40679746D01*
X77560623Y40937260D01*
X77615000Y41210635D01*
X77615000Y41489365D01*
X77560623Y41762740D01*
X77453957Y42020254D01*
X77299103Y42252010D01*
X77102010Y42449103D01*
X76870254Y42603957D01*
X76831523Y42620000D01*
X76870254Y42636043D01*
X77102010Y42790897D01*
X77299103Y42987990D01*
X77453957Y43219746D01*
X77560623Y43477260D01*
X77615000Y43750635D01*
X77615000Y44029365D01*
X77560623Y44302740D01*
X77453957Y44560254D01*
X77299103Y44792010D01*
X77102010Y44989103D01*
X76870254Y45143957D01*
X76831523Y45160000D01*
X76870254Y45176043D01*
X77102010Y45330897D01*
X77299103Y45527990D01*
X77453957Y45759746D01*
X77560623Y46017260D01*
X77615000Y46290635D01*
X77615000Y46569365D01*
X77560623Y46842740D01*
X77453957Y47100254D01*
X77299103Y47332010D01*
X77102010Y47529103D01*
X76870254Y47683957D01*
X76831523Y47700000D01*
X76870254Y47716043D01*
X77102010Y47870897D01*
X77299103Y48067990D01*
X77453957Y48299746D01*
X77560623Y48557260D01*
X77615000Y48830635D01*
X77615000Y49109365D01*
X77560623Y49382740D01*
X77453957Y49640254D01*
X77299103Y49872010D01*
X77102010Y50069103D01*
X76870254Y50223957D01*
X76831523Y50240000D01*
X76870254Y50256043D01*
X77102010Y50410897D01*
X77299103Y50607990D01*
X77453957Y50839746D01*
X77560623Y51097260D01*
X77615000Y51370635D01*
X77615000Y51649365D01*
X77560623Y51922740D01*
X77453957Y52180254D01*
X77299103Y52412010D01*
X77102010Y52609103D01*
X76870254Y52763957D01*
X76831523Y52780000D01*
X76870254Y52796043D01*
X77102010Y52950897D01*
X77299103Y53147990D01*
X77453957Y53379746D01*
X77560623Y53637260D01*
X77615000Y53910635D01*
X77615000Y54189365D01*
X77560623Y54462740D01*
X77453957Y54720254D01*
X77299103Y54952010D01*
X77102010Y55149103D01*
X76870254Y55303957D01*
X76831523Y55320000D01*
X76870254Y55336043D01*
X77102010Y55490897D01*
X77299103Y55687990D01*
X77453957Y55919746D01*
X77560623Y56177260D01*
X77615000Y56450635D01*
X77615000Y56729365D01*
X77560623Y57002740D01*
X77453957Y57260254D01*
X77299103Y57492010D01*
X77102010Y57689103D01*
X76870254Y57843957D01*
X76834475Y57858777D01*
X76929655Y57909651D01*
X76998816Y58151579D01*
X76200000Y58950395D01*
X75401184Y58151579D01*
X75470345Y57909651D01*
X75572279Y57861575D01*
X75529746Y57843957D01*
X75297990Y57689103D01*
X75100897Y57492010D01*
X74946043Y57260254D01*
X74839377Y57002740D01*
X74785000Y56729365D01*
X52215000Y56729365D01*
X52160623Y57002740D01*
X52053957Y57260254D01*
X51899103Y57492010D01*
X51702010Y57689103D01*
X51656564Y57719469D01*
X51704482Y57724188D01*
X51824180Y57760498D01*
X51934494Y57819463D01*
X52031185Y57898815D01*
X52110537Y57995506D01*
X52169502Y58105820D01*
X52205812Y58225518D01*
X52218072Y58350000D01*
X52218072Y59058697D01*
X74779943Y59058697D01*
X74821140Y58783028D01*
X74915325Y58520692D01*
X74979651Y58400345D01*
X75221579Y58331184D01*
X76020395Y59130000D01*
X76379605Y59130000D01*
X77178421Y58331184D01*
X77420349Y58400345D01*
X77539248Y58652443D01*
X77606681Y58922894D01*
X77620057Y59201303D01*
X77578860Y59476972D01*
X77484675Y59739308D01*
X77420349Y59859655D01*
X77178421Y59928816D01*
X76379605Y59130000D01*
X76020395Y59130000D01*
X75221579Y59928816D01*
X74979651Y59859655D01*
X74860752Y59607557D01*
X74793319Y59337106D01*
X74779943Y59058697D01*
X52218072Y59058697D01*
X52218072Y59910000D01*
X52205812Y60034482D01*
X52183383Y60108421D01*
X75401184Y60108421D01*
X76200000Y59309605D01*
X76998816Y60108421D01*
X76929655Y60350349D01*
X76677557Y60469248D01*
X76407106Y60536681D01*
X76128697Y60550057D01*
X75853028Y60508860D01*
X75590692Y60414675D01*
X75470345Y60350349D01*
X75401184Y60108421D01*
X52183383Y60108421D01*
X52169502Y60154180D01*
X52110537Y60264494D01*
X52031185Y60361185D01*
X51934494Y60440537D01*
X51824180Y60499502D01*
X51704482Y60535812D01*
X51580000Y60548072D01*
X50020000Y60548072D01*
X49895518Y60535812D01*
X49775820Y60499502D01*
X49665506Y60440537D01*
X49568815Y60361185D01*
X49489463Y60264494D01*
X49430498Y60154180D01*
X49394188Y60034482D01*
X49381928Y59910000D01*
X49381928Y58350000D01*
X49394188Y58225518D01*
X49430498Y58105820D01*
X49489463Y57995506D01*
X49568815Y57898815D01*
X49665506Y57819463D01*
X49775820Y57760498D01*
X49895518Y57724188D01*
X49943436Y57719469D01*
X49897990Y57689103D01*
X49700897Y57492010D01*
X49546043Y57260254D01*
X49439377Y57002740D01*
X49385000Y56729365D01*
X49385000Y56450635D01*
X49439377Y56177260D01*
X49546043Y55919746D01*
X49700897Y55687990D01*
X49897990Y55490897D01*
X50129746Y55336043D01*
X50168477Y55320000D01*
X50129746Y55303957D01*
X49897990Y55149103D01*
X49700897Y54952010D01*
X49546043Y54720254D01*
X49439377Y54462740D01*
X49385000Y54189365D01*
X49385000Y53910635D01*
X49439377Y53637260D01*
X49546043Y53379746D01*
X49700897Y53147990D01*
X49897990Y52950897D01*
X50129746Y52796043D01*
X50168477Y52780000D01*
X50129746Y52763957D01*
X49897990Y52609103D01*
X49700897Y52412010D01*
X49546043Y52180254D01*
X49439377Y51922740D01*
X49385000Y51649365D01*
X49385000Y51370635D01*
X49439377Y51097260D01*
X49546043Y50839746D01*
X49700897Y50607990D01*
X49897990Y50410897D01*
X50129746Y50256043D01*
X50168477Y50240000D01*
X50129746Y50223957D01*
X49897990Y50069103D01*
X49700897Y49872010D01*
X49546043Y49640254D01*
X49439377Y49382740D01*
X49385000Y49109365D01*
X49385000Y48830635D01*
X49418320Y48663122D01*
X45769494Y45014295D01*
X45721680Y45129727D01*
X45564637Y45364759D01*
X45364759Y45564637D01*
X45132241Y45720000D01*
X45364759Y45875363D01*
X45564637Y46075241D01*
X45721680Y46310273D01*
X45829853Y46571426D01*
X45885000Y46848665D01*
X45885000Y47131335D01*
X45829853Y47408574D01*
X45721680Y47669727D01*
X45564637Y47904759D01*
X45364759Y48104637D01*
X45129727Y48261680D01*
X44868574Y48369853D01*
X44591335Y48425000D01*
X44308665Y48425000D01*
X44031426Y48369853D01*
X43770273Y48261680D01*
X43535241Y48104637D01*
X43335363Y47904759D01*
X43178320Y47669727D01*
X43070147Y47408574D01*
X43015000Y47131335D01*
X43015000Y46959802D01*
X40210000Y49764801D01*
X40210000Y52931084D01*
X40304988Y52970429D01*
X40600621Y53167965D01*
X40852035Y53419379D01*
X41049571Y53715012D01*
X41185635Y54043501D01*
X41221482Y54223716D01*
X42753710Y52691488D01*
X42714365Y52596499D01*
X42645000Y52247777D01*
X42645000Y51892223D01*
X42714365Y51543501D01*
X42850429Y51215012D01*
X43047965Y50919379D01*
X43299379Y50667965D01*
X43595012Y50470429D01*
X43923501Y50334365D01*
X44272223Y50265000D01*
X44627777Y50265000D01*
X44976499Y50334365D01*
X45304988Y50470429D01*
X45600621Y50667965D01*
X45852035Y50919379D01*
X46049571Y51215012D01*
X46185635Y51543501D01*
X46255000Y51892223D01*
X46255000Y52247777D01*
X46185635Y52596499D01*
X46049571Y52924988D01*
X45852035Y53220621D01*
X45600621Y53472035D01*
X45304988Y53669571D01*
X44976499Y53805635D01*
X44627777Y53875000D01*
X44272223Y53875000D01*
X43923501Y53805635D01*
X43828512Y53766290D01*
X40347025Y57247777D01*
X42645000Y57247777D01*
X42645000Y56892223D01*
X42714365Y56543501D01*
X42850429Y56215012D01*
X43047965Y55919379D01*
X43299379Y55667965D01*
X43595012Y55470429D01*
X43923501Y55334365D01*
X44272223Y55265000D01*
X44627777Y55265000D01*
X44976499Y55334365D01*
X45304988Y55470429D01*
X45600621Y55667965D01*
X45852035Y55919379D01*
X46049571Y56215012D01*
X46185635Y56543501D01*
X46255000Y56892223D01*
X46255000Y57247777D01*
X46185635Y57596499D01*
X46049571Y57924988D01*
X45852035Y58220621D01*
X45600621Y58472035D01*
X45304988Y58669571D01*
X44976499Y58805635D01*
X44627777Y58875000D01*
X44272223Y58875000D01*
X43923501Y58805635D01*
X43595012Y58669571D01*
X43299379Y58472035D01*
X43047965Y58220621D01*
X42850429Y57924988D01*
X42714365Y57596499D01*
X42645000Y57247777D01*
X40347025Y57247777D01*
X39933804Y57660997D01*
X39910001Y57690001D01*
X39794276Y57784974D01*
X39662247Y57855546D01*
X39518986Y57899003D01*
X39407333Y57910000D01*
X39407322Y57910000D01*
X39370000Y57913676D01*
X39332678Y57910000D01*
X35327641Y57910000D01*
X35288125Y57969140D01*
X35109140Y58148125D01*
X34898676Y58288753D01*
X34664821Y58385619D01*
X34416561Y58435000D01*
X34305000Y58435000D01*
X34305000Y58547002D01*
X34146252Y58547002D01*
X34305000Y58705750D01*
X34308072Y59070000D01*
X34295812Y59194482D01*
X34259502Y59314180D01*
X34200537Y59424494D01*
X34121185Y59521185D01*
X34024494Y59600537D01*
X33914180Y59659502D01*
X33794482Y59695812D01*
X33670000Y59708072D01*
X33305750Y59705000D01*
X33147000Y59546250D01*
X33147000Y58547000D01*
X33167000Y58547000D01*
X33167000Y58293000D01*
X33147000Y58293000D01*
X33147000Y58273000D01*
X32893000Y58273000D01*
X32893000Y58293000D01*
X31893750Y58293000D01*
X31735000Y58134250D01*
X31731928Y57770000D01*
X31744188Y57645518D01*
X31780498Y57525820D01*
X31839463Y57415506D01*
X31918815Y57318815D01*
X32015506Y57239463D01*
X32125820Y57180498D01*
X32245518Y57144188D01*
X32370000Y57131928D01*
X32734250Y57135000D01*
X32892998Y57293748D01*
X32892998Y57164912D01*
X32645179Y57115619D01*
X32411324Y57018753D01*
X32200860Y56878125D01*
X32021875Y56699140D01*
X31881247Y56488676D01*
X31784381Y56254821D01*
X31735000Y56006561D01*
X31735000Y55753439D01*
X31784381Y55505179D01*
X31881247Y55271324D01*
X32021875Y55060860D01*
X32200860Y54881875D01*
X32411324Y54741247D01*
X32645179Y54644381D01*
X32689882Y54635489D01*
X32630595Y54623696D01*
X32387641Y54523061D01*
X32168987Y54376962D01*
X31983038Y54191013D01*
X31836939Y53972359D01*
X31736304Y53729405D01*
X31685000Y53471486D01*
X31685000Y53208514D01*
X31736304Y52950595D01*
X31836939Y52707641D01*
X31983038Y52488987D01*
X32168987Y52303038D01*
X32387641Y52156939D01*
X32630595Y52056304D01*
X32888514Y52005000D01*
X33151486Y52005000D01*
X33409405Y52056304D01*
X33652359Y52156939D01*
X33871013Y52303038D01*
X34056962Y52488987D01*
X34203061Y52707641D01*
X34303696Y52950595D01*
X34355000Y53208514D01*
X34355000Y53471486D01*
X34303696Y53729405D01*
X34203061Y53972359D01*
X34056962Y54191013D01*
X33871013Y54376962D01*
X33652359Y54523061D01*
X33409405Y54623696D01*
X33350118Y54635489D01*
X33394821Y54644381D01*
X33628676Y54741247D01*
X33839140Y54881875D01*
X34018125Y55060860D01*
X34158753Y55271324D01*
X34255619Y55505179D01*
X34305000Y55753439D01*
X34305000Y55865000D01*
X34416561Y55865000D01*
X34664821Y55914381D01*
X34898676Y56011247D01*
X35109140Y56151875D01*
X35288125Y56330860D01*
X35327641Y56390000D01*
X39055199Y56390000D01*
X39103717Y56341482D01*
X38923501Y56305635D01*
X38595012Y56169571D01*
X38299379Y55972035D01*
X38047965Y55720621D01*
X37850429Y55424988D01*
X37714365Y55096499D01*
X37645000Y54747777D01*
X37645000Y54392223D01*
X37714365Y54043501D01*
X37850429Y53715012D01*
X38047965Y53419379D01*
X38299379Y53167965D01*
X38595012Y52970429D01*
X38690000Y52931084D01*
X38690001Y49487332D01*
X38686324Y49450000D01*
X38700998Y49301015D01*
X38744454Y49157754D01*
X38815026Y49025724D01*
X38860758Y48970000D01*
X38910000Y48909999D01*
X38938998Y48886201D01*
X41490197Y46335001D01*
X38111923Y46335001D01*
X38209853Y46571426D01*
X38265000Y46848665D01*
X38265000Y47131335D01*
X38209853Y47408574D01*
X38101680Y47669727D01*
X37944637Y47904759D01*
X37744759Y48104637D01*
X37509727Y48261680D01*
X37248574Y48369853D01*
X36971335Y48425000D01*
X36688665Y48425000D01*
X36411426Y48369853D01*
X36150273Y48261680D01*
X35915241Y48104637D01*
X35715363Y47904759D01*
X35558320Y47669727D01*
X35450147Y47408574D01*
X35395000Y47131335D01*
X35395000Y46848665D01*
X35450147Y46571426D01*
X35558320Y46310273D01*
X35715363Y46075241D01*
X35715400Y46075204D01*
X34625198Y44985001D01*
X34134480Y44985001D01*
X34203061Y45087641D01*
X34303696Y45330595D01*
X34355000Y45588514D01*
X34355000Y45851486D01*
X34303696Y46109405D01*
X34203061Y46352359D01*
X34056962Y46571013D01*
X33871013Y46756962D01*
X33652359Y46903061D01*
X33409405Y47003696D01*
X33151486Y47055000D01*
X32888514Y47055000D01*
X32781156Y47033645D01*
X32558803Y47255999D01*
X32535000Y47285002D01*
X32419275Y47379975D01*
X32287246Y47450547D01*
X32143985Y47494004D01*
X32032332Y47505001D01*
X32032321Y47505001D01*
X31994999Y47508677D01*
X31957677Y47505001D01*
X24945321Y47505001D01*
X24907998Y47508677D01*
X24870675Y47505001D01*
X24870666Y47505001D01*
X24759013Y47494004D01*
X24615752Y47450547D01*
X24483723Y47379975D01*
X24367998Y47285002D01*
X24344199Y47256003D01*
X23764001Y46675804D01*
X23734998Y46652002D01*
X23689052Y46596016D01*
X23640025Y46536277D01*
X23569855Y46405000D01*
X23569453Y46404247D01*
X23525996Y46260986D01*
X23514999Y46149333D01*
X23514999Y46149323D01*
X23511323Y46112001D01*
X23514999Y46074679D01*
X23515000Y37677331D01*
X23511323Y37639999D01*
X23515000Y37602666D01*
X23525997Y37491013D01*
X23529558Y37479275D01*
X23569453Y37347753D01*
X23640025Y37215723D01*
X23675900Y37172010D01*
X23734999Y37099998D01*
X23763997Y37076200D01*
X24296199Y36543997D01*
X24319998Y36514998D01*
X24348996Y36491200D01*
X24435722Y36420025D01*
X24540655Y36363937D01*
X24567752Y36349453D01*
X24626599Y36331602D01*
X24667245Y36290956D01*
X24596063Y36219774D01*
X24482795Y36050256D01*
X24404774Y35861898D01*
X24365000Y35661939D01*
X24365000Y35599802D01*
X23763997Y34998798D01*
X23734999Y34975000D01*
X23711201Y34946002D01*
X23711200Y34946001D01*
X23640025Y34859275D01*
X23569453Y34727245D01*
X23525997Y34583984D01*
X23511323Y34434999D01*
X23515000Y34397667D01*
X23514999Y28399801D01*
X23025000Y27909802D01*
X23025000Y28081335D01*
X22969853Y28358574D01*
X22861680Y28619727D01*
X22704637Y28854759D01*
X22504759Y29054637D01*
X22272241Y29210000D01*
X22504759Y29365363D01*
X22704637Y29565241D01*
X22861680Y29800273D01*
X22969853Y30061426D01*
X23025000Y30338665D01*
X23025000Y30621335D01*
X22969853Y30898574D01*
X22861680Y31159727D01*
X22704637Y31394759D01*
X22504759Y31594637D01*
X22272241Y31750000D01*
X22504759Y31905363D01*
X22704637Y32105241D01*
X22861680Y32340273D01*
X22969853Y32601426D01*
X23025000Y32878665D01*
X23025000Y33161335D01*
X22969853Y33438574D01*
X22861680Y33699727D01*
X22704637Y33934759D01*
X22504759Y34134637D01*
X22269727Y34291680D01*
X22008574Y34399853D01*
X21731335Y34455000D01*
X21448665Y34455000D01*
X21171426Y34399853D01*
X20910273Y34291680D01*
X20675241Y34134637D01*
X20475363Y33934759D01*
X20318320Y33699727D01*
X20210147Y33438574D01*
X20155000Y33161335D01*
X15855001Y33161335D01*
X15855001Y41845202D01*
X20319022Y46309222D01*
X20475363Y46075241D01*
X20675241Y45875363D01*
X20907759Y45720000D01*
X20675241Y45564637D01*
X20475363Y45364759D01*
X20318320Y45129727D01*
X20210147Y44868574D01*
X20155000Y44591335D01*
X20155000Y44308665D01*
X20210147Y44031426D01*
X20318320Y43770273D01*
X20475363Y43535241D01*
X20675241Y43335363D01*
X20907759Y43180000D01*
X20675241Y43024637D01*
X20475363Y42824759D01*
X20318320Y42589727D01*
X20210147Y42328574D01*
X20155000Y42051335D01*
X20155000Y41768665D01*
X20210147Y41491426D01*
X20318320Y41230273D01*
X20475363Y40995241D01*
X20673961Y40796643D01*
X20665518Y40795812D01*
X20545820Y40759502D01*
X20435506Y40700537D01*
X20338815Y40621185D01*
X20259463Y40524494D01*
X20200498Y40414180D01*
X20164188Y40294482D01*
X20151928Y40170000D01*
X20151928Y38570000D01*
X20164188Y38445518D01*
X20200498Y38325820D01*
X20259463Y38215506D01*
X20338815Y38118815D01*
X20435506Y38039463D01*
X20545820Y37980498D01*
X20665518Y37944188D01*
X20790000Y37931928D01*
X22390000Y37931928D01*
X22514482Y37944188D01*
X22634180Y37980498D01*
X22744494Y38039463D01*
X22841185Y38118815D01*
X22920537Y38215506D01*
X22979502Y38325820D01*
X23015812Y38445518D01*
X23028072Y38570000D01*
X23028072Y40170000D01*
X23015812Y40294482D01*
X22979502Y40414180D01*
X22920537Y40524494D01*
X22841185Y40621185D01*
X22744494Y40700537D01*
X22634180Y40759502D01*
X22514482Y40795812D01*
X22506039Y40796643D01*
X22704637Y40995241D01*
X22861680Y41230273D01*
X22969853Y41491426D01*
X23025000Y41768665D01*
X23025000Y42051335D01*
X22988688Y42233886D01*
X23226005Y42471203D01*
X23255002Y42495000D01*
X23349975Y42610725D01*
X23420547Y42742754D01*
X23464004Y42886015D01*
X23475001Y42997668D01*
X23475001Y42997676D01*
X23478677Y43035001D01*
X23475001Y43072326D01*
X23475001Y45827677D01*
X23478677Y45865000D01*
X23475001Y45902323D01*
X23475001Y45902332D01*
X23464004Y46013985D01*
X23420547Y46157246D01*
X23349975Y46289275D01*
X23255002Y46405000D01*
X23225998Y46428803D01*
X22988688Y46666113D01*
X23025000Y46848665D01*
X23025000Y47131335D01*
X22969853Y47408574D01*
X22861680Y47669727D01*
X22704637Y47904759D01*
X22504759Y48104637D01*
X22270778Y48260978D01*
X23291003Y49281203D01*
X23320001Y49305001D01*
X23414974Y49420726D01*
X23485546Y49552755D01*
X23529003Y49696016D01*
X23540000Y49807669D01*
X23540000Y49807679D01*
X23543676Y49845002D01*
X23540000Y49882325D01*
X23540000Y53471486D01*
X24065000Y53471486D01*
X24065000Y53208514D01*
X24116304Y52950595D01*
X24216939Y52707641D01*
X24363038Y52488987D01*
X24548987Y52303038D01*
X24767641Y52156939D01*
X25010595Y52056304D01*
X25268514Y52005000D01*
X25531486Y52005000D01*
X25789405Y52056304D01*
X26032359Y52156939D01*
X26251013Y52303038D01*
X26436962Y52488987D01*
X26583061Y52707641D01*
X26683696Y52950595D01*
X26735000Y53208514D01*
X26735000Y53471486D01*
X26683696Y53729405D01*
X26583061Y53972359D01*
X26436962Y54191013D01*
X26251013Y54376962D01*
X26032359Y54523061D01*
X25789405Y54623696D01*
X25531486Y54675000D01*
X25268514Y54675000D01*
X25010595Y54623696D01*
X24767641Y54523061D01*
X24548987Y54376962D01*
X24363038Y54191013D01*
X24216939Y53972359D01*
X24116304Y53729405D01*
X24065000Y53471486D01*
X23540000Y53471486D01*
X23540000Y54733511D01*
X23755179Y54644381D01*
X24003439Y54595000D01*
X24256561Y54595000D01*
X24504821Y54644381D01*
X24738676Y54741247D01*
X24949140Y54881875D01*
X25128125Y55060860D01*
X25268753Y55271324D01*
X25365619Y55505179D01*
X25415000Y55753439D01*
X25415000Y55865000D01*
X25526561Y55865000D01*
X25774821Y55914381D01*
X26008676Y56011247D01*
X26219140Y56151875D01*
X26398125Y56330860D01*
X26538753Y56541324D01*
X26635619Y56775179D01*
X26685000Y57023439D01*
X26685000Y57276561D01*
X26635619Y57524821D01*
X26538753Y57758676D01*
X26398125Y57969140D01*
X26219140Y58148125D01*
X26008676Y58288753D01*
X25774821Y58385619D01*
X25526561Y58435000D01*
X25415000Y58435000D01*
X25415000Y58547002D01*
X25256252Y58547002D01*
X25415000Y58705750D01*
X25418072Y59070000D01*
X31731928Y59070000D01*
X31735000Y58705750D01*
X31893750Y58547000D01*
X32893000Y58547000D01*
X32893000Y59546250D01*
X32734250Y59705000D01*
X32370000Y59708072D01*
X32245518Y59695812D01*
X32125820Y59659502D01*
X32015506Y59600537D01*
X31918815Y59521185D01*
X31839463Y59424494D01*
X31780498Y59314180D01*
X31744188Y59194482D01*
X31731928Y59070000D01*
X25418072Y59070000D01*
X25405812Y59194482D01*
X25369502Y59314180D01*
X25310537Y59424494D01*
X25231185Y59521185D01*
X25134494Y59600537D01*
X25024180Y59659502D01*
X24904482Y59695812D01*
X24780000Y59708072D01*
X24415750Y59705000D01*
X24257000Y59546250D01*
X24257000Y58547000D01*
X24277000Y58547000D01*
X24277000Y58293000D01*
X24257000Y58293000D01*
X24257000Y58273000D01*
X24003000Y58273000D01*
X24003000Y58293000D01*
X23983000Y58293000D01*
X23983000Y58547000D01*
X24003000Y58547000D01*
X24003000Y59546250D01*
X23844250Y59705000D01*
X23540000Y59707566D01*
X23540000Y64687405D01*
X23609014Y64724294D01*
X23835134Y64909866D01*
X24020706Y65135987D01*
X24030000Y65153374D01*
X24039294Y65135986D01*
X24224866Y64909866D01*
X24450987Y64724294D01*
X24708967Y64586401D01*
X24988890Y64501487D01*
X25280000Y64472815D01*
X25571111Y64501487D01*
X25851034Y64586401D01*
X26109014Y64724294D01*
X26335134Y64909866D01*
X26520706Y65135987D01*
X26658599Y65393967D01*
X26743513Y65673890D01*
X26765000Y65892051D01*
X26765000Y66187950D01*
X26743513Y66406111D01*
X26658599Y66686034D01*
X26643117Y66715000D01*
X30261928Y66715000D01*
X30261928Y65365000D01*
X30278992Y65191746D01*
X30329528Y65025150D01*
X30411595Y64871614D01*
X30522038Y64737038D01*
X30656614Y64626595D01*
X30810150Y64544528D01*
X30976746Y64493992D01*
X31150000Y64476928D01*
X32350000Y64476928D01*
X32523254Y64493992D01*
X32689850Y64544528D01*
X32843386Y64626595D01*
X32977962Y64737038D01*
X33088405Y64871614D01*
X33142777Y64973337D01*
X33194866Y64909866D01*
X33420987Y64724294D01*
X33678967Y64586401D01*
X33958890Y64501487D01*
X34250000Y64472815D01*
X34541111Y64501487D01*
X34821034Y64586401D01*
X35079014Y64724294D01*
X35305134Y64909866D01*
X35490706Y65135987D01*
X35500000Y65153374D01*
X35509294Y65135986D01*
X35694866Y64909866D01*
X35920987Y64724294D01*
X36178967Y64586401D01*
X36458890Y64501487D01*
X36750000Y64472815D01*
X37041111Y64501487D01*
X37321034Y64586401D01*
X37579014Y64724294D01*
X37805134Y64909866D01*
X37990706Y65135987D01*
X38000000Y65153374D01*
X38009294Y65135986D01*
X38194866Y64909866D01*
X38420987Y64724294D01*
X38678967Y64586401D01*
X38958890Y64501487D01*
X39250000Y64472815D01*
X39541111Y64501487D01*
X39821034Y64586401D01*
X40079014Y64724294D01*
X40305134Y64909866D01*
X40490706Y65135987D01*
X40628599Y65393967D01*
X40713513Y65673890D01*
X40735000Y65892051D01*
X40735000Y66187950D01*
X40713513Y66406111D01*
X40628599Y66686034D01*
X40490706Y66944014D01*
X40305134Y67170134D01*
X40079013Y67355706D01*
X39821033Y67493599D01*
X39541110Y67578513D01*
X39250000Y67607185D01*
X38958889Y67578513D01*
X38678966Y67493599D01*
X38420986Y67355706D01*
X38194866Y67170134D01*
X38009294Y66944013D01*
X38000000Y66926626D01*
X37990706Y66944014D01*
X37805134Y67170134D01*
X37579013Y67355706D01*
X37321033Y67493599D01*
X37041110Y67578513D01*
X36750000Y67607185D01*
X36458889Y67578513D01*
X36178966Y67493599D01*
X35920986Y67355706D01*
X35694866Y67170134D01*
X35509294Y66944013D01*
X35500000Y66926626D01*
X35490706Y66944014D01*
X35305134Y67170134D01*
X35079013Y67355706D01*
X34821033Y67493599D01*
X34541110Y67578513D01*
X34250000Y67607185D01*
X33958889Y67578513D01*
X33678966Y67493599D01*
X33420986Y67355706D01*
X33194866Y67170134D01*
X33142777Y67106663D01*
X33088405Y67208386D01*
X32977962Y67342962D01*
X32843386Y67453405D01*
X32689850Y67535472D01*
X32523254Y67586008D01*
X32350000Y67603072D01*
X31150000Y67603072D01*
X30976746Y67586008D01*
X30810150Y67535472D01*
X30656614Y67453405D01*
X30522038Y67342962D01*
X30411595Y67208386D01*
X30329528Y67054850D01*
X30278992Y66888254D01*
X30261928Y66715000D01*
X26643117Y66715000D01*
X26520706Y66944014D01*
X26335134Y67170134D01*
X26109013Y67355706D01*
X25851033Y67493599D01*
X25571110Y67578513D01*
X25280000Y67607185D01*
X24988889Y67578513D01*
X24708966Y67493599D01*
X24450986Y67355706D01*
X24224866Y67170134D01*
X24039294Y66944013D01*
X24030000Y66926626D01*
X24020706Y66944014D01*
X23835134Y67170134D01*
X23609013Y67355706D01*
X23351033Y67493599D01*
X23071110Y67578513D01*
X22780000Y67607185D01*
X22488889Y67578513D01*
X22208966Y67493599D01*
X21950986Y67355706D01*
X21724866Y67170134D01*
X21539294Y66944013D01*
X21530000Y66926626D01*
X21520706Y66944014D01*
X21335134Y67170134D01*
X21109013Y67355706D01*
X20851033Y67493599D01*
X20571110Y67578513D01*
X20280000Y67607185D01*
X19988889Y67578513D01*
X19708966Y67493599D01*
X19450986Y67355706D01*
X19224866Y67170134D01*
X19172777Y67106663D01*
X19118405Y67208386D01*
X19007962Y67342962D01*
X18873386Y67453405D01*
X18719850Y67535472D01*
X18553254Y67586008D01*
X18380000Y67603072D01*
X17180000Y67603072D01*
X17006746Y67586008D01*
X16840150Y67535472D01*
X16686614Y67453405D01*
X16552038Y67342962D01*
X16441595Y67208386D01*
X16359528Y67054850D01*
X16308992Y66888254D01*
X16291928Y66715000D01*
X16291928Y65365000D01*
X16308992Y65191746D01*
X16359528Y65025150D01*
X16441595Y64871614D01*
X16552038Y64737038D01*
X16686614Y64626595D01*
X16840150Y64544528D01*
X17006746Y64493992D01*
X17180000Y64476928D01*
X18380000Y64476928D01*
X18553254Y64493992D01*
X18719850Y64544528D01*
X18873386Y64626595D01*
X19007962Y64737038D01*
X19118405Y64871614D01*
X19172777Y64973337D01*
X19224866Y64909866D01*
X19450987Y64724294D01*
X19520000Y64687406D01*
X19520001Y60086873D01*
X19227777Y60145000D01*
X18872223Y60145000D01*
X18523501Y60075635D01*
X18195012Y59939571D01*
X17899379Y59742035D01*
X17647965Y59490621D01*
X17450429Y59194988D01*
X17314365Y58866499D01*
X17245000Y58517777D01*
X17245000Y58162223D01*
X17314365Y57813501D01*
X17450429Y57485012D01*
X17647965Y57189379D01*
X17899379Y56937965D01*
X18195012Y56740429D01*
X18523501Y56604365D01*
X18872223Y56535000D01*
X19227777Y56535000D01*
X19576499Y56604365D01*
X19785001Y56690729D01*
X19785002Y54989271D01*
X19576499Y55075635D01*
X19227777Y55145000D01*
X18872223Y55145000D01*
X18523501Y55075635D01*
X18195012Y54939571D01*
X17899379Y54742035D01*
X17647965Y54490621D01*
X17450429Y54194988D01*
X17314365Y53866499D01*
X17245000Y53517777D01*
X17245000Y53162223D01*
X17314365Y52813501D01*
X17450429Y52485012D01*
X17647965Y52189379D01*
X17899379Y51937965D01*
X18195012Y51740429D01*
X18523501Y51604365D01*
X18621450Y51584882D01*
X15012982Y47976414D01*
X14884759Y48104637D01*
X14649727Y48261680D01*
X14388574Y48369853D01*
X14111335Y48425000D01*
X13828665Y48425000D01*
X13551426Y48369853D01*
X13290273Y48261680D01*
X13055241Y48104637D01*
X12855363Y47904759D01*
X12698320Y47669727D01*
X12590147Y47408574D01*
X12535000Y47131335D01*
X12535000Y46848665D01*
X12590147Y46571426D01*
X12698320Y46310273D01*
X12855363Y46075241D01*
X13055241Y45875363D01*
X13287759Y45720000D01*
X13055241Y45564637D01*
X12855363Y45364759D01*
X12698320Y45129727D01*
X12590147Y44868574D01*
X12535000Y44591335D01*
X12535000Y44308665D01*
X12590147Y44031426D01*
X12698320Y43770273D01*
X12855363Y43535241D01*
X13055241Y43335363D01*
X13287759Y43180000D01*
X13055241Y43024637D01*
X12855363Y42824759D01*
X12698320Y42589727D01*
X12590147Y42328574D01*
X12535000Y42051335D01*
X12535000Y41768665D01*
X12590147Y41491426D01*
X12698320Y41230273D01*
X12855363Y40995241D01*
X13055241Y40795363D01*
X13287759Y40640000D01*
X13055241Y40484637D01*
X12855363Y40284759D01*
X12698320Y40049727D01*
X12590147Y39788574D01*
X12535000Y39511335D01*
X12535000Y39228665D01*
X12590147Y38951426D01*
X12698320Y38690273D01*
X12855363Y38455241D01*
X13055241Y38255363D01*
X13290273Y38098320D01*
X13551426Y37990147D01*
X13828665Y37935000D01*
X14111335Y37935000D01*
X14335001Y37979491D01*
X14335002Y34458072D01*
X13170000Y34458072D01*
X13045518Y34445812D01*
X12925820Y34409502D01*
X12815506Y34350537D01*
X12718815Y34271185D01*
X12639463Y34174494D01*
X12580498Y34064180D01*
X12544188Y33944482D01*
X12531928Y33820000D01*
X12531928Y32220000D01*
X12544188Y32095518D01*
X12580498Y31975820D01*
X12639463Y31865506D01*
X12718815Y31768815D01*
X12815506Y31689463D01*
X12925820Y31630498D01*
X13045518Y31594188D01*
X13053961Y31593357D01*
X12855363Y31394759D01*
X12698320Y31159727D01*
X12590147Y30898574D01*
X12535000Y30621335D01*
X12535000Y30338665D01*
X12571312Y30156114D01*
X12189003Y29773804D01*
X12159999Y29750001D01*
X12118944Y29699975D01*
X12065026Y29634276D01*
X12049379Y29605002D01*
X11994454Y29502246D01*
X11950997Y29358985D01*
X11940000Y29247332D01*
X11940000Y29247322D01*
X11936324Y29210000D01*
X11557000Y29210000D01*
X11557000Y56017777D01*
X12245000Y56017777D01*
X12245000Y55662223D01*
X12314365Y55313501D01*
X12450429Y54985012D01*
X12647965Y54689379D01*
X12899379Y54437965D01*
X13195012Y54240429D01*
X13523501Y54104365D01*
X13872223Y54035000D01*
X14227777Y54035000D01*
X14576499Y54104365D01*
X14904988Y54240429D01*
X15200621Y54437965D01*
X15452035Y54689379D01*
X15649571Y54985012D01*
X15785635Y55313501D01*
X15855000Y55662223D01*
X15855000Y56017777D01*
X15785635Y56366499D01*
X15649571Y56694988D01*
X15452035Y56990621D01*
X15200621Y57242035D01*
X14904988Y57439571D01*
X14576499Y57575635D01*
X14227777Y57645000D01*
X13872223Y57645000D01*
X13523501Y57575635D01*
X13195012Y57439571D01*
X12899379Y57242035D01*
X12647965Y56990621D01*
X12450429Y56694988D01*
X12314365Y56366499D01*
X12245000Y56017777D01*
X11557000Y56017777D01*
X11557000Y74335000D01*
X16291928Y74335000D01*
X16291928Y72985000D01*
X16308992Y72811746D01*
X16359528Y72645150D01*
X16441595Y72491614D01*
X16552038Y72357038D01*
X16686614Y72246595D01*
X16840150Y72164528D01*
X17006746Y72113992D01*
X17180000Y72096928D01*
X18380000Y72096928D01*
X18553254Y72113992D01*
X18719850Y72164528D01*
X18873386Y72246595D01*
X19007962Y72357038D01*
X19118405Y72491614D01*
X19172777Y72593337D01*
X19224866Y72529866D01*
X19450987Y72344294D01*
X19708967Y72206401D01*
X19988890Y72121487D01*
X20280000Y72092815D01*
X20571111Y72121487D01*
X20851034Y72206401D01*
X21109014Y72344294D01*
X21335134Y72529866D01*
X21520706Y72755987D01*
X21530000Y72773374D01*
X21539294Y72755986D01*
X21724866Y72529866D01*
X21950987Y72344294D01*
X22208967Y72206401D01*
X22488890Y72121487D01*
X22780000Y72092815D01*
X23071111Y72121487D01*
X23351034Y72206401D01*
X23609014Y72344294D01*
X23835134Y72529866D01*
X24020706Y72755987D01*
X24030000Y72773374D01*
X24039294Y72755986D01*
X24224866Y72529866D01*
X24450987Y72344294D01*
X24708967Y72206401D01*
X24988890Y72121487D01*
X25280000Y72092815D01*
X25571111Y72121487D01*
X25851034Y72206401D01*
X26109014Y72344294D01*
X26335134Y72529866D01*
X26520706Y72755987D01*
X26658599Y73013967D01*
X26743513Y73293890D01*
X26765000Y73512051D01*
X26765000Y73807950D01*
X26743513Y74026111D01*
X26658599Y74306034D01*
X26643117Y74335000D01*
X30261928Y74335000D01*
X30261928Y72985000D01*
X30278992Y72811746D01*
X30329528Y72645150D01*
X30411595Y72491614D01*
X30522038Y72357038D01*
X30656614Y72246595D01*
X30810150Y72164528D01*
X30976746Y72113992D01*
X31150000Y72096928D01*
X32350000Y72096928D01*
X32523254Y72113992D01*
X32689850Y72164528D01*
X32843386Y72246595D01*
X32977962Y72357038D01*
X33088405Y72491614D01*
X33142777Y72593337D01*
X33194866Y72529866D01*
X33420987Y72344294D01*
X33678967Y72206401D01*
X33958890Y72121487D01*
X34250000Y72092815D01*
X34541111Y72121487D01*
X34821034Y72206401D01*
X35079014Y72344294D01*
X35305134Y72529866D01*
X35490706Y72755987D01*
X35500000Y72773374D01*
X35509294Y72755986D01*
X35694866Y72529866D01*
X35920987Y72344294D01*
X36178967Y72206401D01*
X36458890Y72121487D01*
X36750000Y72092815D01*
X37041111Y72121487D01*
X37321034Y72206401D01*
X37579014Y72344294D01*
X37805134Y72529866D01*
X37990706Y72755987D01*
X38000000Y72773374D01*
X38009294Y72755986D01*
X38194866Y72529866D01*
X38420987Y72344294D01*
X38678967Y72206401D01*
X38958890Y72121487D01*
X39250000Y72092815D01*
X39541111Y72121487D01*
X39821034Y72206401D01*
X40079014Y72344294D01*
X40305134Y72529866D01*
X40490706Y72755987D01*
X40628599Y73013967D01*
X40713513Y73293890D01*
X40735000Y73512051D01*
X40735000Y73807950D01*
X40713513Y74026111D01*
X40628599Y74306034D01*
X40490706Y74564014D01*
X40305134Y74790134D01*
X40079013Y74975706D01*
X39821033Y75113599D01*
X39541110Y75198513D01*
X39250000Y75227185D01*
X38958889Y75198513D01*
X38678966Y75113599D01*
X38420986Y74975706D01*
X38194866Y74790134D01*
X38009294Y74564013D01*
X38000000Y74546626D01*
X37990706Y74564014D01*
X37805134Y74790134D01*
X37579013Y74975706D01*
X37321033Y75113599D01*
X37041110Y75198513D01*
X36750000Y75227185D01*
X36458889Y75198513D01*
X36178966Y75113599D01*
X35920986Y74975706D01*
X35694866Y74790134D01*
X35509294Y74564013D01*
X35500000Y74546626D01*
X35490706Y74564014D01*
X35305134Y74790134D01*
X35079013Y74975706D01*
X34821033Y75113599D01*
X34541110Y75198513D01*
X34250000Y75227185D01*
X33958889Y75198513D01*
X33678966Y75113599D01*
X33420986Y74975706D01*
X33194866Y74790134D01*
X33142777Y74726663D01*
X33088405Y74828386D01*
X32977962Y74962962D01*
X32843386Y75073405D01*
X32689850Y75155472D01*
X32523254Y75206008D01*
X32350000Y75223072D01*
X31150000Y75223072D01*
X30976746Y75206008D01*
X30810150Y75155472D01*
X30656614Y75073405D01*
X30522038Y74962962D01*
X30411595Y74828386D01*
X30329528Y74674850D01*
X30278992Y74508254D01*
X30261928Y74335000D01*
X26643117Y74335000D01*
X26520706Y74564014D01*
X26335134Y74790134D01*
X26109013Y74975706D01*
X25851033Y75113599D01*
X25571110Y75198513D01*
X25280000Y75227185D01*
X24988889Y75198513D01*
X24708966Y75113599D01*
X24450986Y74975706D01*
X24224866Y74790134D01*
X24039294Y74564013D01*
X24030000Y74546626D01*
X24020706Y74564014D01*
X23835134Y74790134D01*
X23609013Y74975706D01*
X23351033Y75113599D01*
X23071110Y75198513D01*
X22780000Y75227185D01*
X22488889Y75198513D01*
X22208966Y75113599D01*
X21950986Y74975706D01*
X21724866Y74790134D01*
X21539294Y74564013D01*
X21530000Y74546626D01*
X21520706Y74564014D01*
X21335134Y74790134D01*
X21109013Y74975706D01*
X20851033Y75113599D01*
X20571110Y75198513D01*
X20280000Y75227185D01*
X19988889Y75198513D01*
X19708966Y75113599D01*
X19450986Y74975706D01*
X19224866Y74790134D01*
X19172777Y74726663D01*
X19118405Y74828386D01*
X19007962Y74962962D01*
X18873386Y75073405D01*
X18719850Y75155472D01*
X18553254Y75206008D01*
X18380000Y75223072D01*
X17180000Y75223072D01*
X17006746Y75206008D01*
X16840150Y75155472D01*
X16686614Y75073405D01*
X16552038Y74962962D01*
X16441595Y74828386D01*
X16359528Y74674850D01*
X16308992Y74508254D01*
X16291928Y74335000D01*
X11557000Y74335000D01*
X11557000Y77343000D01*
X69723000Y77343000D01*
X69723000Y69850000D01*
G37*
X69723000Y69850000D02*
X69725440Y69825224D01*
X69732667Y69801399D01*
X69744403Y69779443D01*
X69760197Y69760197D01*
X69779443Y69744403D01*
X69801399Y69732667D01*
X69825224Y69725440D01*
X69850000Y69723000D01*
X78613000Y69723000D01*
X78613000Y10287000D01*
X69850000Y10287000D01*
X69825224Y10284560D01*
X69801399Y10277333D01*
X69779443Y10265597D01*
X69760197Y10249803D01*
X69744403Y10230557D01*
X69732667Y10208601D01*
X69725440Y10184776D01*
X69723000Y10160000D01*
X69723000Y1397000D01*
X11557000Y1397000D01*
X11557000Y4155000D01*
X22681928Y4155000D01*
X22694188Y4030518D01*
X22730498Y3910820D01*
X22789463Y3800506D01*
X22868815Y3703815D01*
X22965506Y3624463D01*
X23075820Y3565498D01*
X23195518Y3529188D01*
X23320000Y3516928D01*
X23884250Y3520000D01*
X24043000Y3678750D01*
X24043000Y4953000D01*
X22843750Y4953000D01*
X22685000Y4794250D01*
X22681928Y4155000D01*
X11557000Y4155000D01*
X11557000Y6005000D01*
X22681928Y6005000D01*
X22685000Y5365750D01*
X22843750Y5207000D01*
X24043000Y5207000D01*
X24043000Y6481250D01*
X24297000Y6481250D01*
X24297000Y5207000D01*
X24317000Y5207000D01*
X24317000Y4953000D01*
X24297000Y4953000D01*
X24297000Y3678750D01*
X24455750Y3520000D01*
X25020000Y3516928D01*
X25144482Y3529188D01*
X25264180Y3565498D01*
X25374494Y3624463D01*
X25471185Y3703815D01*
X25550537Y3800506D01*
X25609502Y3910820D01*
X25620055Y3945608D01*
X25840987Y3764294D01*
X26098967Y3626401D01*
X26378890Y3541487D01*
X26670000Y3512815D01*
X26961111Y3541487D01*
X27241034Y3626401D01*
X27499014Y3764294D01*
X27554706Y3810000D01*
X46617319Y3810000D01*
X46647970Y3498796D01*
X46738745Y3199551D01*
X46886155Y2923765D01*
X47084537Y2682037D01*
X47326265Y2483655D01*
X47602051Y2336245D01*
X47901296Y2245470D01*
X48134514Y2222500D01*
X48385486Y2222500D01*
X48618704Y2245470D01*
X48917949Y2336245D01*
X49193735Y2483655D01*
X49435463Y2682037D01*
X49633845Y2923765D01*
X49781255Y3199551D01*
X49872030Y3498796D01*
X49902681Y3810000D01*
X49872030Y4121204D01*
X49781255Y4420449D01*
X49633845Y4696235D01*
X49435463Y4937963D01*
X49256101Y5085163D01*
X49441315Y5240563D01*
X49635969Y5483077D01*
X49779571Y5758906D01*
X49850563Y5977020D01*
X49730594Y6223000D01*
X48387000Y6223000D01*
X48387000Y6203000D01*
X48133000Y6203000D01*
X48133000Y6223000D01*
X46789406Y6223000D01*
X46669437Y5977020D01*
X46740429Y5758906D01*
X46884031Y5483077D01*
X47078685Y5240563D01*
X47263899Y5085163D01*
X47084537Y4937963D01*
X46886155Y4696235D01*
X46738745Y4420449D01*
X46647970Y4121204D01*
X46617319Y3810000D01*
X27554706Y3810000D01*
X27725134Y3949866D01*
X27910706Y4175987D01*
X28048599Y4433967D01*
X28133513Y4713890D01*
X28155000Y4932051D01*
X28155000Y5227950D01*
X28133513Y5446111D01*
X28048599Y5726034D01*
X27910706Y5984014D01*
X27725134Y6210134D01*
X27499013Y6395706D01*
X27241033Y6533599D01*
X26961110Y6618513D01*
X26670000Y6647185D01*
X26378889Y6618513D01*
X26098966Y6533599D01*
X25840986Y6395706D01*
X25620055Y6214392D01*
X25609502Y6249180D01*
X25550537Y6359494D01*
X25471185Y6456185D01*
X25374494Y6535537D01*
X25264180Y6594502D01*
X25144482Y6630812D01*
X25020000Y6643072D01*
X24455750Y6640000D01*
X24297000Y6481250D01*
X24043000Y6481250D01*
X23884250Y6640000D01*
X23320000Y6643072D01*
X23195518Y6630812D01*
X23075820Y6594502D01*
X22965506Y6535537D01*
X22868815Y6456185D01*
X22789463Y6359494D01*
X22730498Y6249180D01*
X22694188Y6129482D01*
X22681928Y6005000D01*
X11557000Y6005000D01*
X11557000Y9842500D01*
X46621928Y9842500D01*
X46621928Y7937500D01*
X46634188Y7813018D01*
X46670498Y7693320D01*
X46729463Y7583006D01*
X46808815Y7486315D01*
X46905506Y7406963D01*
X46997219Y7357941D01*
X46884031Y7216923D01*
X46740429Y6941094D01*
X46669437Y6722980D01*
X46789406Y6477000D01*
X48133000Y6477000D01*
X48133000Y6497000D01*
X48387000Y6497000D01*
X48387000Y6477000D01*
X49730594Y6477000D01*
X49783219Y6584902D01*
X61675000Y6584902D01*
X61675000Y6115098D01*
X61766654Y5654321D01*
X61946440Y5220279D01*
X62207450Y4829651D01*
X62539651Y4497450D01*
X62930279Y4236440D01*
X63364321Y4056654D01*
X63825098Y3965000D01*
X64294902Y3965000D01*
X64755679Y4056654D01*
X65189721Y4236440D01*
X65580349Y4497450D01*
X65912550Y4829651D01*
X66173560Y5220279D01*
X66353346Y5654321D01*
X66445000Y6115098D01*
X66445000Y6584902D01*
X66353346Y7045679D01*
X66173560Y7479721D01*
X65912550Y7870349D01*
X65580349Y8202550D01*
X65189721Y8463560D01*
X64755679Y8643346D01*
X64294902Y8735000D01*
X63825098Y8735000D01*
X63364321Y8643346D01*
X62930279Y8463560D01*
X62539651Y8202550D01*
X62207450Y7870349D01*
X61946440Y7479721D01*
X61766654Y7045679D01*
X61675000Y6584902D01*
X49783219Y6584902D01*
X49850563Y6722980D01*
X49779571Y6941094D01*
X49635969Y7216923D01*
X49522781Y7357941D01*
X49614494Y7406963D01*
X49711185Y7486315D01*
X49790537Y7583006D01*
X49849502Y7693320D01*
X49885812Y7813018D01*
X49898072Y7937500D01*
X49898072Y9842500D01*
X49885812Y9966982D01*
X49849502Y10086680D01*
X49790537Y10196994D01*
X49711185Y10293685D01*
X49614494Y10373037D01*
X49504180Y10432002D01*
X49384482Y10468312D01*
X49260000Y10480572D01*
X47260000Y10480572D01*
X47135518Y10468312D01*
X47015820Y10432002D01*
X46905506Y10373037D01*
X46808815Y10293685D01*
X46729463Y10196994D01*
X46670498Y10086680D01*
X46634188Y9966982D01*
X46621928Y9842500D01*
X11557000Y9842500D01*
X11557000Y16647777D01*
X12245000Y16647777D01*
X12245000Y16292223D01*
X12314365Y15943501D01*
X12450429Y15615012D01*
X12647965Y15319379D01*
X12899379Y15067965D01*
X13195012Y14870429D01*
X13523501Y14734365D01*
X13872223Y14665000D01*
X14227777Y14665000D01*
X14576499Y14734365D01*
X14904988Y14870429D01*
X15200621Y15067965D01*
X15452035Y15319379D01*
X15649571Y15615012D01*
X15785635Y15943501D01*
X15855000Y16292223D01*
X15855000Y16647777D01*
X15785635Y16996499D01*
X15649571Y17324988D01*
X15452035Y17620621D01*
X15200621Y17872035D01*
X14904988Y18069571D01*
X14576499Y18205635D01*
X14227777Y18275000D01*
X13872223Y18275000D01*
X13523501Y18205635D01*
X13195012Y18069571D01*
X12899379Y17872035D01*
X12647965Y17620621D01*
X12450429Y17324988D01*
X12314365Y16996499D01*
X12245000Y16647777D01*
X11557000Y16647777D01*
X11557000Y29210000D01*
X11936324Y29210000D01*
X11940000Y29172677D01*
X11940001Y26707332D01*
X11936324Y26670000D01*
X11940001Y26632667D01*
X11950998Y26521014D01*
X11955085Y26507540D01*
X11994454Y26377754D01*
X12065026Y26245724D01*
X12117896Y26181303D01*
X12160000Y26129999D01*
X12188998Y26106201D01*
X12571312Y25723887D01*
X12535000Y25541335D01*
X12535000Y25258665D01*
X12590147Y24981426D01*
X12698320Y24720273D01*
X12855363Y24485241D01*
X13055241Y24285363D01*
X13290273Y24128320D01*
X13551426Y24020147D01*
X13828665Y23965000D01*
X14111335Y23965000D01*
X14293887Y24001312D01*
X16794999Y21500199D01*
X16795000Y15502333D01*
X16791323Y15465001D01*
X16795000Y15427668D01*
X16800480Y15372035D01*
X16805997Y15316016D01*
X16849453Y15172755D01*
X16920025Y15040725D01*
X16990994Y14954250D01*
X17014999Y14925000D01*
X17043997Y14901202D01*
X17353711Y14591488D01*
X17314365Y14496499D01*
X17245000Y14147777D01*
X17245000Y13792223D01*
X17314365Y13443501D01*
X17450429Y13115012D01*
X17647965Y12819379D01*
X17899379Y12567965D01*
X18195012Y12370429D01*
X18523501Y12234365D01*
X18872223Y12165000D01*
X19227777Y12165000D01*
X19576499Y12234365D01*
X19904988Y12370429D01*
X20200621Y12567965D01*
X20452035Y12819379D01*
X20649571Y13115012D01*
X20690987Y13214999D01*
X22735373Y13214999D01*
X22679380Y13079820D01*
X22629999Y12831560D01*
X22629999Y12578438D01*
X22679380Y12330178D01*
X22776246Y12096323D01*
X22916874Y11885859D01*
X23095859Y11706874D01*
X23306323Y11566246D01*
X23540178Y11469380D01*
X23788438Y11419999D01*
X24041560Y11419999D01*
X24289820Y11469380D01*
X24523675Y11566246D01*
X24734139Y11706874D01*
X24913124Y11885859D01*
X24952640Y11944999D01*
X25320679Y11944999D01*
X25358001Y11941323D01*
X25395323Y11944999D01*
X25395334Y11944999D01*
X25506987Y11955996D01*
X25650248Y11999453D01*
X25782277Y12070025D01*
X25898002Y12164998D01*
X25921804Y12194001D01*
X26723799Y12995995D01*
X26806001Y13078197D01*
X26834999Y13101995D01*
X26929972Y13217720D01*
X27000544Y13349749D01*
X27044001Y13493010D01*
X27054998Y13604663D01*
X27054998Y13604673D01*
X27058674Y13641996D01*
X27054998Y13679319D01*
X27054998Y17042679D01*
X27058674Y17080002D01*
X27054998Y17117325D01*
X27054998Y17117334D01*
X27044001Y17228987D01*
X27000544Y17372248D01*
X26990576Y17390897D01*
X26929972Y17504278D01*
X26906900Y17532391D01*
X26929999Y17648514D01*
X26929999Y17911486D01*
X26878695Y18169405D01*
X26778060Y18412359D01*
X26631961Y18631013D01*
X26446012Y18816962D01*
X26332156Y18893038D01*
X26300545Y18997246D01*
X26229973Y19129275D01*
X26135000Y19245000D01*
X26019274Y19339973D01*
X25887245Y19410545D01*
X25743984Y19454002D01*
X25594999Y19468676D01*
X25446013Y19454002D01*
X25302752Y19410545D01*
X25170723Y19339973D01*
X25054998Y19245000D01*
X24960025Y19129274D01*
X24889453Y18997245D01*
X24857843Y18893038D01*
X24743986Y18816962D01*
X24558037Y18631013D01*
X24411938Y18412359D01*
X24311303Y18169405D01*
X24259999Y17911486D01*
X24259999Y17648514D01*
X24311303Y17390595D01*
X24411938Y17147641D01*
X24558037Y16928987D01*
X24743986Y16743038D01*
X24962640Y16596939D01*
X25205594Y16496304D01*
X25463513Y16445000D01*
X25534998Y16445000D01*
X25534999Y15215555D01*
X25311560Y15259999D01*
X25199999Y15259999D01*
X25199999Y15372001D01*
X25041251Y15372001D01*
X25199999Y15530749D01*
X25203071Y15894999D01*
X25190811Y16019481D01*
X25154501Y16139179D01*
X25095536Y16249493D01*
X25016184Y16346184D01*
X24919493Y16425536D01*
X24809179Y16484501D01*
X24689481Y16520811D01*
X24564999Y16533071D01*
X24200749Y16529999D01*
X24041999Y16371249D01*
X24041999Y15371999D01*
X24061999Y15371999D01*
X24061999Y15117999D01*
X24041999Y15117999D01*
X24041999Y15097999D01*
X23787999Y15097999D01*
X23787999Y15117999D01*
X22788749Y15117999D01*
X22629999Y14959249D01*
X22628108Y14734999D01*
X20686846Y14734999D01*
X20649571Y14824988D01*
X20452035Y15120621D01*
X20200621Y15372035D01*
X19904988Y15569571D01*
X19576499Y15705635D01*
X19227777Y15775000D01*
X18872223Y15775000D01*
X18523501Y15705635D01*
X18428512Y15666289D01*
X18314999Y15779802D01*
X18314999Y15894999D01*
X22626927Y15894999D01*
X22629999Y15530749D01*
X22788749Y15371999D01*
X23787999Y15371999D01*
X23787999Y16371249D01*
X23629249Y16529999D01*
X23264999Y16533071D01*
X23140517Y16520811D01*
X23020819Y16484501D01*
X22910505Y16425536D01*
X22813814Y16346184D01*
X22734462Y16249493D01*
X22675497Y16139179D01*
X22639187Y16019481D01*
X22626927Y15894999D01*
X18314999Y15894999D01*
X18314999Y17320729D01*
X18523501Y17234365D01*
X18872223Y17165000D01*
X19227777Y17165000D01*
X19576499Y17234365D01*
X19904988Y17370429D01*
X20200621Y17567965D01*
X20452035Y17819379D01*
X20649571Y18115012D01*
X20785635Y18443501D01*
X20855000Y18792223D01*
X20855000Y19147777D01*
X20785635Y19496499D01*
X20649571Y19824988D01*
X20452035Y20120621D01*
X20200621Y20372035D01*
X19904988Y20569571D01*
X19576499Y20705635D01*
X19227777Y20775000D01*
X18872223Y20775000D01*
X18523501Y20705635D01*
X18314999Y20619271D01*
X18314999Y21777679D01*
X18318675Y21815002D01*
X18314999Y21852325D01*
X18314999Y21852334D01*
X18304002Y21963987D01*
X18260545Y22107248D01*
X18189973Y22239277D01*
X18095000Y22355002D01*
X18066003Y22378799D01*
X15368688Y25076113D01*
X15405000Y25258665D01*
X15405000Y25541335D01*
X15349853Y25818574D01*
X15241680Y26079727D01*
X15084637Y26314759D01*
X14884759Y26514637D01*
X14652241Y26670000D01*
X14884759Y26825363D01*
X15084637Y27025241D01*
X15241680Y27260273D01*
X15349853Y27521426D01*
X15405000Y27798665D01*
X15405000Y28081335D01*
X15368688Y28263886D01*
X15606004Y28501202D01*
X15635002Y28525000D01*
X15729975Y28640725D01*
X15800547Y28772754D01*
X15844004Y28916015D01*
X15855001Y29027668D01*
X15855001Y29027676D01*
X15858677Y29065001D01*
X15855001Y29102326D01*
X15855001Y33161335D01*
X20155000Y33161335D01*
X20155000Y32878665D01*
X20210147Y32601426D01*
X20318320Y32340273D01*
X20475363Y32105241D01*
X20675241Y31905363D01*
X20907759Y31750000D01*
X20675241Y31594637D01*
X20475363Y31394759D01*
X20318320Y31159727D01*
X20210147Y30898574D01*
X20155000Y30621335D01*
X20155000Y30338665D01*
X20210147Y30061426D01*
X20318320Y29800273D01*
X20475363Y29565241D01*
X20675241Y29365363D01*
X20907759Y29210000D01*
X20675241Y29054637D01*
X20475363Y28854759D01*
X20318320Y28619727D01*
X20210147Y28358574D01*
X20155000Y28081335D01*
X20155000Y27798665D01*
X20210147Y27521426D01*
X20318320Y27260273D01*
X20475363Y27025241D01*
X20675241Y26825363D01*
X20907759Y26670000D01*
X20675241Y26514637D01*
X20475363Y26314759D01*
X20318320Y26079727D01*
X20210147Y25818574D01*
X20155000Y25541335D01*
X20155000Y25258665D01*
X20210147Y24981426D01*
X20318320Y24720273D01*
X20475363Y24485241D01*
X20675241Y24285363D01*
X20910273Y24128320D01*
X21171426Y24020147D01*
X21448665Y23965000D01*
X21731335Y23965000D01*
X22008574Y24020147D01*
X22269727Y24128320D01*
X22504759Y24285363D01*
X22704637Y24485241D01*
X22861680Y24720273D01*
X22969853Y24981426D01*
X23025000Y25258665D01*
X23025000Y25541335D01*
X22988688Y25723886D01*
X24327703Y27062901D01*
X24485241Y26905363D01*
X24720273Y26748320D01*
X24981426Y26640147D01*
X25061841Y26624151D01*
X24962640Y26583061D01*
X24743986Y26436962D01*
X24558037Y26251013D01*
X24411938Y26032359D01*
X24311303Y25789405D01*
X24259999Y25531486D01*
X24259999Y25268514D01*
X24311303Y25010595D01*
X24411938Y24767641D01*
X24558037Y24548987D01*
X24743986Y24363038D01*
X24962640Y24216939D01*
X25205594Y24116304D01*
X25463513Y24065000D01*
X25726485Y24065000D01*
X25833843Y24086355D01*
X30384980Y19535216D01*
X30384981Y12532940D01*
X30381304Y12495608D01*
X30395978Y12346623D01*
X30439434Y12203362D01*
X30510006Y12071332D01*
X30572651Y11995000D01*
X30604980Y11955607D01*
X30633978Y11931809D01*
X31801805Y10763981D01*
X31825599Y10734988D01*
X31854592Y10711194D01*
X31854596Y10711190D01*
X31941322Y10640015D01*
X32073352Y10569443D01*
X32116809Y10556261D01*
X32216614Y10525986D01*
X32328267Y10514989D01*
X32328276Y10514989D01*
X32365599Y10511313D01*
X32402922Y10514989D01*
X45203080Y10514991D01*
X45240412Y10511314D01*
X45389398Y10525988D01*
X45532658Y10569444D01*
X45664688Y10640017D01*
X45751415Y10711191D01*
X45751420Y10711196D01*
X45780413Y10734990D01*
X45804207Y10763983D01*
X47356023Y12315801D01*
X47385020Y12339598D01*
X47479993Y12455323D01*
X47550565Y12587352D01*
X47594022Y12730613D01*
X47605019Y12842266D01*
X47605019Y12842276D01*
X47608695Y12879599D01*
X47605019Y12916922D01*
X47605019Y18725618D01*
X49456155Y20576753D01*
X49546043Y20359746D01*
X49700897Y20127990D01*
X49897990Y19930897D01*
X50129746Y19776043D01*
X50168477Y19760000D01*
X50129746Y19743957D01*
X49897990Y19589103D01*
X49700897Y19392010D01*
X49546043Y19160254D01*
X49439377Y18902740D01*
X49385000Y18629365D01*
X49385000Y18350635D01*
X49439377Y18077260D01*
X49546043Y17819746D01*
X49700897Y17587990D01*
X49897990Y17390897D01*
X50129746Y17236043D01*
X50168477Y17220000D01*
X50129746Y17203957D01*
X49897990Y17049103D01*
X49700897Y16852010D01*
X49546043Y16620254D01*
X49439377Y16362740D01*
X49385000Y16089365D01*
X49385000Y15810635D01*
X49439377Y15537260D01*
X49546043Y15279746D01*
X49700897Y15047990D01*
X49897990Y14850897D01*
X50129746Y14696043D01*
X50168477Y14680000D01*
X50129746Y14663957D01*
X49897990Y14509103D01*
X49700897Y14312010D01*
X49546043Y14080254D01*
X49439377Y13822740D01*
X49385000Y13549365D01*
X49385000Y13270635D01*
X49439377Y12997260D01*
X49546043Y12739746D01*
X49700897Y12507990D01*
X49897990Y12310897D01*
X50129746Y12156043D01*
X50387260Y12049377D01*
X50660635Y11995000D01*
X50939365Y11995000D01*
X51212740Y12049377D01*
X51470254Y12156043D01*
X51702010Y12310897D01*
X51899103Y12507990D01*
X52053957Y12739746D01*
X52160623Y12997260D01*
X52215000Y13270635D01*
X52215000Y13549365D01*
X52160623Y13822740D01*
X52053957Y14080254D01*
X51899103Y14312010D01*
X51702010Y14509103D01*
X51470254Y14663957D01*
X51431523Y14680000D01*
X51470254Y14696043D01*
X51702010Y14850897D01*
X51899103Y15047990D01*
X52053957Y15279746D01*
X52160623Y15537260D01*
X52215000Y15810635D01*
X52215000Y16089365D01*
X52160623Y16362740D01*
X52053957Y16620254D01*
X51899103Y16852010D01*
X51702010Y17049103D01*
X51470254Y17203957D01*
X51431523Y17220000D01*
X51470254Y17236043D01*
X51702010Y17390897D01*
X51899103Y17587990D01*
X52053957Y17819746D01*
X52160623Y18077260D01*
X52215000Y18350635D01*
X52215000Y18629365D01*
X52160623Y18902740D01*
X52053957Y19160254D01*
X51899103Y19392010D01*
X51702010Y19589103D01*
X51470254Y19743957D01*
X51431523Y19760000D01*
X51470254Y19776043D01*
X51702010Y19930897D01*
X51899103Y20127990D01*
X52053957Y20359746D01*
X52160623Y20617260D01*
X52215000Y20890635D01*
X52215000Y21169365D01*
X52160623Y21442740D01*
X52053957Y21700254D01*
X51899103Y21932010D01*
X51886500Y21944613D01*
X51894204Y21954001D01*
X52416005Y22475801D01*
X52445002Y22499598D01*
X52497859Y22564004D01*
X52539975Y22615322D01*
X52610547Y22747352D01*
X52613548Y22757246D01*
X52654004Y22890613D01*
X52665001Y23002266D01*
X52665001Y23002275D01*
X52668677Y23039598D01*
X52665001Y23076921D01*
X52665001Y45287677D01*
X52668677Y45325000D01*
X52665001Y45362323D01*
X52665001Y45362332D01*
X52654004Y45473985D01*
X52610547Y45617246D01*
X52539975Y45749275D01*
X52445002Y45865000D01*
X52415998Y45888803D01*
X52181680Y46123121D01*
X52215000Y46290635D01*
X52215000Y46569365D01*
X52160623Y46842740D01*
X52053957Y47100254D01*
X51899103Y47332010D01*
X51702010Y47529103D01*
X51470254Y47683957D01*
X51431523Y47700000D01*
X51470254Y47716043D01*
X51702010Y47870897D01*
X51899103Y48067990D01*
X52053957Y48299746D01*
X52160623Y48557260D01*
X52215000Y48830635D01*
X52215000Y49109365D01*
X52160623Y49382740D01*
X52053957Y49640254D01*
X51899103Y49872010D01*
X51702010Y50069103D01*
X51470254Y50223957D01*
X51431523Y50240000D01*
X51470254Y50256043D01*
X51702010Y50410897D01*
X51899103Y50607990D01*
X52053957Y50839746D01*
X52160623Y51097260D01*
X52215000Y51370635D01*
X52215000Y51649365D01*
X52160623Y51922740D01*
X52053957Y52180254D01*
X51899103Y52412010D01*
X51702010Y52609103D01*
X51470254Y52763957D01*
X51431523Y52780000D01*
X51470254Y52796043D01*
X51702010Y52950897D01*
X51899103Y53147990D01*
X52053957Y53379746D01*
X52160623Y53637260D01*
X52215000Y53910635D01*
X52215000Y54189365D01*
X52160623Y54462740D01*
X52053957Y54720254D01*
X51899103Y54952010D01*
X51702010Y55149103D01*
X51470254Y55303957D01*
X51431523Y55320000D01*
X51470254Y55336043D01*
X51702010Y55490897D01*
X51899103Y55687990D01*
X52053957Y55919746D01*
X52160623Y56177260D01*
X52215000Y56450635D01*
X52215000Y56729365D01*
X74785000Y56729365D01*
X74785000Y56450635D01*
X74839377Y56177260D01*
X74946043Y55919746D01*
X75100897Y55687990D01*
X75297990Y55490897D01*
X75529746Y55336043D01*
X75568477Y55320000D01*
X75529746Y55303957D01*
X75297990Y55149103D01*
X75100897Y54952010D01*
X74946043Y54720254D01*
X74839377Y54462740D01*
X74785000Y54189365D01*
X74785000Y53910635D01*
X74839377Y53637260D01*
X74946043Y53379746D01*
X75100897Y53147990D01*
X75297990Y52950897D01*
X75529746Y52796043D01*
X75568477Y52780000D01*
X75529746Y52763957D01*
X75297990Y52609103D01*
X75100897Y52412010D01*
X74946043Y52180254D01*
X74839377Y51922740D01*
X74785000Y51649365D01*
X74785000Y51370635D01*
X74839377Y51097260D01*
X74946043Y50839746D01*
X75100897Y50607990D01*
X75297990Y50410897D01*
X75529746Y50256043D01*
X75568477Y50240000D01*
X75529746Y50223957D01*
X75297990Y50069103D01*
X75100897Y49872010D01*
X74946043Y49640254D01*
X74839377Y49382740D01*
X74785000Y49109365D01*
X74785000Y48830635D01*
X74839377Y48557260D01*
X74946043Y48299746D01*
X75100897Y48067990D01*
X75297990Y47870897D01*
X75529746Y47716043D01*
X75568477Y47700000D01*
X75529746Y47683957D01*
X75297990Y47529103D01*
X75100897Y47332010D01*
X74946043Y47100254D01*
X74839377Y46842740D01*
X74785000Y46569365D01*
X74785000Y46290635D01*
X74839377Y46017260D01*
X74946043Y45759746D01*
X75100897Y45527990D01*
X75297990Y45330897D01*
X75529746Y45176043D01*
X75568477Y45160000D01*
X75529746Y45143957D01*
X75297990Y44989103D01*
X75100897Y44792010D01*
X74946043Y44560254D01*
X74839377Y44302740D01*
X74785000Y44029365D01*
X74785000Y43750635D01*
X74839377Y43477260D01*
X74946043Y43219746D01*
X75100897Y42987990D01*
X75297990Y42790897D01*
X75529746Y42636043D01*
X75568477Y42620000D01*
X75529746Y42603957D01*
X75297990Y42449103D01*
X75100897Y42252010D01*
X74946043Y42020254D01*
X74839377Y41762740D01*
X74785000Y41489365D01*
X74785000Y41210635D01*
X74839377Y40937260D01*
X74946043Y40679746D01*
X75100897Y40447990D01*
X75297990Y40250897D01*
X75529746Y40096043D01*
X75568477Y40080000D01*
X75529746Y40063957D01*
X75297990Y39909103D01*
X75100897Y39712010D01*
X74946043Y39480254D01*
X74839377Y39222740D01*
X74785000Y38949365D01*
X74785000Y38670635D01*
X74839377Y38397260D01*
X74946043Y38139746D01*
X75100897Y37907990D01*
X75297990Y37710897D01*
X75529746Y37556043D01*
X75568477Y37540000D01*
X75529746Y37523957D01*
X75297990Y37369103D01*
X75100897Y37172010D01*
X74946043Y36940254D01*
X74839377Y36682740D01*
X74785000Y36409365D01*
X74785000Y36130635D01*
X74839377Y35857260D01*
X74946043Y35599746D01*
X75100897Y35367990D01*
X75297990Y35170897D01*
X75529746Y35016043D01*
X75568477Y35000000D01*
X75529746Y34983957D01*
X75297990Y34829103D01*
X75100897Y34632010D01*
X74946043Y34400254D01*
X74839377Y34142740D01*
X74785000Y33869365D01*
X74785000Y33590635D01*
X74839377Y33317260D01*
X74946043Y33059746D01*
X75100897Y32827990D01*
X75297990Y32630897D01*
X75529746Y32476043D01*
X75568477Y32460000D01*
X75529746Y32443957D01*
X75297990Y32289103D01*
X75100897Y32092010D01*
X74946043Y31860254D01*
X74839377Y31602740D01*
X74785000Y31329365D01*
X74785000Y31050635D01*
X74839377Y30777260D01*
X74946043Y30519746D01*
X75100897Y30287990D01*
X75297990Y30090897D01*
X75529746Y29936043D01*
X75568477Y29920000D01*
X75529746Y29903957D01*
X75297990Y29749103D01*
X75100897Y29552010D01*
X74946043Y29320254D01*
X74839377Y29062740D01*
X74785000Y28789365D01*
X74785000Y28510635D01*
X74839377Y28237260D01*
X74946043Y27979746D01*
X75100897Y27747990D01*
X75297990Y27550897D01*
X75529746Y27396043D01*
X75568477Y27380000D01*
X75529746Y27363957D01*
X75297990Y27209103D01*
X75100897Y27012010D01*
X74946043Y26780254D01*
X74839377Y26522740D01*
X74785000Y26249365D01*
X74785000Y25970635D01*
X74839377Y25697260D01*
X74946043Y25439746D01*
X75100897Y25207990D01*
X75297990Y25010897D01*
X75529746Y24856043D01*
X75568477Y24840000D01*
X75529746Y24823957D01*
X75297990Y24669103D01*
X75100897Y24472010D01*
X74946043Y24240254D01*
X74839377Y23982740D01*
X74785000Y23709365D01*
X74785000Y23430635D01*
X74839377Y23157260D01*
X74946043Y22899746D01*
X75100897Y22667990D01*
X75297990Y22470897D01*
X75529746Y22316043D01*
X75568477Y22300000D01*
X75529746Y22283957D01*
X75297990Y22129103D01*
X75100897Y21932010D01*
X74946043Y21700254D01*
X74839377Y21442740D01*
X74785000Y21169365D01*
X74785000Y20890635D01*
X74839377Y20617260D01*
X74946043Y20359746D01*
X75100897Y20127990D01*
X75297990Y19930897D01*
X75529746Y19776043D01*
X75568477Y19760000D01*
X75529746Y19743957D01*
X75297990Y19589103D01*
X75100897Y19392010D01*
X74946043Y19160254D01*
X74839377Y18902740D01*
X74785000Y18629365D01*
X74785000Y18350635D01*
X74839377Y18077260D01*
X74946043Y17819746D01*
X75100897Y17587990D01*
X75297990Y17390897D01*
X75529746Y17236043D01*
X75568477Y17220000D01*
X75529746Y17203957D01*
X75297990Y17049103D01*
X75100897Y16852010D01*
X74946043Y16620254D01*
X74839377Y16362740D01*
X74785000Y16089365D01*
X74785000Y15810635D01*
X74839377Y15537260D01*
X74946043Y15279746D01*
X75100897Y15047990D01*
X75297990Y14850897D01*
X75529746Y14696043D01*
X75568477Y14680000D01*
X75529746Y14663957D01*
X75297990Y14509103D01*
X75100897Y14312010D01*
X74946043Y14080254D01*
X74839377Y13822740D01*
X74785000Y13549365D01*
X74785000Y13270635D01*
X74839377Y12997260D01*
X74946043Y12739746D01*
X75100897Y12507990D01*
X75297990Y12310897D01*
X75529746Y12156043D01*
X75787260Y12049377D01*
X76060635Y11995000D01*
X76339365Y11995000D01*
X76612740Y12049377D01*
X76870254Y12156043D01*
X77102010Y12310897D01*
X77299103Y12507990D01*
X77453957Y12739746D01*
X77560623Y12997260D01*
X77615000Y13270635D01*
X77615000Y13549365D01*
X77560623Y13822740D01*
X77453957Y14080254D01*
X77299103Y14312010D01*
X77102010Y14509103D01*
X76870254Y14663957D01*
X76831523Y14680000D01*
X76870254Y14696043D01*
X77102010Y14850897D01*
X77299103Y15047990D01*
X77453957Y15279746D01*
X77560623Y15537260D01*
X77615000Y15810635D01*
X77615000Y16089365D01*
X77560623Y16362740D01*
X77453957Y16620254D01*
X77299103Y16852010D01*
X77102010Y17049103D01*
X76870254Y17203957D01*
X76831523Y17220000D01*
X76870254Y17236043D01*
X77102010Y17390897D01*
X77299103Y17587990D01*
X77453957Y17819746D01*
X77560623Y18077260D01*
X77615000Y18350635D01*
X77615000Y18629365D01*
X77560623Y18902740D01*
X77453957Y19160254D01*
X77299103Y19392010D01*
X77102010Y19589103D01*
X76870254Y19743957D01*
X76831523Y19760000D01*
X76870254Y19776043D01*
X77102010Y19930897D01*
X77299103Y20127990D01*
X77453957Y20359746D01*
X77560623Y20617260D01*
X77615000Y20890635D01*
X77615000Y21169365D01*
X77560623Y21442740D01*
X77453957Y21700254D01*
X77299103Y21932010D01*
X77102010Y22129103D01*
X76870254Y22283957D01*
X76831523Y22300000D01*
X76870254Y22316043D01*
X77102010Y22470897D01*
X77299103Y22667990D01*
X77453957Y22899746D01*
X77560623Y23157260D01*
X77615000Y23430635D01*
X77615000Y23709365D01*
X77560623Y23982740D01*
X77453957Y24240254D01*
X77299103Y24472010D01*
X77102010Y24669103D01*
X76870254Y24823957D01*
X76831523Y24840000D01*
X76870254Y24856043D01*
X77102010Y25010897D01*
X77299103Y25207990D01*
X77453957Y25439746D01*
X77560623Y25697260D01*
X77615000Y25970635D01*
X77615000Y26249365D01*
X77560623Y26522740D01*
X77453957Y26780254D01*
X77299103Y27012010D01*
X77102010Y27209103D01*
X76870254Y27363957D01*
X76831523Y27380000D01*
X76870254Y27396043D01*
X77102010Y27550897D01*
X77299103Y27747990D01*
X77453957Y27979746D01*
X77560623Y28237260D01*
X77615000Y28510635D01*
X77615000Y28789365D01*
X77560623Y29062740D01*
X77453957Y29320254D01*
X77299103Y29552010D01*
X77102010Y29749103D01*
X76870254Y29903957D01*
X76831523Y29920000D01*
X76870254Y29936043D01*
X77102010Y30090897D01*
X77299103Y30287990D01*
X77453957Y30519746D01*
X77560623Y30777260D01*
X77615000Y31050635D01*
X77615000Y31329365D01*
X77560623Y31602740D01*
X77453957Y31860254D01*
X77299103Y32092010D01*
X77102010Y32289103D01*
X76870254Y32443957D01*
X76831523Y32460000D01*
X76870254Y32476043D01*
X77102010Y32630897D01*
X77299103Y32827990D01*
X77453957Y33059746D01*
X77560623Y33317260D01*
X77615000Y33590635D01*
X77615000Y33869365D01*
X77560623Y34142740D01*
X77453957Y34400254D01*
X77299103Y34632010D01*
X77102010Y34829103D01*
X76870254Y34983957D01*
X76831523Y35000000D01*
X76870254Y35016043D01*
X77102010Y35170897D01*
X77299103Y35367990D01*
X77453957Y35599746D01*
X77560623Y35857260D01*
X77615000Y36130635D01*
X77615000Y36409365D01*
X77560623Y36682740D01*
X77453957Y36940254D01*
X77299103Y37172010D01*
X77102010Y37369103D01*
X76870254Y37523957D01*
X76831523Y37540000D01*
X76870254Y37556043D01*
X77102010Y37710897D01*
X77299103Y37907990D01*
X77453957Y38139746D01*
X77560623Y38397260D01*
X77615000Y38670635D01*
X77615000Y38949365D01*
X77560623Y39222740D01*
X77453957Y39480254D01*
X77299103Y39712010D01*
X77102010Y39909103D01*
X76870254Y40063957D01*
X76831523Y40080000D01*
X76870254Y40096043D01*
X77102010Y40250897D01*
X77299103Y40447990D01*
X77453957Y40679746D01*
X77560623Y40937260D01*
X77615000Y41210635D01*
X77615000Y41489365D01*
X77560623Y41762740D01*
X77453957Y42020254D01*
X77299103Y42252010D01*
X77102010Y42449103D01*
X76870254Y42603957D01*
X76831523Y42620000D01*
X76870254Y42636043D01*
X77102010Y42790897D01*
X77299103Y42987990D01*
X77453957Y43219746D01*
X77560623Y43477260D01*
X77615000Y43750635D01*
X77615000Y44029365D01*
X77560623Y44302740D01*
X77453957Y44560254D01*
X77299103Y44792010D01*
X77102010Y44989103D01*
X76870254Y45143957D01*
X76831523Y45160000D01*
X76870254Y45176043D01*
X77102010Y45330897D01*
X77299103Y45527990D01*
X77453957Y45759746D01*
X77560623Y46017260D01*
X77615000Y46290635D01*
X77615000Y46569365D01*
X77560623Y46842740D01*
X77453957Y47100254D01*
X77299103Y47332010D01*
X77102010Y47529103D01*
X76870254Y47683957D01*
X76831523Y47700000D01*
X76870254Y47716043D01*
X77102010Y47870897D01*
X77299103Y48067990D01*
X77453957Y48299746D01*
X77560623Y48557260D01*
X77615000Y48830635D01*
X77615000Y49109365D01*
X77560623Y49382740D01*
X77453957Y49640254D01*
X77299103Y49872010D01*
X77102010Y50069103D01*
X76870254Y50223957D01*
X76831523Y50240000D01*
X76870254Y50256043D01*
X77102010Y50410897D01*
X77299103Y50607990D01*
X77453957Y50839746D01*
X77560623Y51097260D01*
X77615000Y51370635D01*
X77615000Y51649365D01*
X77560623Y51922740D01*
X77453957Y52180254D01*
X77299103Y52412010D01*
X77102010Y52609103D01*
X76870254Y52763957D01*
X76831523Y52780000D01*
X76870254Y52796043D01*
X77102010Y52950897D01*
X77299103Y53147990D01*
X77453957Y53379746D01*
X77560623Y53637260D01*
X77615000Y53910635D01*
X77615000Y54189365D01*
X77560623Y54462740D01*
X77453957Y54720254D01*
X77299103Y54952010D01*
X77102010Y55149103D01*
X76870254Y55303957D01*
X76831523Y55320000D01*
X76870254Y55336043D01*
X77102010Y55490897D01*
X77299103Y55687990D01*
X77453957Y55919746D01*
X77560623Y56177260D01*
X77615000Y56450635D01*
X77615000Y56729365D01*
X77560623Y57002740D01*
X77453957Y57260254D01*
X77299103Y57492010D01*
X77102010Y57689103D01*
X76870254Y57843957D01*
X76834475Y57858777D01*
X76929655Y57909651D01*
X76998816Y58151579D01*
X76200000Y58950395D01*
X75401184Y58151579D01*
X75470345Y57909651D01*
X75572279Y57861575D01*
X75529746Y57843957D01*
X75297990Y57689103D01*
X75100897Y57492010D01*
X74946043Y57260254D01*
X74839377Y57002740D01*
X74785000Y56729365D01*
X52215000Y56729365D01*
X52160623Y57002740D01*
X52053957Y57260254D01*
X51899103Y57492010D01*
X51702010Y57689103D01*
X51656564Y57719469D01*
X51704482Y57724188D01*
X51824180Y57760498D01*
X51934494Y57819463D01*
X52031185Y57898815D01*
X52110537Y57995506D01*
X52169502Y58105820D01*
X52205812Y58225518D01*
X52218072Y58350000D01*
X52218072Y59058697D01*
X74779943Y59058697D01*
X74821140Y58783028D01*
X74915325Y58520692D01*
X74979651Y58400345D01*
X75221579Y58331184D01*
X76020395Y59130000D01*
X76379605Y59130000D01*
X77178421Y58331184D01*
X77420349Y58400345D01*
X77539248Y58652443D01*
X77606681Y58922894D01*
X77620057Y59201303D01*
X77578860Y59476972D01*
X77484675Y59739308D01*
X77420349Y59859655D01*
X77178421Y59928816D01*
X76379605Y59130000D01*
X76020395Y59130000D01*
X75221579Y59928816D01*
X74979651Y59859655D01*
X74860752Y59607557D01*
X74793319Y59337106D01*
X74779943Y59058697D01*
X52218072Y59058697D01*
X52218072Y59910000D01*
X52205812Y60034482D01*
X52183383Y60108421D01*
X75401184Y60108421D01*
X76200000Y59309605D01*
X76998816Y60108421D01*
X76929655Y60350349D01*
X76677557Y60469248D01*
X76407106Y60536681D01*
X76128697Y60550057D01*
X75853028Y60508860D01*
X75590692Y60414675D01*
X75470345Y60350349D01*
X75401184Y60108421D01*
X52183383Y60108421D01*
X52169502Y60154180D01*
X52110537Y60264494D01*
X52031185Y60361185D01*
X51934494Y60440537D01*
X51824180Y60499502D01*
X51704482Y60535812D01*
X51580000Y60548072D01*
X50020000Y60548072D01*
X49895518Y60535812D01*
X49775820Y60499502D01*
X49665506Y60440537D01*
X49568815Y60361185D01*
X49489463Y60264494D01*
X49430498Y60154180D01*
X49394188Y60034482D01*
X49381928Y59910000D01*
X49381928Y58350000D01*
X49394188Y58225518D01*
X49430498Y58105820D01*
X49489463Y57995506D01*
X49568815Y57898815D01*
X49665506Y57819463D01*
X49775820Y57760498D01*
X49895518Y57724188D01*
X49943436Y57719469D01*
X49897990Y57689103D01*
X49700897Y57492010D01*
X49546043Y57260254D01*
X49439377Y57002740D01*
X49385000Y56729365D01*
X49385000Y56450635D01*
X49439377Y56177260D01*
X49546043Y55919746D01*
X49700897Y55687990D01*
X49897990Y55490897D01*
X50129746Y55336043D01*
X50168477Y55320000D01*
X50129746Y55303957D01*
X49897990Y55149103D01*
X49700897Y54952010D01*
X49546043Y54720254D01*
X49439377Y54462740D01*
X49385000Y54189365D01*
X49385000Y53910635D01*
X49439377Y53637260D01*
X49546043Y53379746D01*
X49700897Y53147990D01*
X49897990Y52950897D01*
X50129746Y52796043D01*
X50168477Y52780000D01*
X50129746Y52763957D01*
X49897990Y52609103D01*
X49700897Y52412010D01*
X49546043Y52180254D01*
X49439377Y51922740D01*
X49385000Y51649365D01*
X49385000Y51370635D01*
X49439377Y51097260D01*
X49546043Y50839746D01*
X49700897Y50607990D01*
X49897990Y50410897D01*
X50129746Y50256043D01*
X50168477Y50240000D01*
X50129746Y50223957D01*
X49897990Y50069103D01*
X49700897Y49872010D01*
X49546043Y49640254D01*
X49439377Y49382740D01*
X49385000Y49109365D01*
X49385000Y48830635D01*
X49418320Y48663122D01*
X45769494Y45014295D01*
X45721680Y45129727D01*
X45564637Y45364759D01*
X45364759Y45564637D01*
X45132241Y45720000D01*
X45364759Y45875363D01*
X45564637Y46075241D01*
X45721680Y46310273D01*
X45829853Y46571426D01*
X45885000Y46848665D01*
X45885000Y47131335D01*
X45829853Y47408574D01*
X45721680Y47669727D01*
X45564637Y47904759D01*
X45364759Y48104637D01*
X45129727Y48261680D01*
X44868574Y48369853D01*
X44591335Y48425000D01*
X44308665Y48425000D01*
X44031426Y48369853D01*
X43770273Y48261680D01*
X43535241Y48104637D01*
X43335363Y47904759D01*
X43178320Y47669727D01*
X43070147Y47408574D01*
X43015000Y47131335D01*
X43015000Y46959802D01*
X40210000Y49764801D01*
X40210000Y52931084D01*
X40304988Y52970429D01*
X40600621Y53167965D01*
X40852035Y53419379D01*
X41049571Y53715012D01*
X41185635Y54043501D01*
X41221482Y54223716D01*
X42753710Y52691488D01*
X42714365Y52596499D01*
X42645000Y52247777D01*
X42645000Y51892223D01*
X42714365Y51543501D01*
X42850429Y51215012D01*
X43047965Y50919379D01*
X43299379Y50667965D01*
X43595012Y50470429D01*
X43923501Y50334365D01*
X44272223Y50265000D01*
X44627777Y50265000D01*
X44976499Y50334365D01*
X45304988Y50470429D01*
X45600621Y50667965D01*
X45852035Y50919379D01*
X46049571Y51215012D01*
X46185635Y51543501D01*
X46255000Y51892223D01*
X46255000Y52247777D01*
X46185635Y52596499D01*
X46049571Y52924988D01*
X45852035Y53220621D01*
X45600621Y53472035D01*
X45304988Y53669571D01*
X44976499Y53805635D01*
X44627777Y53875000D01*
X44272223Y53875000D01*
X43923501Y53805635D01*
X43828512Y53766290D01*
X40347025Y57247777D01*
X42645000Y57247777D01*
X42645000Y56892223D01*
X42714365Y56543501D01*
X42850429Y56215012D01*
X43047965Y55919379D01*
X43299379Y55667965D01*
X43595012Y55470429D01*
X43923501Y55334365D01*
X44272223Y55265000D01*
X44627777Y55265000D01*
X44976499Y55334365D01*
X45304988Y55470429D01*
X45600621Y55667965D01*
X45852035Y55919379D01*
X46049571Y56215012D01*
X46185635Y56543501D01*
X46255000Y56892223D01*
X46255000Y57247777D01*
X46185635Y57596499D01*
X46049571Y57924988D01*
X45852035Y58220621D01*
X45600621Y58472035D01*
X45304988Y58669571D01*
X44976499Y58805635D01*
X44627777Y58875000D01*
X44272223Y58875000D01*
X43923501Y58805635D01*
X43595012Y58669571D01*
X43299379Y58472035D01*
X43047965Y58220621D01*
X42850429Y57924988D01*
X42714365Y57596499D01*
X42645000Y57247777D01*
X40347025Y57247777D01*
X39933804Y57660997D01*
X39910001Y57690001D01*
X39794276Y57784974D01*
X39662247Y57855546D01*
X39518986Y57899003D01*
X39407333Y57910000D01*
X39407322Y57910000D01*
X39370000Y57913676D01*
X39332678Y57910000D01*
X35327641Y57910000D01*
X35288125Y57969140D01*
X35109140Y58148125D01*
X34898676Y58288753D01*
X34664821Y58385619D01*
X34416561Y58435000D01*
X34305000Y58435000D01*
X34305000Y58547002D01*
X34146252Y58547002D01*
X34305000Y58705750D01*
X34308072Y59070000D01*
X34295812Y59194482D01*
X34259502Y59314180D01*
X34200537Y59424494D01*
X34121185Y59521185D01*
X34024494Y59600537D01*
X33914180Y59659502D01*
X33794482Y59695812D01*
X33670000Y59708072D01*
X33305750Y59705000D01*
X33147000Y59546250D01*
X33147000Y58547000D01*
X33167000Y58547000D01*
X33167000Y58293000D01*
X33147000Y58293000D01*
X33147000Y58273000D01*
X32893000Y58273000D01*
X32893000Y58293000D01*
X31893750Y58293000D01*
X31735000Y58134250D01*
X31731928Y57770000D01*
X31744188Y57645518D01*
X31780498Y57525820D01*
X31839463Y57415506D01*
X31918815Y57318815D01*
X32015506Y57239463D01*
X32125820Y57180498D01*
X32245518Y57144188D01*
X32370000Y57131928D01*
X32734250Y57135000D01*
X32892998Y57293748D01*
X32892998Y57164912D01*
X32645179Y57115619D01*
X32411324Y57018753D01*
X32200860Y56878125D01*
X32021875Y56699140D01*
X31881247Y56488676D01*
X31784381Y56254821D01*
X31735000Y56006561D01*
X31735000Y55753439D01*
X31784381Y55505179D01*
X31881247Y55271324D01*
X32021875Y55060860D01*
X32200860Y54881875D01*
X32411324Y54741247D01*
X32645179Y54644381D01*
X32689882Y54635489D01*
X32630595Y54623696D01*
X32387641Y54523061D01*
X32168987Y54376962D01*
X31983038Y54191013D01*
X31836939Y53972359D01*
X31736304Y53729405D01*
X31685000Y53471486D01*
X31685000Y53208514D01*
X31736304Y52950595D01*
X31836939Y52707641D01*
X31983038Y52488987D01*
X32168987Y52303038D01*
X32387641Y52156939D01*
X32630595Y52056304D01*
X32888514Y52005000D01*
X33151486Y52005000D01*
X33409405Y52056304D01*
X33652359Y52156939D01*
X33871013Y52303038D01*
X34056962Y52488987D01*
X34203061Y52707641D01*
X34303696Y52950595D01*
X34355000Y53208514D01*
X34355000Y53471486D01*
X34303696Y53729405D01*
X34203061Y53972359D01*
X34056962Y54191013D01*
X33871013Y54376962D01*
X33652359Y54523061D01*
X33409405Y54623696D01*
X33350118Y54635489D01*
X33394821Y54644381D01*
X33628676Y54741247D01*
X33839140Y54881875D01*
X34018125Y55060860D01*
X34158753Y55271324D01*
X34255619Y55505179D01*
X34305000Y55753439D01*
X34305000Y55865000D01*
X34416561Y55865000D01*
X34664821Y55914381D01*
X34898676Y56011247D01*
X35109140Y56151875D01*
X35288125Y56330860D01*
X35327641Y56390000D01*
X39055199Y56390000D01*
X39103717Y56341482D01*
X38923501Y56305635D01*
X38595012Y56169571D01*
X38299379Y55972035D01*
X38047965Y55720621D01*
X37850429Y55424988D01*
X37714365Y55096499D01*
X37645000Y54747777D01*
X37645000Y54392223D01*
X37714365Y54043501D01*
X37850429Y53715012D01*
X38047965Y53419379D01*
X38299379Y53167965D01*
X38595012Y52970429D01*
X38690000Y52931084D01*
X38690001Y49487332D01*
X38686324Y49450000D01*
X38700998Y49301015D01*
X38744454Y49157754D01*
X38815026Y49025724D01*
X38860758Y48970000D01*
X38910000Y48909999D01*
X38938998Y48886201D01*
X41490197Y46335001D01*
X38111923Y46335001D01*
X38209853Y46571426D01*
X38265000Y46848665D01*
X38265000Y47131335D01*
X38209853Y47408574D01*
X38101680Y47669727D01*
X37944637Y47904759D01*
X37744759Y48104637D01*
X37509727Y48261680D01*
X37248574Y48369853D01*
X36971335Y48425000D01*
X36688665Y48425000D01*
X36411426Y48369853D01*
X36150273Y48261680D01*
X35915241Y48104637D01*
X35715363Y47904759D01*
X35558320Y47669727D01*
X35450147Y47408574D01*
X35395000Y47131335D01*
X35395000Y46848665D01*
X35450147Y46571426D01*
X35558320Y46310273D01*
X35715363Y46075241D01*
X35715400Y46075204D01*
X34625198Y44985001D01*
X34134480Y44985001D01*
X34203061Y45087641D01*
X34303696Y45330595D01*
X34355000Y45588514D01*
X34355000Y45851486D01*
X34303696Y46109405D01*
X34203061Y46352359D01*
X34056962Y46571013D01*
X33871013Y46756962D01*
X33652359Y46903061D01*
X33409405Y47003696D01*
X33151486Y47055000D01*
X32888514Y47055000D01*
X32781156Y47033645D01*
X32558803Y47255999D01*
X32535000Y47285002D01*
X32419275Y47379975D01*
X32287246Y47450547D01*
X32143985Y47494004D01*
X32032332Y47505001D01*
X32032321Y47505001D01*
X31994999Y47508677D01*
X31957677Y47505001D01*
X24945321Y47505001D01*
X24907998Y47508677D01*
X24870675Y47505001D01*
X24870666Y47505001D01*
X24759013Y47494004D01*
X24615752Y47450547D01*
X24483723Y47379975D01*
X24367998Y47285002D01*
X24344199Y47256003D01*
X23764001Y46675804D01*
X23734998Y46652002D01*
X23689052Y46596016D01*
X23640025Y46536277D01*
X23569855Y46405000D01*
X23569453Y46404247D01*
X23525996Y46260986D01*
X23514999Y46149333D01*
X23514999Y46149323D01*
X23511323Y46112001D01*
X23514999Y46074679D01*
X23515000Y37677331D01*
X23511323Y37639999D01*
X23515000Y37602666D01*
X23525997Y37491013D01*
X23529558Y37479275D01*
X23569453Y37347753D01*
X23640025Y37215723D01*
X23675900Y37172010D01*
X23734999Y37099998D01*
X23763997Y37076200D01*
X24296199Y36543997D01*
X24319998Y36514998D01*
X24348996Y36491200D01*
X24435722Y36420025D01*
X24540655Y36363937D01*
X24567752Y36349453D01*
X24626599Y36331602D01*
X24667245Y36290956D01*
X24596063Y36219774D01*
X24482795Y36050256D01*
X24404774Y35861898D01*
X24365000Y35661939D01*
X24365000Y35599802D01*
X23763997Y34998798D01*
X23734999Y34975000D01*
X23711201Y34946002D01*
X23711200Y34946001D01*
X23640025Y34859275D01*
X23569453Y34727245D01*
X23525997Y34583984D01*
X23511323Y34434999D01*
X23515000Y34397667D01*
X23514999Y28399801D01*
X23025000Y27909802D01*
X23025000Y28081335D01*
X22969853Y28358574D01*
X22861680Y28619727D01*
X22704637Y28854759D01*
X22504759Y29054637D01*
X22272241Y29210000D01*
X22504759Y29365363D01*
X22704637Y29565241D01*
X22861680Y29800273D01*
X22969853Y30061426D01*
X23025000Y30338665D01*
X23025000Y30621335D01*
X22969853Y30898574D01*
X22861680Y31159727D01*
X22704637Y31394759D01*
X22504759Y31594637D01*
X22272241Y31750000D01*
X22504759Y31905363D01*
X22704637Y32105241D01*
X22861680Y32340273D01*
X22969853Y32601426D01*
X23025000Y32878665D01*
X23025000Y33161335D01*
X22969853Y33438574D01*
X22861680Y33699727D01*
X22704637Y33934759D01*
X22504759Y34134637D01*
X22269727Y34291680D01*
X22008574Y34399853D01*
X21731335Y34455000D01*
X21448665Y34455000D01*
X21171426Y34399853D01*
X20910273Y34291680D01*
X20675241Y34134637D01*
X20475363Y33934759D01*
X20318320Y33699727D01*
X20210147Y33438574D01*
X20155000Y33161335D01*
X15855001Y33161335D01*
X15855001Y41845202D01*
X20319022Y46309222D01*
X20475363Y46075241D01*
X20675241Y45875363D01*
X20907759Y45720000D01*
X20675241Y45564637D01*
X20475363Y45364759D01*
X20318320Y45129727D01*
X20210147Y44868574D01*
X20155000Y44591335D01*
X20155000Y44308665D01*
X20210147Y44031426D01*
X20318320Y43770273D01*
X20475363Y43535241D01*
X20675241Y43335363D01*
X20907759Y43180000D01*
X20675241Y43024637D01*
X20475363Y42824759D01*
X20318320Y42589727D01*
X20210147Y42328574D01*
X20155000Y42051335D01*
X20155000Y41768665D01*
X20210147Y41491426D01*
X20318320Y41230273D01*
X20475363Y40995241D01*
X20673961Y40796643D01*
X20665518Y40795812D01*
X20545820Y40759502D01*
X20435506Y40700537D01*
X20338815Y40621185D01*
X20259463Y40524494D01*
X20200498Y40414180D01*
X20164188Y40294482D01*
X20151928Y40170000D01*
X20151928Y38570000D01*
X20164188Y38445518D01*
X20200498Y38325820D01*
X20259463Y38215506D01*
X20338815Y38118815D01*
X20435506Y38039463D01*
X20545820Y37980498D01*
X20665518Y37944188D01*
X20790000Y37931928D01*
X22390000Y37931928D01*
X22514482Y37944188D01*
X22634180Y37980498D01*
X22744494Y38039463D01*
X22841185Y38118815D01*
X22920537Y38215506D01*
X22979502Y38325820D01*
X23015812Y38445518D01*
X23028072Y38570000D01*
X23028072Y40170000D01*
X23015812Y40294482D01*
X22979502Y40414180D01*
X22920537Y40524494D01*
X22841185Y40621185D01*
X22744494Y40700537D01*
X22634180Y40759502D01*
X22514482Y40795812D01*
X22506039Y40796643D01*
X22704637Y40995241D01*
X22861680Y41230273D01*
X22969853Y41491426D01*
X23025000Y41768665D01*
X23025000Y42051335D01*
X22988688Y42233886D01*
X23226005Y42471203D01*
X23255002Y42495000D01*
X23349975Y42610725D01*
X23420547Y42742754D01*
X23464004Y42886015D01*
X23475001Y42997668D01*
X23475001Y42997676D01*
X23478677Y43035001D01*
X23475001Y43072326D01*
X23475001Y45827677D01*
X23478677Y45865000D01*
X23475001Y45902323D01*
X23475001Y45902332D01*
X23464004Y46013985D01*
X23420547Y46157246D01*
X23349975Y46289275D01*
X23255002Y46405000D01*
X23225998Y46428803D01*
X22988688Y46666113D01*
X23025000Y46848665D01*
X23025000Y47131335D01*
X22969853Y47408574D01*
X22861680Y47669727D01*
X22704637Y47904759D01*
X22504759Y48104637D01*
X22270778Y48260978D01*
X23291003Y49281203D01*
X23320001Y49305001D01*
X23414974Y49420726D01*
X23485546Y49552755D01*
X23529003Y49696016D01*
X23540000Y49807669D01*
X23540000Y49807679D01*
X23543676Y49845002D01*
X23540000Y49882325D01*
X23540000Y53471486D01*
X24065000Y53471486D01*
X24065000Y53208514D01*
X24116304Y52950595D01*
X24216939Y52707641D01*
X24363038Y52488987D01*
X24548987Y52303038D01*
X24767641Y52156939D01*
X25010595Y52056304D01*
X25268514Y52005000D01*
X25531486Y52005000D01*
X25789405Y52056304D01*
X26032359Y52156939D01*
X26251013Y52303038D01*
X26436962Y52488987D01*
X26583061Y52707641D01*
X26683696Y52950595D01*
X26735000Y53208514D01*
X26735000Y53471486D01*
X26683696Y53729405D01*
X26583061Y53972359D01*
X26436962Y54191013D01*
X26251013Y54376962D01*
X26032359Y54523061D01*
X25789405Y54623696D01*
X25531486Y54675000D01*
X25268514Y54675000D01*
X25010595Y54623696D01*
X24767641Y54523061D01*
X24548987Y54376962D01*
X24363038Y54191013D01*
X24216939Y53972359D01*
X24116304Y53729405D01*
X24065000Y53471486D01*
X23540000Y53471486D01*
X23540000Y54733511D01*
X23755179Y54644381D01*
X24003439Y54595000D01*
X24256561Y54595000D01*
X24504821Y54644381D01*
X24738676Y54741247D01*
X24949140Y54881875D01*
X25128125Y55060860D01*
X25268753Y55271324D01*
X25365619Y55505179D01*
X25415000Y55753439D01*
X25415000Y55865000D01*
X25526561Y55865000D01*
X25774821Y55914381D01*
X26008676Y56011247D01*
X26219140Y56151875D01*
X26398125Y56330860D01*
X26538753Y56541324D01*
X26635619Y56775179D01*
X26685000Y57023439D01*
X26685000Y57276561D01*
X26635619Y57524821D01*
X26538753Y57758676D01*
X26398125Y57969140D01*
X26219140Y58148125D01*
X26008676Y58288753D01*
X25774821Y58385619D01*
X25526561Y58435000D01*
X25415000Y58435000D01*
X25415000Y58547002D01*
X25256252Y58547002D01*
X25415000Y58705750D01*
X25418072Y59070000D01*
X31731928Y59070000D01*
X31735000Y58705750D01*
X31893750Y58547000D01*
X32893000Y58547000D01*
X32893000Y59546250D01*
X32734250Y59705000D01*
X32370000Y59708072D01*
X32245518Y59695812D01*
X32125820Y59659502D01*
X32015506Y59600537D01*
X31918815Y59521185D01*
X31839463Y59424494D01*
X31780498Y59314180D01*
X31744188Y59194482D01*
X31731928Y59070000D01*
X25418072Y59070000D01*
X25405812Y59194482D01*
X25369502Y59314180D01*
X25310537Y59424494D01*
X25231185Y59521185D01*
X25134494Y59600537D01*
X25024180Y59659502D01*
X24904482Y59695812D01*
X24780000Y59708072D01*
X24415750Y59705000D01*
X24257000Y59546250D01*
X24257000Y58547000D01*
X24277000Y58547000D01*
X24277000Y58293000D01*
X24257000Y58293000D01*
X24257000Y58273000D01*
X24003000Y58273000D01*
X24003000Y58293000D01*
X23983000Y58293000D01*
X23983000Y58547000D01*
X24003000Y58547000D01*
X24003000Y59546250D01*
X23844250Y59705000D01*
X23540000Y59707566D01*
X23540000Y64687405D01*
X23609014Y64724294D01*
X23835134Y64909866D01*
X24020706Y65135987D01*
X24030000Y65153374D01*
X24039294Y65135986D01*
X24224866Y64909866D01*
X24450987Y64724294D01*
X24708967Y64586401D01*
X24988890Y64501487D01*
X25280000Y64472815D01*
X25571111Y64501487D01*
X25851034Y64586401D01*
X26109014Y64724294D01*
X26335134Y64909866D01*
X26520706Y65135987D01*
X26658599Y65393967D01*
X26743513Y65673890D01*
X26765000Y65892051D01*
X26765000Y66187950D01*
X26743513Y66406111D01*
X26658599Y66686034D01*
X26643117Y66715000D01*
X30261928Y66715000D01*
X30261928Y65365000D01*
X30278992Y65191746D01*
X30329528Y65025150D01*
X30411595Y64871614D01*
X30522038Y64737038D01*
X30656614Y64626595D01*
X30810150Y64544528D01*
X30976746Y64493992D01*
X31150000Y64476928D01*
X32350000Y64476928D01*
X32523254Y64493992D01*
X32689850Y64544528D01*
X32843386Y64626595D01*
X32977962Y64737038D01*
X33088405Y64871614D01*
X33142777Y64973337D01*
X33194866Y64909866D01*
X33420987Y64724294D01*
X33678967Y64586401D01*
X33958890Y64501487D01*
X34250000Y64472815D01*
X34541111Y64501487D01*
X34821034Y64586401D01*
X35079014Y64724294D01*
X35305134Y64909866D01*
X35490706Y65135987D01*
X35500000Y65153374D01*
X35509294Y65135986D01*
X35694866Y64909866D01*
X35920987Y64724294D01*
X36178967Y64586401D01*
X36458890Y64501487D01*
X36750000Y64472815D01*
X37041111Y64501487D01*
X37321034Y64586401D01*
X37579014Y64724294D01*
X37805134Y64909866D01*
X37990706Y65135987D01*
X38000000Y65153374D01*
X38009294Y65135986D01*
X38194866Y64909866D01*
X38420987Y64724294D01*
X38678967Y64586401D01*
X38958890Y64501487D01*
X39250000Y64472815D01*
X39541111Y64501487D01*
X39821034Y64586401D01*
X40079014Y64724294D01*
X40305134Y64909866D01*
X40490706Y65135987D01*
X40628599Y65393967D01*
X40713513Y65673890D01*
X40735000Y65892051D01*
X40735000Y66187950D01*
X40713513Y66406111D01*
X40628599Y66686034D01*
X40490706Y66944014D01*
X40305134Y67170134D01*
X40079013Y67355706D01*
X39821033Y67493599D01*
X39541110Y67578513D01*
X39250000Y67607185D01*
X38958889Y67578513D01*
X38678966Y67493599D01*
X38420986Y67355706D01*
X38194866Y67170134D01*
X38009294Y66944013D01*
X38000000Y66926626D01*
X37990706Y66944014D01*
X37805134Y67170134D01*
X37579013Y67355706D01*
X37321033Y67493599D01*
X37041110Y67578513D01*
X36750000Y67607185D01*
X36458889Y67578513D01*
X36178966Y67493599D01*
X35920986Y67355706D01*
X35694866Y67170134D01*
X35509294Y66944013D01*
X35500000Y66926626D01*
X35490706Y66944014D01*
X35305134Y67170134D01*
X35079013Y67355706D01*
X34821033Y67493599D01*
X34541110Y67578513D01*
X34250000Y67607185D01*
X33958889Y67578513D01*
X33678966Y67493599D01*
X33420986Y67355706D01*
X33194866Y67170134D01*
X33142777Y67106663D01*
X33088405Y67208386D01*
X32977962Y67342962D01*
X32843386Y67453405D01*
X32689850Y67535472D01*
X32523254Y67586008D01*
X32350000Y67603072D01*
X31150000Y67603072D01*
X30976746Y67586008D01*
X30810150Y67535472D01*
X30656614Y67453405D01*
X30522038Y67342962D01*
X30411595Y67208386D01*
X30329528Y67054850D01*
X30278992Y66888254D01*
X30261928Y66715000D01*
X26643117Y66715000D01*
X26520706Y66944014D01*
X26335134Y67170134D01*
X26109013Y67355706D01*
X25851033Y67493599D01*
X25571110Y67578513D01*
X25280000Y67607185D01*
X24988889Y67578513D01*
X24708966Y67493599D01*
X24450986Y67355706D01*
X24224866Y67170134D01*
X24039294Y66944013D01*
X24030000Y66926626D01*
X24020706Y66944014D01*
X23835134Y67170134D01*
X23609013Y67355706D01*
X23351033Y67493599D01*
X23071110Y67578513D01*
X22780000Y67607185D01*
X22488889Y67578513D01*
X22208966Y67493599D01*
X21950986Y67355706D01*
X21724866Y67170134D01*
X21539294Y66944013D01*
X21530000Y66926626D01*
X21520706Y66944014D01*
X21335134Y67170134D01*
X21109013Y67355706D01*
X20851033Y67493599D01*
X20571110Y67578513D01*
X20280000Y67607185D01*
X19988889Y67578513D01*
X19708966Y67493599D01*
X19450986Y67355706D01*
X19224866Y67170134D01*
X19172777Y67106663D01*
X19118405Y67208386D01*
X19007962Y67342962D01*
X18873386Y67453405D01*
X18719850Y67535472D01*
X18553254Y67586008D01*
X18380000Y67603072D01*
X17180000Y67603072D01*
X17006746Y67586008D01*
X16840150Y67535472D01*
X16686614Y67453405D01*
X16552038Y67342962D01*
X16441595Y67208386D01*
X16359528Y67054850D01*
X16308992Y66888254D01*
X16291928Y66715000D01*
X16291928Y65365000D01*
X16308992Y65191746D01*
X16359528Y65025150D01*
X16441595Y64871614D01*
X16552038Y64737038D01*
X16686614Y64626595D01*
X16840150Y64544528D01*
X17006746Y64493992D01*
X17180000Y64476928D01*
X18380000Y64476928D01*
X18553254Y64493992D01*
X18719850Y64544528D01*
X18873386Y64626595D01*
X19007962Y64737038D01*
X19118405Y64871614D01*
X19172777Y64973337D01*
X19224866Y64909866D01*
X19450987Y64724294D01*
X19520000Y64687406D01*
X19520001Y60086873D01*
X19227777Y60145000D01*
X18872223Y60145000D01*
X18523501Y60075635D01*
X18195012Y59939571D01*
X17899379Y59742035D01*
X17647965Y59490621D01*
X17450429Y59194988D01*
X17314365Y58866499D01*
X17245000Y58517777D01*
X17245000Y58162223D01*
X17314365Y57813501D01*
X17450429Y57485012D01*
X17647965Y57189379D01*
X17899379Y56937965D01*
X18195012Y56740429D01*
X18523501Y56604365D01*
X18872223Y56535000D01*
X19227777Y56535000D01*
X19576499Y56604365D01*
X19785001Y56690729D01*
X19785002Y54989271D01*
X19576499Y55075635D01*
X19227777Y55145000D01*
X18872223Y55145000D01*
X18523501Y55075635D01*
X18195012Y54939571D01*
X17899379Y54742035D01*
X17647965Y54490621D01*
X17450429Y54194988D01*
X17314365Y53866499D01*
X17245000Y53517777D01*
X17245000Y53162223D01*
X17314365Y52813501D01*
X17450429Y52485012D01*
X17647965Y52189379D01*
X17899379Y51937965D01*
X18195012Y51740429D01*
X18523501Y51604365D01*
X18621450Y51584882D01*
X15012982Y47976414D01*
X14884759Y48104637D01*
X14649727Y48261680D01*
X14388574Y48369853D01*
X14111335Y48425000D01*
X13828665Y48425000D01*
X13551426Y48369853D01*
X13290273Y48261680D01*
X13055241Y48104637D01*
X12855363Y47904759D01*
X12698320Y47669727D01*
X12590147Y47408574D01*
X12535000Y47131335D01*
X12535000Y46848665D01*
X12590147Y46571426D01*
X12698320Y46310273D01*
X12855363Y46075241D01*
X13055241Y45875363D01*
X13287759Y45720000D01*
X13055241Y45564637D01*
X12855363Y45364759D01*
X12698320Y45129727D01*
X12590147Y44868574D01*
X12535000Y44591335D01*
X12535000Y44308665D01*
X12590147Y44031426D01*
X12698320Y43770273D01*
X12855363Y43535241D01*
X13055241Y43335363D01*
X13287759Y43180000D01*
X13055241Y43024637D01*
X12855363Y42824759D01*
X12698320Y42589727D01*
X12590147Y42328574D01*
X12535000Y42051335D01*
X12535000Y41768665D01*
X12590147Y41491426D01*
X12698320Y41230273D01*
X12855363Y40995241D01*
X13055241Y40795363D01*
X13287759Y40640000D01*
X13055241Y40484637D01*
X12855363Y40284759D01*
X12698320Y40049727D01*
X12590147Y39788574D01*
X12535000Y39511335D01*
X12535000Y39228665D01*
X12590147Y38951426D01*
X12698320Y38690273D01*
X12855363Y38455241D01*
X13055241Y38255363D01*
X13290273Y38098320D01*
X13551426Y37990147D01*
X13828665Y37935000D01*
X14111335Y37935000D01*
X14335001Y37979491D01*
X14335002Y34458072D01*
X13170000Y34458072D01*
X13045518Y34445812D01*
X12925820Y34409502D01*
X12815506Y34350537D01*
X12718815Y34271185D01*
X12639463Y34174494D01*
X12580498Y34064180D01*
X12544188Y33944482D01*
X12531928Y33820000D01*
X12531928Y32220000D01*
X12544188Y32095518D01*
X12580498Y31975820D01*
X12639463Y31865506D01*
X12718815Y31768815D01*
X12815506Y31689463D01*
X12925820Y31630498D01*
X13045518Y31594188D01*
X13053961Y31593357D01*
X12855363Y31394759D01*
X12698320Y31159727D01*
X12590147Y30898574D01*
X12535000Y30621335D01*
X12535000Y30338665D01*
X12571312Y30156114D01*
X12189003Y29773804D01*
X12159999Y29750001D01*
X12118944Y29699975D01*
X12065026Y29634276D01*
X12049379Y29605002D01*
X11994454Y29502246D01*
X11950997Y29358985D01*
X11940000Y29247332D01*
X11940000Y29247322D01*
X11936324Y29210000D01*
X11557000Y29210000D01*
X11557000Y56017777D01*
X12245000Y56017777D01*
X12245000Y55662223D01*
X12314365Y55313501D01*
X12450429Y54985012D01*
X12647965Y54689379D01*
X12899379Y54437965D01*
X13195012Y54240429D01*
X13523501Y54104365D01*
X13872223Y54035000D01*
X14227777Y54035000D01*
X14576499Y54104365D01*
X14904988Y54240429D01*
X15200621Y54437965D01*
X15452035Y54689379D01*
X15649571Y54985012D01*
X15785635Y55313501D01*
X15855000Y55662223D01*
X15855000Y56017777D01*
X15785635Y56366499D01*
X15649571Y56694988D01*
X15452035Y56990621D01*
X15200621Y57242035D01*
X14904988Y57439571D01*
X14576499Y57575635D01*
X14227777Y57645000D01*
X13872223Y57645000D01*
X13523501Y57575635D01*
X13195012Y57439571D01*
X12899379Y57242035D01*
X12647965Y56990621D01*
X12450429Y56694988D01*
X12314365Y56366499D01*
X12245000Y56017777D01*
X11557000Y56017777D01*
X11557000Y74335000D01*
X16291928Y74335000D01*
X16291928Y72985000D01*
X16308992Y72811746D01*
X16359528Y72645150D01*
X16441595Y72491614D01*
X16552038Y72357038D01*
X16686614Y72246595D01*
X16840150Y72164528D01*
X17006746Y72113992D01*
X17180000Y72096928D01*
X18380000Y72096928D01*
X18553254Y72113992D01*
X18719850Y72164528D01*
X18873386Y72246595D01*
X19007962Y72357038D01*
X19118405Y72491614D01*
X19172777Y72593337D01*
X19224866Y72529866D01*
X19450987Y72344294D01*
X19708967Y72206401D01*
X19988890Y72121487D01*
X20280000Y72092815D01*
X20571111Y72121487D01*
X20851034Y72206401D01*
X21109014Y72344294D01*
X21335134Y72529866D01*
X21520706Y72755987D01*
X21530000Y72773374D01*
X21539294Y72755986D01*
X21724866Y72529866D01*
X21950987Y72344294D01*
X22208967Y72206401D01*
X22488890Y72121487D01*
X22780000Y72092815D01*
X23071111Y72121487D01*
X23351034Y72206401D01*
X23609014Y72344294D01*
X23835134Y72529866D01*
X24020706Y72755987D01*
X24030000Y72773374D01*
X24039294Y72755986D01*
X24224866Y72529866D01*
X24450987Y72344294D01*
X24708967Y72206401D01*
X24988890Y72121487D01*
X25280000Y72092815D01*
X25571111Y72121487D01*
X25851034Y72206401D01*
X26109014Y72344294D01*
X26335134Y72529866D01*
X26520706Y72755987D01*
X26658599Y73013967D01*
X26743513Y73293890D01*
X26765000Y73512051D01*
X26765000Y73807950D01*
X26743513Y74026111D01*
X26658599Y74306034D01*
X26643117Y74335000D01*
X30261928Y74335000D01*
X30261928Y72985000D01*
X30278992Y72811746D01*
X30329528Y72645150D01*
X30411595Y72491614D01*
X30522038Y72357038D01*
X30656614Y72246595D01*
X30810150Y72164528D01*
X30976746Y72113992D01*
X31150000Y72096928D01*
X32350000Y72096928D01*
X32523254Y72113992D01*
X32689850Y72164528D01*
X32843386Y72246595D01*
X32977962Y72357038D01*
X33088405Y72491614D01*
X33142777Y72593337D01*
X33194866Y72529866D01*
X33420987Y72344294D01*
X33678967Y72206401D01*
X33958890Y72121487D01*
X34250000Y72092815D01*
X34541111Y72121487D01*
X34821034Y72206401D01*
X35079014Y72344294D01*
X35305134Y72529866D01*
X35490706Y72755987D01*
X35500000Y72773374D01*
X35509294Y72755986D01*
X35694866Y72529866D01*
X35920987Y72344294D01*
X36178967Y72206401D01*
X36458890Y72121487D01*
X36750000Y72092815D01*
X37041111Y72121487D01*
X37321034Y72206401D01*
X37579014Y72344294D01*
X37805134Y72529866D01*
X37990706Y72755987D01*
X38000000Y72773374D01*
X38009294Y72755986D01*
X38194866Y72529866D01*
X38420987Y72344294D01*
X38678967Y72206401D01*
X38958890Y72121487D01*
X39250000Y72092815D01*
X39541111Y72121487D01*
X39821034Y72206401D01*
X40079014Y72344294D01*
X40305134Y72529866D01*
X40490706Y72755987D01*
X40628599Y73013967D01*
X40713513Y73293890D01*
X40735000Y73512051D01*
X40735000Y73807950D01*
X40713513Y74026111D01*
X40628599Y74306034D01*
X40490706Y74564014D01*
X40305134Y74790134D01*
X40079013Y74975706D01*
X39821033Y75113599D01*
X39541110Y75198513D01*
X39250000Y75227185D01*
X38958889Y75198513D01*
X38678966Y75113599D01*
X38420986Y74975706D01*
X38194866Y74790134D01*
X38009294Y74564013D01*
X38000000Y74546626D01*
X37990706Y74564014D01*
X37805134Y74790134D01*
X37579013Y74975706D01*
X37321033Y75113599D01*
X37041110Y75198513D01*
X36750000Y75227185D01*
X36458889Y75198513D01*
X36178966Y75113599D01*
X35920986Y74975706D01*
X35694866Y74790134D01*
X35509294Y74564013D01*
X35500000Y74546626D01*
X35490706Y74564014D01*
X35305134Y74790134D01*
X35079013Y74975706D01*
X34821033Y75113599D01*
X34541110Y75198513D01*
X34250000Y75227185D01*
X33958889Y75198513D01*
X33678966Y75113599D01*
X33420986Y74975706D01*
X33194866Y74790134D01*
X33142777Y74726663D01*
X33088405Y74828386D01*
X32977962Y74962962D01*
X32843386Y75073405D01*
X32689850Y75155472D01*
X32523254Y75206008D01*
X32350000Y75223072D01*
X31150000Y75223072D01*
X30976746Y75206008D01*
X30810150Y75155472D01*
X30656614Y75073405D01*
X30522038Y74962962D01*
X30411595Y74828386D01*
X30329528Y74674850D01*
X30278992Y74508254D01*
X30261928Y74335000D01*
X26643117Y74335000D01*
X26520706Y74564014D01*
X26335134Y74790134D01*
X26109013Y74975706D01*
X25851033Y75113599D01*
X25571110Y75198513D01*
X25280000Y75227185D01*
X24988889Y75198513D01*
X24708966Y75113599D01*
X24450986Y74975706D01*
X24224866Y74790134D01*
X24039294Y74564013D01*
X24030000Y74546626D01*
X24020706Y74564014D01*
X23835134Y74790134D01*
X23609013Y74975706D01*
X23351033Y75113599D01*
X23071110Y75198513D01*
X22780000Y75227185D01*
X22488889Y75198513D01*
X22208966Y75113599D01*
X21950986Y74975706D01*
X21724866Y74790134D01*
X21539294Y74564013D01*
X21530000Y74546626D01*
X21520706Y74564014D01*
X21335134Y74790134D01*
X21109013Y74975706D01*
X20851033Y75113599D01*
X20571110Y75198513D01*
X20280000Y75227185D01*
X19988889Y75198513D01*
X19708966Y75113599D01*
X19450986Y74975706D01*
X19224866Y74790134D01*
X19172777Y74726663D01*
X19118405Y74828386D01*
X19007962Y74962962D01*
X18873386Y75073405D01*
X18719850Y75155472D01*
X18553254Y75206008D01*
X18380000Y75223072D01*
X17180000Y75223072D01*
X17006746Y75206008D01*
X16840150Y75155472D01*
X16686614Y75073405D01*
X16552038Y74962962D01*
X16441595Y74828386D01*
X16359528Y74674850D01*
X16308992Y74508254D01*
X16291928Y74335000D01*
X11557000Y74335000D01*
X11557000Y77343000D01*
X69723000Y77343000D01*
X69723000Y69850000D01*
G36*
X33147000Y15367000D02*
G01*
X33167000Y15367000D01*
X33167000Y15113000D01*
X33147000Y15113000D01*
X33147000Y15093000D01*
X32893000Y15093000D01*
X32893000Y15113000D01*
X32873000Y15113000D01*
X32873000Y15367000D01*
X32893000Y15367000D01*
X32893000Y15387000D01*
X33147000Y15387000D01*
X33147000Y15367000D01*
G37*
X33147000Y15367000D02*
X33167000Y15367000D01*
X33167000Y15113000D01*
X33147000Y15113000D01*
X33147000Y15093000D01*
X32893000Y15093000D01*
X32893000Y15113000D01*
X32873000Y15113000D01*
X32873000Y15367000D01*
X32893000Y15367000D01*
X32893000Y15387000D01*
X33147000Y15387000D01*
X33147000Y15367000D01*
G36*
X50993748Y26124142D02*
G01*
X50979605Y26110000D01*
X50993748Y26095857D01*
X50814143Y25916252D01*
X50800000Y25930395D01*
X50001184Y25131579D01*
X50070345Y24889651D01*
X50172279Y24841575D01*
X50129746Y24823957D01*
X49897990Y24669103D01*
X49700897Y24472010D01*
X49602235Y24324352D01*
X49547928Y24319003D01*
X49404667Y24275546D01*
X49272637Y24204974D01*
X49227692Y24168088D01*
X49156913Y24110001D01*
X49133115Y24081003D01*
X46705001Y21652888D01*
X46705001Y23313286D01*
X49386505Y25994789D01*
X49421140Y25763028D01*
X49515325Y25500692D01*
X49579651Y25380345D01*
X49821579Y25311184D01*
X50620395Y26110000D01*
X50606253Y26124142D01*
X50785858Y26303747D01*
X50800000Y26289605D01*
X50814143Y26303747D01*
X50993748Y26124142D01*
G37*
X50993748Y26124142D02*
X50979605Y26110000D01*
X50993748Y26095857D01*
X50814143Y25916252D01*
X50800000Y25930395D01*
X50001184Y25131579D01*
X50070345Y24889651D01*
X50172279Y24841575D01*
X50129746Y24823957D01*
X49897990Y24669103D01*
X49700897Y24472010D01*
X49602235Y24324352D01*
X49547928Y24319003D01*
X49404667Y24275546D01*
X49272637Y24204974D01*
X49227692Y24168088D01*
X49156913Y24110001D01*
X49133115Y24081003D01*
X46705001Y21652888D01*
X46705001Y23313286D01*
X49386505Y25994789D01*
X49421140Y25763028D01*
X49515325Y25500692D01*
X49579651Y25380345D01*
X49821579Y25311184D01*
X50620395Y26110000D01*
X50606253Y26124142D01*
X50785858Y26303747D01*
X50800000Y26289605D01*
X50814143Y26303747D01*
X50993748Y26124142D01*
M02*
