G04 #@! TF.GenerationSoftware,KiCad,Pcbnew,(5.1.5-0-10_14)*
G04 #@! TF.CreationDate,2020-02-05T16:48:16+09:00*
G04 #@! TF.ProjectId,baloon-markII,62616c6f-6f6e-42d6-9d61-726b49492e6b,rev?*
G04 #@! TF.SameCoordinates,PX258bd10PY730f910*
G04 #@! TF.FileFunction,Legend,Top*
G04 #@! TF.FilePolarity,Positive*
%FSLAX46Y46*%
G04 Gerber Fmt 4.6, Leading zero omitted, Abs format (unit mm)*
G04 Created by KiCad (PCBNEW (5.1.5-0-10_14)) date 2020-02-05 16:48:16*
%MOMM*%
%LPD*%
G04 APERTURE LIST*
%ADD10C,0.150000*%
%ADD11C,0.120000*%
%ADD12C,0.127000*%
%ADD13C,0.015000*%
%ADD14O,2.200000X2.105000*%
%ADD15R,2.200000X2.105000*%
%ADD16O,3.700000X3.700000*%
%ADD17C,1.760000*%
%ADD18R,1.760000X1.760000*%
%ADD19O,1.600000X1.600000*%
%ADD20C,1.600000*%
%ADD21C,3.400000*%
%ADD22O,1.900000X2.050000*%
%ADD23C,0.100000*%
%ADD24C,2.540000*%
%ADD25R,1.500000X1.500000*%
%ADD26C,1.500000*%
%ADD27C,1.800000*%
%ADD28O,1.800000X1.800000*%
%ADD29R,1.800000X1.800000*%
G04 APERTURE END LIST*
D10*
X51213333Y71572381D02*
X51260952Y71620000D01*
X51356190Y71667620D01*
X51594285Y71667620D01*
X51689523Y71620000D01*
X51737142Y71572381D01*
X51784761Y71477143D01*
X51784761Y71381905D01*
X51737142Y71239048D01*
X51165714Y70667620D01*
X51784761Y70667620D01*
X52403809Y71667620D02*
X52499047Y71667620D01*
X52594285Y71620000D01*
X52641904Y71572381D01*
X52689523Y71477143D01*
X52737142Y71286667D01*
X52737142Y71048572D01*
X52689523Y70858096D01*
X52641904Y70762858D01*
X52594285Y70715239D01*
X52499047Y70667620D01*
X52403809Y70667620D01*
X52308571Y70715239D01*
X52260952Y70762858D01*
X52213333Y70858096D01*
X52165714Y71048572D01*
X52165714Y71286667D01*
X52213333Y71477143D01*
X52260952Y71572381D01*
X52308571Y71620000D01*
X52403809Y71667620D01*
X53118095Y71572381D02*
X53165714Y71620000D01*
X53260952Y71667620D01*
X53499047Y71667620D01*
X53594285Y71620000D01*
X53641904Y71572381D01*
X53689523Y71477143D01*
X53689523Y71381905D01*
X53641904Y71239048D01*
X53070476Y70667620D01*
X53689523Y70667620D01*
X54308571Y71667620D02*
X54403809Y71667620D01*
X54499047Y71620000D01*
X54546666Y71572381D01*
X54594285Y71477143D01*
X54641904Y71286667D01*
X54641904Y71048572D01*
X54594285Y70858096D01*
X54546666Y70762858D01*
X54499047Y70715239D01*
X54403809Y70667620D01*
X54308571Y70667620D01*
X54213333Y70715239D01*
X54165714Y70762858D01*
X54118095Y70858096D01*
X54070476Y71048572D01*
X54070476Y71286667D01*
X54118095Y71477143D01*
X54165714Y71572381D01*
X54213333Y71620000D01*
X54308571Y71667620D01*
X55784761Y71715239D02*
X54927619Y70429524D01*
X56308571Y71667620D02*
X56403809Y71667620D01*
X56499047Y71620000D01*
X56546666Y71572381D01*
X56594285Y71477143D01*
X56641904Y71286667D01*
X56641904Y71048572D01*
X56594285Y70858096D01*
X56546666Y70762858D01*
X56499047Y70715239D01*
X56403809Y70667620D01*
X56308571Y70667620D01*
X56213333Y70715239D01*
X56165714Y70762858D01*
X56118095Y70858096D01*
X56070476Y71048572D01*
X56070476Y71286667D01*
X56118095Y71477143D01*
X56165714Y71572381D01*
X56213333Y71620000D01*
X56308571Y71667620D01*
X57022857Y71572381D02*
X57070476Y71620000D01*
X57165714Y71667620D01*
X57403809Y71667620D01*
X57499047Y71620000D01*
X57546666Y71572381D01*
X57594285Y71477143D01*
X57594285Y71381905D01*
X57546666Y71239048D01*
X56975238Y70667620D01*
X57594285Y70667620D01*
X58737142Y71715239D02*
X57880000Y70429524D01*
X59260952Y71667620D02*
X59356190Y71667620D01*
X59451428Y71620000D01*
X59499047Y71572381D01*
X59546666Y71477143D01*
X59594285Y71286667D01*
X59594285Y71048572D01*
X59546666Y70858096D01*
X59499047Y70762858D01*
X59451428Y70715239D01*
X59356190Y70667620D01*
X59260952Y70667620D01*
X59165714Y70715239D01*
X59118095Y70762858D01*
X59070476Y70858096D01*
X59022857Y71048572D01*
X59022857Y71286667D01*
X59070476Y71477143D01*
X59118095Y71572381D01*
X59165714Y71620000D01*
X59260952Y71667620D01*
X60499047Y71667620D02*
X60022857Y71667620D01*
X59975238Y71191429D01*
X60022857Y71239048D01*
X60118095Y71286667D01*
X60356190Y71286667D01*
X60451428Y71239048D01*
X60499047Y71191429D01*
X60546666Y71096191D01*
X60546666Y70858096D01*
X60499047Y70762858D01*
X60451428Y70715239D01*
X60356190Y70667620D01*
X60118095Y70667620D01*
X60022857Y70715239D01*
X59975238Y70762858D01*
X48272857Y75594286D02*
X48201428Y75522858D01*
X47987142Y75451429D01*
X47844285Y75451429D01*
X47630000Y75522858D01*
X47487142Y75665715D01*
X47415714Y75808572D01*
X47344285Y76094286D01*
X47344285Y76308572D01*
X47415714Y76594286D01*
X47487142Y76737143D01*
X47630000Y76880000D01*
X47844285Y76951429D01*
X47987142Y76951429D01*
X48201428Y76880000D01*
X48272857Y76808572D01*
X49130000Y75451429D02*
X48987142Y75522858D01*
X48915714Y75594286D01*
X48844285Y75737143D01*
X48844285Y76165715D01*
X48915714Y76308572D01*
X48987142Y76380000D01*
X49130000Y76451429D01*
X49344285Y76451429D01*
X49487142Y76380000D01*
X49558571Y76308572D01*
X49630000Y76165715D01*
X49630000Y75737143D01*
X49558571Y75594286D01*
X49487142Y75522858D01*
X49344285Y75451429D01*
X49130000Y75451429D01*
X50272857Y75451429D02*
X50272857Y76451429D01*
X50272857Y76308572D02*
X50344285Y76380000D01*
X50487142Y76451429D01*
X50701428Y76451429D01*
X50844285Y76380000D01*
X50915714Y76237143D01*
X50915714Y75451429D01*
X50915714Y76237143D02*
X50987142Y76380000D01*
X51130000Y76451429D01*
X51344285Y76451429D01*
X51487142Y76380000D01*
X51558571Y76237143D01*
X51558571Y75451429D01*
X52272857Y75451429D02*
X52272857Y76451429D01*
X52272857Y76308572D02*
X52344285Y76380000D01*
X52487142Y76451429D01*
X52701428Y76451429D01*
X52844285Y76380000D01*
X52915714Y76237143D01*
X52915714Y75451429D01*
X52915714Y76237143D02*
X52987142Y76380000D01*
X53130000Y76451429D01*
X53344285Y76451429D01*
X53487142Y76380000D01*
X53558571Y76237143D01*
X53558571Y75451429D01*
X54487142Y75451429D02*
X54344285Y75522858D01*
X54272857Y75594286D01*
X54201428Y75737143D01*
X54201428Y76165715D01*
X54272857Y76308572D01*
X54344285Y76380000D01*
X54487142Y76451429D01*
X54701428Y76451429D01*
X54844285Y76380000D01*
X54915714Y76308572D01*
X54987142Y76165715D01*
X54987142Y75737143D01*
X54915714Y75594286D01*
X54844285Y75522858D01*
X54701428Y75451429D01*
X54487142Y75451429D01*
X55630000Y76451429D02*
X55630000Y75451429D01*
X55630000Y76308572D02*
X55701428Y76380000D01*
X55844285Y76451429D01*
X56058571Y76451429D01*
X56201428Y76380000D01*
X56272857Y76237143D01*
X56272857Y75451429D01*
X56915714Y75522858D02*
X57058571Y75451429D01*
X57344285Y75451429D01*
X57487142Y75522858D01*
X57558571Y75665715D01*
X57558571Y75737143D01*
X57487142Y75880000D01*
X57344285Y75951429D01*
X57130000Y75951429D01*
X56987142Y76022858D01*
X56915714Y76165715D01*
X56915714Y76237143D01*
X56987142Y76380000D01*
X57130000Y76451429D01*
X57344285Y76451429D01*
X57487142Y76380000D01*
X59272857Y76808572D02*
X59344285Y76880000D01*
X59487142Y76951429D01*
X59844285Y76951429D01*
X59987142Y76880000D01*
X60058571Y76808572D01*
X60130000Y76665715D01*
X60130000Y76522858D01*
X60058571Y76308572D01*
X59201428Y75451429D01*
X60130000Y75451429D01*
X61058571Y76951429D02*
X61201428Y76951429D01*
X61344285Y76880000D01*
X61415714Y76808572D01*
X61487142Y76665715D01*
X61558571Y76380000D01*
X61558571Y76022858D01*
X61487142Y75737143D01*
X61415714Y75594286D01*
X61344285Y75522858D01*
X61201428Y75451429D01*
X61058571Y75451429D01*
X60915714Y75522858D01*
X60844285Y75594286D01*
X60772857Y75737143D01*
X60701428Y76022858D01*
X60701428Y76380000D01*
X60772857Y76665715D01*
X60844285Y76808572D01*
X60915714Y76880000D01*
X61058571Y76951429D01*
X62987142Y75451429D02*
X62130000Y75451429D01*
X62558571Y75451429D02*
X62558571Y76951429D01*
X62415714Y76737143D01*
X62272857Y76594286D01*
X62130000Y76522858D01*
X63701428Y75451429D02*
X63987142Y75451429D01*
X64130000Y75522858D01*
X64201428Y75594286D01*
X64344285Y75808572D01*
X64415714Y76094286D01*
X64415714Y76665715D01*
X64344285Y76808572D01*
X64272857Y76880000D01*
X64130000Y76951429D01*
X63844285Y76951429D01*
X63701428Y76880000D01*
X63630000Y76808572D01*
X63558571Y76665715D01*
X63558571Y76308572D01*
X63630000Y76165715D01*
X63701428Y76094286D01*
X63844285Y76022858D01*
X64130000Y76022858D01*
X64272857Y76094286D01*
X64344285Y76165715D01*
X64415714Y76308572D01*
X46344285Y73837143D02*
X46558571Y73765715D01*
X46630000Y73694286D01*
X46701428Y73551429D01*
X46701428Y73337143D01*
X46630000Y73194286D01*
X46558571Y73122858D01*
X46415714Y73051429D01*
X45844285Y73051429D01*
X45844285Y74551429D01*
X46344285Y74551429D01*
X46487142Y74480000D01*
X46558571Y74408572D01*
X46630000Y74265715D01*
X46630000Y74122858D01*
X46558571Y73980000D01*
X46487142Y73908572D01*
X46344285Y73837143D01*
X45844285Y73837143D01*
X47987142Y73051429D02*
X47987142Y73837143D01*
X47915714Y73980000D01*
X47772857Y74051429D01*
X47487142Y74051429D01*
X47344285Y73980000D01*
X47987142Y73122858D02*
X47844285Y73051429D01*
X47487142Y73051429D01*
X47344285Y73122858D01*
X47272857Y73265715D01*
X47272857Y73408572D01*
X47344285Y73551429D01*
X47487142Y73622858D01*
X47844285Y73622858D01*
X47987142Y73694286D01*
X48915714Y73051429D02*
X48772857Y73122858D01*
X48701428Y73265715D01*
X48701428Y74551429D01*
X49701428Y73051429D02*
X49558571Y73122858D01*
X49487142Y73265715D01*
X49487142Y74551429D01*
X50487142Y73051429D02*
X50344285Y73122858D01*
X50272857Y73194286D01*
X50201428Y73337143D01*
X50201428Y73765715D01*
X50272857Y73908572D01*
X50344285Y73980000D01*
X50487142Y74051429D01*
X50701428Y74051429D01*
X50844285Y73980000D01*
X50915714Y73908572D01*
X50987142Y73765715D01*
X50987142Y73337143D01*
X50915714Y73194286D01*
X50844285Y73122858D01*
X50701428Y73051429D01*
X50487142Y73051429D01*
X51844285Y73051429D02*
X51701428Y73122858D01*
X51630000Y73194286D01*
X51558571Y73337143D01*
X51558571Y73765715D01*
X51630000Y73908572D01*
X51701428Y73980000D01*
X51844285Y74051429D01*
X52058571Y74051429D01*
X52201428Y73980000D01*
X52272857Y73908572D01*
X52344285Y73765715D01*
X52344285Y73337143D01*
X52272857Y73194286D01*
X52201428Y73122858D01*
X52058571Y73051429D01*
X51844285Y73051429D01*
X52987142Y74051429D02*
X52987142Y73051429D01*
X52987142Y73908572D02*
X53058571Y73980000D01*
X53201428Y74051429D01*
X53415714Y74051429D01*
X53558571Y73980000D01*
X53630000Y73837143D01*
X53630000Y73051429D01*
X56344285Y73194286D02*
X56272857Y73122858D01*
X56058571Y73051429D01*
X55915714Y73051429D01*
X55701428Y73122858D01*
X55558571Y73265715D01*
X55487142Y73408572D01*
X55415714Y73694286D01*
X55415714Y73908572D01*
X55487142Y74194286D01*
X55558571Y74337143D01*
X55701428Y74480000D01*
X55915714Y74551429D01*
X56058571Y74551429D01*
X56272857Y74480000D01*
X56344285Y74408572D01*
X57201428Y73051429D02*
X57058571Y73122858D01*
X56987142Y73194286D01*
X56915714Y73337143D01*
X56915714Y73765715D01*
X56987142Y73908572D01*
X57058571Y73980000D01*
X57201428Y74051429D01*
X57415714Y74051429D01*
X57558571Y73980000D01*
X57630000Y73908572D01*
X57701428Y73765715D01*
X57701428Y73337143D01*
X57630000Y73194286D01*
X57558571Y73122858D01*
X57415714Y73051429D01*
X57201428Y73051429D01*
X58344285Y74051429D02*
X58344285Y73051429D01*
X58344285Y73908572D02*
X58415714Y73980000D01*
X58558571Y74051429D01*
X58772857Y74051429D01*
X58915714Y73980000D01*
X58987142Y73837143D01*
X58987142Y73051429D01*
X59487142Y74051429D02*
X60058571Y74051429D01*
X59701428Y74551429D02*
X59701428Y73265715D01*
X59772857Y73122858D01*
X59915714Y73051429D01*
X60058571Y73051429D01*
X60558571Y73051429D02*
X60558571Y74051429D01*
X60558571Y73765715D02*
X60630000Y73908572D01*
X60701428Y73980000D01*
X60844285Y74051429D01*
X60987142Y74051429D01*
X61701428Y73051429D02*
X61558571Y73122858D01*
X61487142Y73194286D01*
X61415714Y73337143D01*
X61415714Y73765715D01*
X61487142Y73908572D01*
X61558571Y73980000D01*
X61701428Y74051429D01*
X61915714Y74051429D01*
X62058571Y73980000D01*
X62130000Y73908572D01*
X62201428Y73765715D01*
X62201428Y73337143D01*
X62130000Y73194286D01*
X62058571Y73122858D01*
X61915714Y73051429D01*
X61701428Y73051429D01*
X63058571Y73051429D02*
X62915714Y73122858D01*
X62844285Y73265715D01*
X62844285Y74551429D01*
X63844285Y73051429D02*
X63701428Y73122858D01*
X63630000Y73265715D01*
X63630000Y74551429D01*
X64987142Y73122858D02*
X64844285Y73051429D01*
X64558571Y73051429D01*
X64415714Y73122858D01*
X64344285Y73265715D01*
X64344285Y73837143D01*
X64415714Y73980000D01*
X64558571Y74051429D01*
X64844285Y74051429D01*
X64987142Y73980000D01*
X65058571Y73837143D01*
X65058571Y73694286D01*
X64344285Y73551429D01*
X65701428Y73051429D02*
X65701428Y74051429D01*
X65701428Y73765715D02*
X65772857Y73908572D01*
X65844285Y73980000D01*
X65987142Y74051429D01*
X66130000Y74051429D01*
D11*
X51370000Y3810000D02*
X49410000Y3810000D01*
X51370000Y6350000D02*
X49410000Y6350000D01*
X51370000Y8890000D02*
X49410000Y8890000D01*
X67480000Y1100000D02*
X51370000Y1100000D01*
X67480000Y11600000D02*
X51370000Y11600000D01*
X67480000Y11600000D02*
X67480000Y1100000D01*
X51370000Y11600000D02*
X51370000Y1100000D01*
D12*
X77450000Y12120000D02*
X49550000Y12120000D01*
X77450000Y66520000D02*
X77450000Y12120000D01*
X49550000Y66520000D02*
X77450000Y66520000D01*
X49550000Y12120000D02*
X49550000Y66520000D01*
D11*
X33020000Y52400000D02*
X33020000Y51450000D01*
X33020000Y46660000D02*
X33020000Y47610000D01*
X32100000Y51450000D02*
X32100000Y47610000D01*
X33940000Y51450000D02*
X32100000Y51450000D01*
X33940000Y47610000D02*
X33940000Y51450000D01*
X32100000Y47610000D02*
X33940000Y47610000D01*
X28890000Y71450000D02*
X31300000Y71450000D01*
X28890000Y73860000D02*
X28890000Y71450000D01*
X41810000Y76870000D02*
X29190000Y76870000D01*
X41810000Y72750000D02*
X41810000Y76870000D01*
X40810000Y71750000D02*
X41810000Y72750000D01*
X29190000Y71750000D02*
X40810000Y71750000D01*
X29190000Y76870000D02*
X29190000Y71750000D01*
X28890000Y63830000D02*
X31300000Y63830000D01*
X28890000Y66240000D02*
X28890000Y63830000D01*
X41810000Y69250000D02*
X29190000Y69250000D01*
X41810000Y65130000D02*
X41810000Y69250000D01*
X40810000Y64130000D02*
X41810000Y65130000D01*
X29190000Y64130000D02*
X40810000Y64130000D01*
X29190000Y69250000D02*
X29190000Y64130000D01*
X14920000Y71450000D02*
X17330000Y71450000D01*
X14920000Y73860000D02*
X14920000Y71450000D01*
X27840000Y76870000D02*
X15220000Y76870000D01*
X27840000Y72750000D02*
X27840000Y76870000D01*
X26840000Y71750000D02*
X27840000Y72750000D01*
X15220000Y71750000D02*
X26840000Y71750000D01*
X15220000Y76870000D02*
X15220000Y71750000D01*
X14920000Y63830000D02*
X17330000Y63830000D01*
X14920000Y66240000D02*
X14920000Y63830000D01*
X27840000Y69250000D02*
X15220000Y69250000D01*
X27840000Y65130000D02*
X27840000Y69250000D01*
X26840000Y64130000D02*
X27840000Y65130000D01*
X15220000Y64130000D02*
X26840000Y64130000D01*
X15220000Y69250000D02*
X15220000Y64130000D01*
X14130000Y57265000D02*
X14130000Y57460000D01*
X14130000Y54220000D02*
X14130000Y54415000D01*
X19171000Y54766000D02*
X19171000Y56915000D01*
X17813000Y57460000D02*
X14130000Y57460000D01*
X17813000Y54220000D02*
X14130000Y54220000D01*
X19171000Y54766000D02*
X19171000Y56915000D01*
X19171000Y50819000D02*
X19171000Y51914000D01*
X19171000Y59765000D02*
X19171000Y60860000D01*
X14130000Y57265000D02*
X14130000Y60860000D01*
X14130000Y50819000D02*
X14130000Y54415000D01*
X19171000Y60860000D02*
X14130000Y60860000D01*
X19171000Y50819000D02*
X14130000Y50819000D01*
X31181522Y55311522D02*
G75*
G03X35620000Y57150000I1838478J1838478D01*
G01*
X31181522Y58988478D02*
G75*
G02X35620000Y57150000I1838478J-1838478D01*
G01*
X31170000Y58950000D02*
X31170000Y55350000D01*
X33945000Y43720000D02*
X34390000Y43720000D01*
X31650000Y43720000D02*
X32095000Y43720000D01*
X33945000Y37480000D02*
X34390000Y37480000D01*
X31650000Y37480000D02*
X32095000Y37480000D01*
X34390000Y37480000D02*
X34390000Y43720000D01*
X31650000Y37480000D02*
X31650000Y43720000D01*
X24475000Y27400000D02*
X24030000Y27400000D01*
X26770000Y27400000D02*
X26325000Y27400000D01*
X24475000Y33640000D02*
X24030000Y33640000D01*
X26770000Y33640000D02*
X26325000Y33640000D01*
X24030000Y33640000D02*
X24030000Y27400000D01*
X26770000Y33640000D02*
X26770000Y27400000D01*
X45780000Y34410000D02*
X35500000Y34410000D01*
X45780000Y24010000D02*
X45780000Y34410000D01*
X35500000Y24010000D02*
X45780000Y24010000D01*
X35500000Y34410000D02*
X35500000Y24010000D01*
X43290000Y34350000D02*
X41640000Y34350000D01*
X43290000Y24070000D02*
X43290000Y34350000D01*
X37990000Y24070000D02*
X43290000Y24070000D01*
X37990000Y34350000D02*
X37990000Y24070000D01*
X39640000Y34350000D02*
X37990000Y34350000D01*
X41640000Y34350000D02*
G75*
G02X39640000Y34350000I-1000000J0D01*
G01*
X39530000Y17895000D02*
X39530000Y18090000D01*
X39530000Y14850000D02*
X39530000Y15045000D01*
X44571000Y15396000D02*
X44571000Y17545000D01*
X43213000Y18090000D02*
X39530000Y18090000D01*
X43213000Y14850000D02*
X39530000Y14850000D01*
X44571000Y15396000D02*
X44571000Y17545000D01*
X44571000Y11449000D02*
X44571000Y12544000D01*
X44571000Y20395000D02*
X44571000Y21490000D01*
X39530000Y17895000D02*
X39530000Y21490000D01*
X39530000Y11449000D02*
X39530000Y15045000D01*
X44571000Y21490000D02*
X39530000Y21490000D01*
X44571000Y11449000D02*
X39530000Y11449000D01*
X33020000Y18720000D02*
X33020000Y19670000D01*
X33020000Y24460000D02*
X33020000Y23510000D01*
X33940000Y19670000D02*
X33940000Y23510000D01*
X32100000Y19670000D02*
X33940000Y19670000D01*
X32100000Y23510000D02*
X32100000Y19670000D01*
X33940000Y23510000D02*
X32100000Y23510000D01*
X31181522Y12131522D02*
G75*
G03X35620000Y13970000I1838478J1838478D01*
G01*
X31181522Y15808478D02*
G75*
G02X35620000Y13970000I1838478J-1838478D01*
G01*
X31170000Y15770000D02*
X31170000Y12170000D01*
X33945000Y33560000D02*
X34390000Y33560000D01*
X31650000Y33560000D02*
X32095000Y33560000D01*
X33945000Y27320000D02*
X34390000Y27320000D01*
X31650000Y27320000D02*
X32095000Y27320000D01*
X34390000Y27320000D02*
X34390000Y33560000D01*
X31650000Y27320000D02*
X31650000Y33560000D01*
X21310000Y2870000D02*
X23720000Y2870000D01*
X21310000Y5280000D02*
X21310000Y2870000D01*
X29230000Y8290000D02*
X21610000Y8290000D01*
X29230000Y4170000D02*
X29230000Y8290000D01*
X28230000Y3170000D02*
X29230000Y4170000D01*
X21610000Y3170000D02*
X28230000Y3170000D01*
X21610000Y8290000D02*
X21610000Y3170000D01*
X12640000Y37980000D02*
X22920000Y37980000D01*
X12640000Y48380000D02*
X12640000Y37980000D01*
X22920000Y48380000D02*
X12640000Y48380000D01*
X22920000Y37980000D02*
X22920000Y48380000D01*
X15130000Y38040000D02*
X16780000Y38040000D01*
X15130000Y48320000D02*
X15130000Y38040000D01*
X20430000Y48320000D02*
X15130000Y48320000D01*
X20430000Y38040000D02*
X20430000Y48320000D01*
X18780000Y38040000D02*
X20430000Y38040000D01*
X16780000Y38040000D02*
G75*
G02X18780000Y38040000I1000000J0D01*
G01*
X25400000Y52400000D02*
X25400000Y51450000D01*
X25400000Y46660000D02*
X25400000Y47610000D01*
X24480000Y51450000D02*
X24480000Y47610000D01*
X26320000Y51450000D02*
X24480000Y51450000D01*
X26320000Y47610000D02*
X26320000Y51450000D01*
X24480000Y47610000D02*
X26320000Y47610000D01*
X24475000Y37560000D02*
X24030000Y37560000D01*
X26770000Y37560000D02*
X26325000Y37560000D01*
X24475000Y43800000D02*
X24030000Y43800000D01*
X26770000Y43800000D02*
X26325000Y43800000D01*
X24030000Y43800000D02*
X24030000Y37560000D01*
X26770000Y43800000D02*
X26770000Y37560000D01*
X22291522Y55311522D02*
G75*
G03X26730000Y57150000I1838478J1838478D01*
G01*
X22291522Y58988478D02*
G75*
G02X26730000Y57150000I1838478J-1838478D01*
G01*
X22280000Y58950000D02*
X22280000Y55350000D01*
X35500000Y37980000D02*
X45780000Y37980000D01*
X35500000Y48380000D02*
X35500000Y37980000D01*
X45780000Y48380000D02*
X35500000Y48380000D01*
X45780000Y37980000D02*
X45780000Y48380000D01*
X37990000Y38040000D02*
X39640000Y38040000D01*
X37990000Y48320000D02*
X37990000Y38040000D01*
X43290000Y48320000D02*
X37990000Y48320000D01*
X43290000Y38040000D02*
X43290000Y48320000D01*
X41640000Y38040000D02*
X43290000Y38040000D01*
X39640000Y38040000D02*
G75*
G02X41640000Y38040000I1000000J0D01*
G01*
X22920000Y34410000D02*
X12640000Y34410000D01*
X22920000Y24010000D02*
X22920000Y34410000D01*
X12640000Y24010000D02*
X22920000Y24010000D01*
X12640000Y34410000D02*
X12640000Y24010000D01*
X20430000Y34350000D02*
X18780000Y34350000D01*
X20430000Y24070000D02*
X20430000Y34350000D01*
X15130000Y24070000D02*
X20430000Y24070000D01*
X15130000Y34350000D02*
X15130000Y24070000D01*
X16780000Y34350000D02*
X15130000Y34350000D01*
X18780000Y34350000D02*
G75*
G02X16780000Y34350000I-1000000J0D01*
G01*
X39530000Y55995000D02*
X39530000Y56190000D01*
X39530000Y52950000D02*
X39530000Y53145000D01*
X44571000Y53496000D02*
X44571000Y55645000D01*
X43213000Y56190000D02*
X39530000Y56190000D01*
X43213000Y52950000D02*
X39530000Y52950000D01*
X44571000Y53496000D02*
X44571000Y55645000D01*
X44571000Y49549000D02*
X44571000Y50644000D01*
X44571000Y58495000D02*
X44571000Y59590000D01*
X39530000Y55995000D02*
X39530000Y59590000D01*
X39530000Y49549000D02*
X39530000Y53145000D01*
X44571000Y59590000D02*
X39530000Y59590000D01*
X44571000Y49549000D02*
X39530000Y49549000D01*
X14130000Y17895000D02*
X14130000Y18090000D01*
X14130000Y14850000D02*
X14130000Y15045000D01*
X19171000Y15396000D02*
X19171000Y17545000D01*
X17813000Y18090000D02*
X14130000Y18090000D01*
X17813000Y14850000D02*
X14130000Y14850000D01*
X19171000Y15396000D02*
X19171000Y17545000D01*
X19171000Y11449000D02*
X19171000Y12544000D01*
X19171000Y20395000D02*
X19171000Y21490000D01*
X14130000Y17895000D02*
X14130000Y21490000D01*
X14130000Y11449000D02*
X14130000Y15045000D01*
X19171000Y21490000D02*
X14130000Y21490000D01*
X19171000Y11449000D02*
X14130000Y11449000D01*
X25594999Y18720000D02*
X25594999Y19670000D01*
X25594999Y24460000D02*
X25594999Y23510000D01*
X26514999Y19670000D02*
X26514999Y23510000D01*
X24674999Y19670000D02*
X26514999Y19670000D01*
X24674999Y23510000D02*
X24674999Y19670000D01*
X26514999Y23510000D02*
X24674999Y23510000D01*
X22076521Y12136521D02*
G75*
G03X26514999Y13974999I1838478J1838478D01*
G01*
X22076521Y15813477D02*
G75*
G02X26514999Y13974999I1838478J-1838478D01*
G01*
X22064999Y15774999D02*
X22064999Y12174999D01*
D10*
X67932380Y5588096D02*
X68741904Y5588096D01*
X68837142Y5635715D01*
X68884761Y5683334D01*
X68932380Y5778572D01*
X68932380Y5969048D01*
X68884761Y6064286D01*
X68837142Y6111905D01*
X68741904Y6159524D01*
X67932380Y6159524D01*
X67932380Y7064286D02*
X67932380Y6873810D01*
X67980000Y6778572D01*
X68027619Y6730953D01*
X68170476Y6635715D01*
X68360952Y6588096D01*
X68741904Y6588096D01*
X68837142Y6635715D01*
X68884761Y6683334D01*
X68932380Y6778572D01*
X68932380Y6969048D01*
X68884761Y7064286D01*
X68837142Y7111905D01*
X68741904Y7159524D01*
X68503809Y7159524D01*
X68408571Y7111905D01*
X68360952Y7064286D01*
X68313333Y6969048D01*
X68313333Y6778572D01*
X68360952Y6683334D01*
X68408571Y6635715D01*
X68503809Y6588096D01*
D13*
X51908626Y68363876D02*
X51908626Y67554040D01*
X51956263Y67458765D01*
X52003901Y67411127D01*
X52099175Y67363490D01*
X52289725Y67363490D01*
X52385000Y67411127D01*
X52432637Y67458765D01*
X52480275Y67554040D01*
X52480275Y68363876D01*
X53433023Y68363876D02*
X52956649Y68363876D01*
X52909012Y67887502D01*
X52956649Y67935139D01*
X53051924Y67982776D01*
X53290111Y67982776D01*
X53385386Y67935139D01*
X53433023Y67887502D01*
X53480661Y67792227D01*
X53480661Y67554040D01*
X53433023Y67458765D01*
X53385386Y67411127D01*
X53290111Y67363490D01*
X53051924Y67363490D01*
X52956649Y67411127D01*
X52909012Y67458765D01*
D10*
X31552380Y49363334D02*
X31076190Y49030000D01*
X31552380Y48791905D02*
X30552380Y48791905D01*
X30552380Y49172858D01*
X30600000Y49268096D01*
X30647619Y49315715D01*
X30742857Y49363334D01*
X30885714Y49363334D01*
X30980952Y49315715D01*
X31028571Y49268096D01*
X31076190Y49172858D01*
X31076190Y48791905D01*
X30885714Y50220477D02*
X31552380Y50220477D01*
X30504761Y49982381D02*
X31219047Y49744286D01*
X31219047Y50363334D01*
X74168095Y78677620D02*
X74168095Y79677620D01*
X74168095Y79201429D02*
X74739523Y79201429D01*
X74739523Y78677620D02*
X74739523Y79677620D01*
X75120476Y79677620D02*
X75739523Y79677620D01*
X75406190Y79296667D01*
X75549047Y79296667D01*
X75644285Y79249048D01*
X75691904Y79201429D01*
X75739523Y79106191D01*
X75739523Y78868096D01*
X75691904Y78772858D01*
X75644285Y78725239D01*
X75549047Y78677620D01*
X75263333Y78677620D01*
X75168095Y78725239D01*
X75120476Y78772858D01*
X4318095Y78677620D02*
X4318095Y79677620D01*
X4318095Y79201429D02*
X4889523Y79201429D01*
X4889523Y78677620D02*
X4889523Y79677620D01*
X5889523Y78677620D02*
X5318095Y78677620D01*
X5603809Y78677620D02*
X5603809Y79677620D01*
X5508571Y79534762D01*
X5413333Y79439524D01*
X5318095Y79391905D01*
X4318095Y8827620D02*
X4318095Y9827620D01*
X4318095Y9351429D02*
X4889523Y9351429D01*
X4889523Y8827620D02*
X4889523Y9827620D01*
X5318095Y9732381D02*
X5365714Y9780000D01*
X5460952Y9827620D01*
X5699047Y9827620D01*
X5794285Y9780000D01*
X5841904Y9732381D01*
X5889523Y9637143D01*
X5889523Y9541905D01*
X5841904Y9399048D01*
X5270476Y8827620D01*
X5889523Y8827620D01*
X74168095Y8827620D02*
X74168095Y9827620D01*
X74168095Y9351429D02*
X74739523Y9351429D01*
X74739523Y8827620D02*
X74739523Y9827620D01*
X75644285Y9494286D02*
X75644285Y8827620D01*
X75406190Y9875239D02*
X75168095Y9160953D01*
X75787142Y9160953D01*
X35166666Y78507620D02*
X35166666Y77793334D01*
X35119047Y77650477D01*
X35023809Y77555239D01*
X34880952Y77507620D01*
X34785714Y77507620D01*
X36071428Y78174286D02*
X36071428Y77507620D01*
X35833333Y78555239D02*
X35595238Y77840953D01*
X36214285Y77840953D01*
X35166666Y70887620D02*
X35166666Y70173334D01*
X35119047Y70030477D01*
X35023809Y69935239D01*
X34880952Y69887620D01*
X34785714Y69887620D01*
X36119047Y70887620D02*
X35642857Y70887620D01*
X35595238Y70411429D01*
X35642857Y70459048D01*
X35738095Y70506667D01*
X35976190Y70506667D01*
X36071428Y70459048D01*
X36119047Y70411429D01*
X36166666Y70316191D01*
X36166666Y70078096D01*
X36119047Y69982858D01*
X36071428Y69935239D01*
X35976190Y69887620D01*
X35738095Y69887620D01*
X35642857Y69935239D01*
X35595238Y69982858D01*
X21196666Y78507620D02*
X21196666Y77793334D01*
X21149047Y77650477D01*
X21053809Y77555239D01*
X20910952Y77507620D01*
X20815714Y77507620D01*
X21625238Y78412381D02*
X21672857Y78460000D01*
X21768095Y78507620D01*
X22006190Y78507620D01*
X22101428Y78460000D01*
X22149047Y78412381D01*
X22196666Y78317143D01*
X22196666Y78221905D01*
X22149047Y78079048D01*
X21577619Y77507620D01*
X22196666Y77507620D01*
X21196666Y70887620D02*
X21196666Y70173334D01*
X21149047Y70030477D01*
X21053809Y69935239D01*
X20910952Y69887620D01*
X20815714Y69887620D01*
X21577619Y70887620D02*
X22196666Y70887620D01*
X21863333Y70506667D01*
X22006190Y70506667D01*
X22101428Y70459048D01*
X22149047Y70411429D01*
X22196666Y70316191D01*
X22196666Y70078096D01*
X22149047Y69982858D01*
X22101428Y69935239D01*
X22006190Y69887620D01*
X21720476Y69887620D01*
X21625238Y69935239D01*
X21577619Y69982858D01*
X18454761Y49237620D02*
X18121428Y49713810D01*
X17883333Y49237620D02*
X17883333Y50237620D01*
X18264285Y50237620D01*
X18359523Y50190000D01*
X18407142Y50142381D01*
X18454761Y50047143D01*
X18454761Y49904286D01*
X18407142Y49809048D01*
X18359523Y49761429D01*
X18264285Y49713810D01*
X17883333Y49713810D01*
X18740476Y50237620D02*
X19073809Y49237620D01*
X19407142Y50237620D01*
X20264285Y49237620D02*
X19692857Y49237620D01*
X19978571Y49237620D02*
X19978571Y50237620D01*
X19883333Y50094762D01*
X19788095Y49999524D01*
X19692857Y49951905D01*
X37127619Y57054762D02*
X37080000Y56959524D01*
X36984761Y56864286D01*
X36841904Y56721429D01*
X36794285Y56626191D01*
X36794285Y56530953D01*
X37032380Y56578572D02*
X36984761Y56483334D01*
X36889523Y56388096D01*
X36699047Y56340477D01*
X36365714Y56340477D01*
X36175238Y56388096D01*
X36080000Y56483334D01*
X36032380Y56578572D01*
X36032380Y56769048D01*
X36080000Y56864286D01*
X36175238Y56959524D01*
X36365714Y57007143D01*
X36699047Y57007143D01*
X36889523Y56959524D01*
X36984761Y56864286D01*
X37032380Y56769048D01*
X37032380Y56578572D01*
X36365714Y57864286D02*
X37032380Y57864286D01*
X35984761Y57626191D02*
X36699047Y57388096D01*
X36699047Y58007143D01*
X30877142Y40433334D02*
X30924761Y40385715D01*
X30972380Y40242858D01*
X30972380Y40147620D01*
X30924761Y40004762D01*
X30829523Y39909524D01*
X30734285Y39861905D01*
X30543809Y39814286D01*
X30400952Y39814286D01*
X30210476Y39861905D01*
X30115238Y39909524D01*
X30020000Y40004762D01*
X29972380Y40147620D01*
X29972380Y40242858D01*
X30020000Y40385715D01*
X30067619Y40433334D01*
X30305714Y41290477D02*
X30972380Y41290477D01*
X29924761Y41052381D02*
X30639047Y40814286D01*
X30639047Y41433334D01*
X28257142Y30353334D02*
X28304761Y30305715D01*
X28352380Y30162858D01*
X28352380Y30067620D01*
X28304761Y29924762D01*
X28209523Y29829524D01*
X28114285Y29781905D01*
X27923809Y29734286D01*
X27780952Y29734286D01*
X27590476Y29781905D01*
X27495238Y29829524D01*
X27400000Y29924762D01*
X27352380Y30067620D01*
X27352380Y30162858D01*
X27400000Y30305715D01*
X27447619Y30353334D01*
X27447619Y30734286D02*
X27400000Y30781905D01*
X27352380Y30877143D01*
X27352380Y31115239D01*
X27400000Y31210477D01*
X27447619Y31258096D01*
X27542857Y31305715D01*
X27638095Y31305715D01*
X27780952Y31258096D01*
X28352380Y30686667D01*
X28352380Y31305715D01*
X39878095Y35897620D02*
X39878095Y35088096D01*
X39925714Y34992858D01*
X39973333Y34945239D01*
X40068571Y34897620D01*
X40259047Y34897620D01*
X40354285Y34945239D01*
X40401904Y34992858D01*
X40449523Y35088096D01*
X40449523Y35897620D01*
X40830476Y35897620D02*
X41449523Y35897620D01*
X41116190Y35516667D01*
X41259047Y35516667D01*
X41354285Y35469048D01*
X41401904Y35421429D01*
X41449523Y35326191D01*
X41449523Y35088096D01*
X41401904Y34992858D01*
X41354285Y34945239D01*
X41259047Y34897620D01*
X40973333Y34897620D01*
X40878095Y34945239D01*
X40830476Y34992858D01*
X41314761Y9707620D02*
X40981428Y10183810D01*
X40743333Y9707620D02*
X40743333Y10707620D01*
X41124285Y10707620D01*
X41219523Y10660000D01*
X41267142Y10612381D01*
X41314761Y10517143D01*
X41314761Y10374286D01*
X41267142Y10279048D01*
X41219523Y10231429D01*
X41124285Y10183810D01*
X40743333Y10183810D01*
X41600476Y10707620D02*
X41933809Y9707620D01*
X42267142Y10707620D01*
X42505238Y10707620D02*
X43124285Y10707620D01*
X42790952Y10326667D01*
X42933809Y10326667D01*
X43029047Y10279048D01*
X43076666Y10231429D01*
X43124285Y10136191D01*
X43124285Y9898096D01*
X43076666Y9802858D01*
X43029047Y9755239D01*
X42933809Y9707620D01*
X42648095Y9707620D01*
X42552857Y9755239D01*
X42505238Y9802858D01*
X35392380Y21423334D02*
X34916190Y21090000D01*
X35392380Y20851905D02*
X34392380Y20851905D01*
X34392380Y21232858D01*
X34440000Y21328096D01*
X34487619Y21375715D01*
X34582857Y21423334D01*
X34725714Y21423334D01*
X34820952Y21375715D01*
X34868571Y21328096D01*
X34916190Y21232858D01*
X34916190Y20851905D01*
X34392380Y21756667D02*
X34392380Y22375715D01*
X34773333Y22042381D01*
X34773333Y22185239D01*
X34820952Y22280477D01*
X34868571Y22328096D01*
X34963809Y22375715D01*
X35201904Y22375715D01*
X35297142Y22328096D01*
X35344761Y22280477D01*
X35392380Y22185239D01*
X35392380Y21899524D01*
X35344761Y21804286D01*
X35297142Y21756667D01*
X37127619Y13874762D02*
X37080000Y13779524D01*
X36984761Y13684286D01*
X36841904Y13541429D01*
X36794285Y13446191D01*
X36794285Y13350953D01*
X37032380Y13398572D02*
X36984761Y13303334D01*
X36889523Y13208096D01*
X36699047Y13160477D01*
X36365714Y13160477D01*
X36175238Y13208096D01*
X36080000Y13303334D01*
X36032380Y13398572D01*
X36032380Y13589048D01*
X36080000Y13684286D01*
X36175238Y13779524D01*
X36365714Y13827143D01*
X36699047Y13827143D01*
X36889523Y13779524D01*
X36984761Y13684286D01*
X37032380Y13589048D01*
X37032380Y13398572D01*
X36032380Y14160477D02*
X36032380Y14779524D01*
X36413333Y14446191D01*
X36413333Y14589048D01*
X36460952Y14684286D01*
X36508571Y14731905D01*
X36603809Y14779524D01*
X36841904Y14779524D01*
X36937142Y14731905D01*
X36984761Y14684286D01*
X37032380Y14589048D01*
X37032380Y14303334D01*
X36984761Y14208096D01*
X36937142Y14160477D01*
X30877142Y30273334D02*
X30924761Y30225715D01*
X30972380Y30082858D01*
X30972380Y29987620D01*
X30924761Y29844762D01*
X30829523Y29749524D01*
X30734285Y29701905D01*
X30543809Y29654286D01*
X30400952Y29654286D01*
X30210476Y29701905D01*
X30115238Y29749524D01*
X30020000Y29844762D01*
X29972380Y29987620D01*
X29972380Y30082858D01*
X30020000Y30225715D01*
X30067619Y30273334D01*
X29972380Y30606667D02*
X29972380Y31225715D01*
X30353333Y30892381D01*
X30353333Y31035239D01*
X30400952Y31130477D01*
X30448571Y31178096D01*
X30543809Y31225715D01*
X30781904Y31225715D01*
X30877142Y31178096D01*
X30924761Y31130477D01*
X30972380Y31035239D01*
X30972380Y30749524D01*
X30924761Y30654286D01*
X30877142Y30606667D01*
X24681904Y8927620D02*
X24681904Y9927620D01*
X25062857Y9927620D01*
X25158095Y9880000D01*
X25205714Y9832381D01*
X25253333Y9737143D01*
X25253333Y9594286D01*
X25205714Y9499048D01*
X25158095Y9451429D01*
X25062857Y9403810D01*
X24681904Y9403810D01*
X25586666Y9927620D02*
X26205714Y9927620D01*
X25872380Y9546667D01*
X26015238Y9546667D01*
X26110476Y9499048D01*
X26158095Y9451429D01*
X26205714Y9356191D01*
X26205714Y9118096D01*
X26158095Y9022858D01*
X26110476Y8975239D01*
X26015238Y8927620D01*
X25729523Y8927620D01*
X25634285Y8975239D01*
X25586666Y9022858D01*
X17018095Y37587620D02*
X17018095Y36778096D01*
X17065714Y36682858D01*
X17113333Y36635239D01*
X17208571Y36587620D01*
X17399047Y36587620D01*
X17494285Y36635239D01*
X17541904Y36682858D01*
X17589523Y36778096D01*
X17589523Y37587620D01*
X18589523Y36587620D02*
X18018095Y36587620D01*
X18303809Y36587620D02*
X18303809Y37587620D01*
X18208571Y37444762D01*
X18113333Y37349524D01*
X18018095Y37301905D01*
X23932380Y49363334D02*
X23456190Y49030000D01*
X23932380Y48791905D02*
X22932380Y48791905D01*
X22932380Y49172858D01*
X22980000Y49268096D01*
X23027619Y49315715D01*
X23122857Y49363334D01*
X23265714Y49363334D01*
X23360952Y49315715D01*
X23408571Y49268096D01*
X23456190Y49172858D01*
X23456190Y48791905D01*
X23932380Y50315715D02*
X23932380Y49744286D01*
X23932380Y50030000D02*
X22932380Y50030000D01*
X23075238Y49934762D01*
X23170476Y49839524D01*
X23218095Y49744286D01*
X28257142Y40513334D02*
X28304761Y40465715D01*
X28352380Y40322858D01*
X28352380Y40227620D01*
X28304761Y40084762D01*
X28209523Y39989524D01*
X28114285Y39941905D01*
X27923809Y39894286D01*
X27780952Y39894286D01*
X27590476Y39941905D01*
X27495238Y39989524D01*
X27400000Y40084762D01*
X27352380Y40227620D01*
X27352380Y40322858D01*
X27400000Y40465715D01*
X27447619Y40513334D01*
X28352380Y41465715D02*
X28352380Y40894286D01*
X28352380Y41180000D02*
X27352380Y41180000D01*
X27495238Y41084762D01*
X27590476Y40989524D01*
X27638095Y40894286D01*
X28237619Y57054762D02*
X28190000Y56959524D01*
X28094761Y56864286D01*
X27951904Y56721429D01*
X27904285Y56626191D01*
X27904285Y56530953D01*
X28142380Y56578572D02*
X28094761Y56483334D01*
X27999523Y56388096D01*
X27809047Y56340477D01*
X27475714Y56340477D01*
X27285238Y56388096D01*
X27190000Y56483334D01*
X27142380Y56578572D01*
X27142380Y56769048D01*
X27190000Y56864286D01*
X27285238Y56959524D01*
X27475714Y57007143D01*
X27809047Y57007143D01*
X27999523Y56959524D01*
X28094761Y56864286D01*
X28142380Y56769048D01*
X28142380Y56578572D01*
X28142380Y57959524D02*
X28142380Y57388096D01*
X28142380Y57673810D02*
X27142380Y57673810D01*
X27285238Y57578572D01*
X27380476Y57483334D01*
X27428095Y57388096D01*
X39878095Y37587620D02*
X39878095Y36778096D01*
X39925714Y36682858D01*
X39973333Y36635239D01*
X40068571Y36587620D01*
X40259047Y36587620D01*
X40354285Y36635239D01*
X40401904Y36682858D01*
X40449523Y36778096D01*
X40449523Y37587620D01*
X41354285Y37254286D02*
X41354285Y36587620D01*
X41116190Y37635239D02*
X40878095Y36920953D01*
X41497142Y36920953D01*
X17018095Y35897620D02*
X17018095Y35088096D01*
X17065714Y34992858D01*
X17113333Y34945239D01*
X17208571Y34897620D01*
X17399047Y34897620D01*
X17494285Y34945239D01*
X17541904Y34992858D01*
X17589523Y35088096D01*
X17589523Y35897620D01*
X18018095Y35802381D02*
X18065714Y35850000D01*
X18160952Y35897620D01*
X18399047Y35897620D01*
X18494285Y35850000D01*
X18541904Y35802381D01*
X18589523Y35707143D01*
X18589523Y35611905D01*
X18541904Y35469048D01*
X17970476Y34897620D01*
X18589523Y34897620D01*
X43854761Y47967620D02*
X43521428Y48443810D01*
X43283333Y47967620D02*
X43283333Y48967620D01*
X43664285Y48967620D01*
X43759523Y48920000D01*
X43807142Y48872381D01*
X43854761Y48777143D01*
X43854761Y48634286D01*
X43807142Y48539048D01*
X43759523Y48491429D01*
X43664285Y48443810D01*
X43283333Y48443810D01*
X44140476Y48967620D02*
X44473809Y47967620D01*
X44807142Y48967620D01*
X45569047Y48634286D02*
X45569047Y47967620D01*
X45330952Y49015239D02*
X45092857Y48300953D01*
X45711904Y48300953D01*
X18454761Y9867620D02*
X18121428Y10343810D01*
X17883333Y9867620D02*
X17883333Y10867620D01*
X18264285Y10867620D01*
X18359523Y10820000D01*
X18407142Y10772381D01*
X18454761Y10677143D01*
X18454761Y10534286D01*
X18407142Y10439048D01*
X18359523Y10391429D01*
X18264285Y10343810D01*
X17883333Y10343810D01*
X18740476Y10867620D02*
X19073809Y9867620D01*
X19407142Y10867620D01*
X19692857Y10772381D02*
X19740476Y10820000D01*
X19835714Y10867620D01*
X20073809Y10867620D01*
X20169047Y10820000D01*
X20216666Y10772381D01*
X20264285Y10677143D01*
X20264285Y10581905D01*
X20216666Y10439048D01*
X19645238Y9867620D01*
X20264285Y9867620D01*
X27967379Y21423334D02*
X27491189Y21090000D01*
X27967379Y20851905D02*
X26967379Y20851905D01*
X26967379Y21232858D01*
X27014999Y21328096D01*
X27062618Y21375715D01*
X27157856Y21423334D01*
X27300713Y21423334D01*
X27395951Y21375715D01*
X27443570Y21328096D01*
X27491189Y21232858D01*
X27491189Y20851905D01*
X27062618Y21804286D02*
X27014999Y21851905D01*
X26967379Y21947143D01*
X26967379Y22185239D01*
X27014999Y22280477D01*
X27062618Y22328096D01*
X27157856Y22375715D01*
X27253094Y22375715D01*
X27395951Y22328096D01*
X27967379Y21756667D01*
X27967379Y22375715D01*
X28022618Y13879761D02*
X27974999Y13784523D01*
X27879760Y13689285D01*
X27736903Y13546428D01*
X27689284Y13451190D01*
X27689284Y13355952D01*
X27927379Y13403571D02*
X27879760Y13308333D01*
X27784522Y13213095D01*
X27594046Y13165476D01*
X27260713Y13165476D01*
X27070237Y13213095D01*
X26974999Y13308333D01*
X26927379Y13403571D01*
X26927379Y13594047D01*
X26974999Y13689285D01*
X27070237Y13784523D01*
X27260713Y13832142D01*
X27594046Y13832142D01*
X27784522Y13784523D01*
X27879760Y13689285D01*
X27927379Y13594047D01*
X27927379Y13403571D01*
X27022618Y14213095D02*
X26974999Y14260714D01*
X26927379Y14355952D01*
X26927379Y14594047D01*
X26974999Y14689285D01*
X27022618Y14736904D01*
X27117856Y14784523D01*
X27213094Y14784523D01*
X27355951Y14736904D01*
X27927379Y14165476D01*
X27927379Y14784523D01*
%LPC*%
D14*
X48260000Y3810000D03*
X48260000Y6350000D03*
D15*
X48260000Y8890000D03*
D16*
X64060000Y6350000D03*
D17*
X76200000Y13410000D03*
X76200000Y15950000D03*
X76200000Y18490000D03*
X76200000Y21030000D03*
X76200000Y23570000D03*
X76200000Y26110000D03*
X76200000Y28650000D03*
X76200000Y31190000D03*
X76200000Y33730000D03*
X76200000Y36270000D03*
X76200000Y38810000D03*
X76200000Y41350000D03*
X76200000Y43890000D03*
X76200000Y46430000D03*
X76200000Y48970000D03*
X76200000Y51510000D03*
X76200000Y54050000D03*
X76200000Y56590000D03*
X76200000Y59130000D03*
X50800000Y15950000D03*
X50800000Y18490000D03*
X50800000Y21030000D03*
X50800000Y23570000D03*
X50800000Y26110000D03*
X50800000Y28650000D03*
X50800000Y31190000D03*
X50800000Y33730000D03*
X50800000Y36270000D03*
X50800000Y38810000D03*
X50800000Y41350000D03*
X50800000Y43890000D03*
X50800000Y46430000D03*
X50800000Y48970000D03*
X50800000Y51510000D03*
X50800000Y54050000D03*
X50800000Y13410000D03*
X50800000Y56590000D03*
D18*
X50800000Y59130000D03*
D19*
X33020000Y53340000D03*
D20*
X33020000Y45720000D03*
D21*
X74930000Y74930000D03*
X5080000Y74930000D03*
X5080000Y5080000D03*
X74930000Y5080000D03*
D22*
X39250000Y73660000D03*
X36750000Y73660000D03*
X34250000Y73660000D03*
D23*
G36*
X32447975Y74683655D02*
G01*
X32475099Y74679631D01*
X32501697Y74672969D01*
X32527514Y74663731D01*
X32552302Y74652007D01*
X32575821Y74637911D01*
X32597845Y74621576D01*
X32618162Y74603162D01*
X32636576Y74582845D01*
X32652911Y74560821D01*
X32667007Y74537302D01*
X32678731Y74512514D01*
X32687969Y74486697D01*
X32694631Y74460099D01*
X32698655Y74432975D01*
X32700000Y74405588D01*
X32700000Y72914412D01*
X32698655Y72887025D01*
X32694631Y72859901D01*
X32687969Y72833303D01*
X32678731Y72807486D01*
X32667007Y72782698D01*
X32652911Y72759179D01*
X32636576Y72737155D01*
X32618162Y72716838D01*
X32597845Y72698424D01*
X32575821Y72682089D01*
X32552302Y72667993D01*
X32527514Y72656269D01*
X32501697Y72647031D01*
X32475099Y72640369D01*
X32447975Y72636345D01*
X32420588Y72635000D01*
X31079412Y72635000D01*
X31052025Y72636345D01*
X31024901Y72640369D01*
X30998303Y72647031D01*
X30972486Y72656269D01*
X30947698Y72667993D01*
X30924179Y72682089D01*
X30902155Y72698424D01*
X30881838Y72716838D01*
X30863424Y72737155D01*
X30847089Y72759179D01*
X30832993Y72782698D01*
X30821269Y72807486D01*
X30812031Y72833303D01*
X30805369Y72859901D01*
X30801345Y72887025D01*
X30800000Y72914412D01*
X30800000Y74405588D01*
X30801345Y74432975D01*
X30805369Y74460099D01*
X30812031Y74486697D01*
X30821269Y74512514D01*
X30832993Y74537302D01*
X30847089Y74560821D01*
X30863424Y74582845D01*
X30881838Y74603162D01*
X30902155Y74621576D01*
X30924179Y74637911D01*
X30947698Y74652007D01*
X30972486Y74663731D01*
X30998303Y74672969D01*
X31024901Y74679631D01*
X31052025Y74683655D01*
X31079412Y74685000D01*
X32420588Y74685000D01*
X32447975Y74683655D01*
G37*
D22*
X39250000Y66040000D03*
X36750000Y66040000D03*
X34250000Y66040000D03*
D23*
G36*
X32447975Y67063655D02*
G01*
X32475099Y67059631D01*
X32501697Y67052969D01*
X32527514Y67043731D01*
X32552302Y67032007D01*
X32575821Y67017911D01*
X32597845Y67001576D01*
X32618162Y66983162D01*
X32636576Y66962845D01*
X32652911Y66940821D01*
X32667007Y66917302D01*
X32678731Y66892514D01*
X32687969Y66866697D01*
X32694631Y66840099D01*
X32698655Y66812975D01*
X32700000Y66785588D01*
X32700000Y65294412D01*
X32698655Y65267025D01*
X32694631Y65239901D01*
X32687969Y65213303D01*
X32678731Y65187486D01*
X32667007Y65162698D01*
X32652911Y65139179D01*
X32636576Y65117155D01*
X32618162Y65096838D01*
X32597845Y65078424D01*
X32575821Y65062089D01*
X32552302Y65047993D01*
X32527514Y65036269D01*
X32501697Y65027031D01*
X32475099Y65020369D01*
X32447975Y65016345D01*
X32420588Y65015000D01*
X31079412Y65015000D01*
X31052025Y65016345D01*
X31024901Y65020369D01*
X30998303Y65027031D01*
X30972486Y65036269D01*
X30947698Y65047993D01*
X30924179Y65062089D01*
X30902155Y65078424D01*
X30881838Y65096838D01*
X30863424Y65117155D01*
X30847089Y65139179D01*
X30832993Y65162698D01*
X30821269Y65187486D01*
X30812031Y65213303D01*
X30805369Y65239901D01*
X30801345Y65267025D01*
X30800000Y65294412D01*
X30800000Y66785588D01*
X30801345Y66812975D01*
X30805369Y66840099D01*
X30812031Y66866697D01*
X30821269Y66892514D01*
X30832993Y66917302D01*
X30847089Y66940821D01*
X30863424Y66962845D01*
X30881838Y66983162D01*
X30902155Y67001576D01*
X30924179Y67017911D01*
X30947698Y67032007D01*
X30972486Y67043731D01*
X30998303Y67052969D01*
X31024901Y67059631D01*
X31052025Y67063655D01*
X31079412Y67065000D01*
X32420588Y67065000D01*
X32447975Y67063655D01*
G37*
D22*
X25280000Y73660000D03*
X22780000Y73660000D03*
X20280000Y73660000D03*
D23*
G36*
X18477975Y74683655D02*
G01*
X18505099Y74679631D01*
X18531697Y74672969D01*
X18557514Y74663731D01*
X18582302Y74652007D01*
X18605821Y74637911D01*
X18627845Y74621576D01*
X18648162Y74603162D01*
X18666576Y74582845D01*
X18682911Y74560821D01*
X18697007Y74537302D01*
X18708731Y74512514D01*
X18717969Y74486697D01*
X18724631Y74460099D01*
X18728655Y74432975D01*
X18730000Y74405588D01*
X18730000Y72914412D01*
X18728655Y72887025D01*
X18724631Y72859901D01*
X18717969Y72833303D01*
X18708731Y72807486D01*
X18697007Y72782698D01*
X18682911Y72759179D01*
X18666576Y72737155D01*
X18648162Y72716838D01*
X18627845Y72698424D01*
X18605821Y72682089D01*
X18582302Y72667993D01*
X18557514Y72656269D01*
X18531697Y72647031D01*
X18505099Y72640369D01*
X18477975Y72636345D01*
X18450588Y72635000D01*
X17109412Y72635000D01*
X17082025Y72636345D01*
X17054901Y72640369D01*
X17028303Y72647031D01*
X17002486Y72656269D01*
X16977698Y72667993D01*
X16954179Y72682089D01*
X16932155Y72698424D01*
X16911838Y72716838D01*
X16893424Y72737155D01*
X16877089Y72759179D01*
X16862993Y72782698D01*
X16851269Y72807486D01*
X16842031Y72833303D01*
X16835369Y72859901D01*
X16831345Y72887025D01*
X16830000Y72914412D01*
X16830000Y74405588D01*
X16831345Y74432975D01*
X16835369Y74460099D01*
X16842031Y74486697D01*
X16851269Y74512514D01*
X16862993Y74537302D01*
X16877089Y74560821D01*
X16893424Y74582845D01*
X16911838Y74603162D01*
X16932155Y74621576D01*
X16954179Y74637911D01*
X16977698Y74652007D01*
X17002486Y74663731D01*
X17028303Y74672969D01*
X17054901Y74679631D01*
X17082025Y74683655D01*
X17109412Y74685000D01*
X18450588Y74685000D01*
X18477975Y74683655D01*
G37*
D22*
X25280000Y66040000D03*
X22780000Y66040000D03*
X20280000Y66040000D03*
D23*
G36*
X18477975Y67063655D02*
G01*
X18505099Y67059631D01*
X18531697Y67052969D01*
X18557514Y67043731D01*
X18582302Y67032007D01*
X18605821Y67017911D01*
X18627845Y67001576D01*
X18648162Y66983162D01*
X18666576Y66962845D01*
X18682911Y66940821D01*
X18697007Y66917302D01*
X18708731Y66892514D01*
X18717969Y66866697D01*
X18724631Y66840099D01*
X18728655Y66812975D01*
X18730000Y66785588D01*
X18730000Y65294412D01*
X18728655Y65267025D01*
X18724631Y65239901D01*
X18717969Y65213303D01*
X18708731Y65187486D01*
X18697007Y65162698D01*
X18682911Y65139179D01*
X18666576Y65117155D01*
X18648162Y65096838D01*
X18627845Y65078424D01*
X18605821Y65062089D01*
X18582302Y65047993D01*
X18557514Y65036269D01*
X18531697Y65027031D01*
X18505099Y65020369D01*
X18477975Y65016345D01*
X18450588Y65015000D01*
X17109412Y65015000D01*
X17082025Y65016345D01*
X17054901Y65020369D01*
X17028303Y65027031D01*
X17002486Y65036269D01*
X16977698Y65047993D01*
X16954179Y65062089D01*
X16932155Y65078424D01*
X16911838Y65096838D01*
X16893424Y65117155D01*
X16877089Y65139179D01*
X16862993Y65162698D01*
X16851269Y65187486D01*
X16842031Y65213303D01*
X16835369Y65239901D01*
X16831345Y65267025D01*
X16830000Y65294412D01*
X16830000Y66785588D01*
X16831345Y66812975D01*
X16835369Y66840099D01*
X16842031Y66866697D01*
X16851269Y66892514D01*
X16862993Y66917302D01*
X16877089Y66940821D01*
X16893424Y66962845D01*
X16911838Y66983162D01*
X16932155Y67001576D01*
X16954179Y67017911D01*
X16977698Y67032007D01*
X17002486Y67043731D01*
X17028303Y67052969D01*
X17054901Y67059631D01*
X17082025Y67063655D01*
X17109412Y67065000D01*
X18450588Y67065000D01*
X18477975Y67063655D01*
G37*
D24*
X19050000Y53340000D03*
X14050000Y55840000D03*
X19050000Y58340000D03*
D25*
X33020000Y58420000D03*
D26*
X33020000Y55880000D03*
X34290000Y57150000D03*
D27*
X33020000Y43100000D03*
X33020000Y38100000D03*
X25400000Y28020000D03*
X25400000Y33020000D03*
D28*
X44450000Y33020000D03*
X36830000Y25400000D03*
X44450000Y30480000D03*
X36830000Y27940000D03*
X44450000Y27940000D03*
X36830000Y30480000D03*
X44450000Y25400000D03*
D29*
X36830000Y33020000D03*
D24*
X44450000Y13970000D03*
X39450000Y16470000D03*
X44450000Y18970000D03*
D19*
X33020000Y17780000D03*
D20*
X33020000Y25400000D03*
D25*
X33020000Y15240000D03*
D26*
X33020000Y12700000D03*
X34290000Y13970000D03*
D27*
X33020000Y32940000D03*
X33020000Y27940000D03*
D22*
X26670000Y5080000D03*
D23*
G36*
X24867975Y6103655D02*
G01*
X24895099Y6099631D01*
X24921697Y6092969D01*
X24947514Y6083731D01*
X24972302Y6072007D01*
X24995821Y6057911D01*
X25017845Y6041576D01*
X25038162Y6023162D01*
X25056576Y6002845D01*
X25072911Y5980821D01*
X25087007Y5957302D01*
X25098731Y5932514D01*
X25107969Y5906697D01*
X25114631Y5880099D01*
X25118655Y5852975D01*
X25120000Y5825588D01*
X25120000Y4334412D01*
X25118655Y4307025D01*
X25114631Y4279901D01*
X25107969Y4253303D01*
X25098731Y4227486D01*
X25087007Y4202698D01*
X25072911Y4179179D01*
X25056576Y4157155D01*
X25038162Y4136838D01*
X25017845Y4118424D01*
X24995821Y4102089D01*
X24972302Y4087993D01*
X24947514Y4076269D01*
X24921697Y4067031D01*
X24895099Y4060369D01*
X24867975Y4056345D01*
X24840588Y4055000D01*
X23499412Y4055000D01*
X23472025Y4056345D01*
X23444901Y4060369D01*
X23418303Y4067031D01*
X23392486Y4076269D01*
X23367698Y4087993D01*
X23344179Y4102089D01*
X23322155Y4118424D01*
X23301838Y4136838D01*
X23283424Y4157155D01*
X23267089Y4179179D01*
X23252993Y4202698D01*
X23241269Y4227486D01*
X23232031Y4253303D01*
X23225369Y4279901D01*
X23221345Y4307025D01*
X23220000Y4334412D01*
X23220000Y5825588D01*
X23221345Y5852975D01*
X23225369Y5880099D01*
X23232031Y5906697D01*
X23241269Y5932514D01*
X23252993Y5957302D01*
X23267089Y5980821D01*
X23283424Y6002845D01*
X23301838Y6023162D01*
X23322155Y6041576D01*
X23344179Y6057911D01*
X23367698Y6072007D01*
X23392486Y6083731D01*
X23418303Y6092969D01*
X23444901Y6099631D01*
X23472025Y6103655D01*
X23499412Y6105000D01*
X24840588Y6105000D01*
X24867975Y6103655D01*
G37*
D28*
X13970000Y39370000D03*
X21590000Y46990000D03*
X13970000Y41910000D03*
X21590000Y44450000D03*
X13970000Y44450000D03*
X21590000Y41910000D03*
X13970000Y46990000D03*
D29*
X21590000Y39370000D03*
D19*
X25400000Y53340000D03*
D20*
X25400000Y45720000D03*
D27*
X25400000Y38180000D03*
X25400000Y43180000D03*
D25*
X24130000Y58420000D03*
D26*
X24130000Y55880000D03*
X25400000Y57150000D03*
D28*
X36830000Y39370000D03*
X44450000Y46990000D03*
X36830000Y41910000D03*
X44450000Y44450000D03*
X36830000Y44450000D03*
X44450000Y41910000D03*
X36830000Y46990000D03*
D29*
X44450000Y39370000D03*
D28*
X21590000Y33020000D03*
X13970000Y25400000D03*
X21590000Y30480000D03*
X13970000Y27940000D03*
X21590000Y27940000D03*
X13970000Y30480000D03*
X21590000Y25400000D03*
D29*
X13970000Y33020000D03*
D24*
X44450000Y52070000D03*
X39450000Y54570000D03*
X44450000Y57070000D03*
X19050000Y13970000D03*
X14050000Y16470000D03*
X19050000Y18970000D03*
D19*
X25594999Y17780000D03*
D20*
X25594999Y25400000D03*
D25*
X23914999Y15244999D03*
D26*
X23914999Y12704999D03*
X25184999Y13974999D03*
M02*
