M48
; DRILL file {KiCad (5.1.5-0-10_14)} date 2020 February 05, Wednesday 16:50:07
; FORMAT={3:3/ absolute / metric / suppress leading zeros}
; #@! TF.CreationDate,2020-02-05T16:50:07+09:00
; #@! TF.GenerationSoftware,Kicad,Pcbnew,(5.1.5-0-10_14)
FMAT,2
METRIC,TZ
T1C0.400
T2C0.700
T3C0.750
T4C0.800
T5C0.850
T6C1.040
T7C1.200
T8C1.300
T9C3.200
T10C3.500
%
G90
G05
T1
X25400Y35560
X31750Y41910
T2
X25595Y25400
X25595Y17780
X25400Y53340
X25400Y45720
X33020Y53340
X33020Y45720
X33020Y25400
X33020Y17780
T3
X24130Y58420
X24130Y55880
X25400Y57150
X23915Y15245
X23915Y12705
X25185Y13975
X33020Y58420
X33020Y55880
X34290Y57150
X33020Y15240
X33020Y12700
X34290Y13970
T4
X33020Y32940
X33020Y27940
X33020Y43100
X33020Y38100
X13970Y33020
X13970Y30480
X13970Y27940
X13970Y25400
X21590Y33020
X21590Y30480
X21590Y27940
X21590Y25400
X36830Y33020
X36830Y30480
X36830Y27940
X36830Y25400
X44450Y33020
X44450Y30480
X44450Y27940
X44450Y25400
X36830Y46990
X36830Y44450
X36830Y41910
X36830Y39370
X44450Y46990
X44450Y44450
X44450Y41910
X44450Y39370
X25400Y33020
X25400Y28020
X25400Y43180
X25400Y38180
X13970Y46990
X13970Y44450
X13970Y41910
X13970Y39370
X21590Y46990
X21590Y44450
X21590Y41910
X21590Y39370
T5
X31750Y73660
X31750Y66040
X34250Y66040
X36750Y66040
X39250Y66040
X20280Y73660
X22780Y73660
X25280Y73660
X17780Y66040
X20280Y66040
X22780Y66040
X25280Y66040
X24170Y5080
X26670Y5080
X34250Y73660
X36750Y73660
X39250Y73660
X17780Y73660
T6
X50800Y59130
X50800Y56590
X50800Y54050
X50800Y51510
X50800Y48970
X50800Y46430
X50800Y43890
X50800Y41350
X50800Y38810
X50800Y36270
X50800Y33730
X50800Y31190
X50800Y28650
X50800Y26110
X50800Y23570
X50800Y21030
X50800Y18490
X50800Y15950
X50800Y13410
X76200Y59130
X76200Y56590
X76200Y54050
X76200Y51510
X76200Y48970
X76200Y46430
X76200Y43890
X76200Y41350
X76200Y38810
X76200Y36270
X76200Y33730
X76200Y31190
X76200Y28650
X76200Y26110
X76200Y23570
X76200Y21030
X76200Y18490
X76200Y15950
X76200Y13410
T7
X48260Y8890
X48260Y6350
X48260Y3810
T8
X39450Y16470
X44450Y18970
X44450Y13970
X14050Y16470
X19050Y18970
X19050Y13970
X14050Y55840
X19050Y58340
X19050Y53340
X39450Y54570
X44450Y57070
X44450Y52070
T9
X5080Y5080
X74930Y74930
X74930Y5080
X5080Y74930
T10
X64060Y6350
T0
M30
