G04 #@! TF.GenerationSoftware,KiCad,Pcbnew,(5.1.5-0-10_14)*
G04 #@! TF.CreationDate,2020-02-05T16:48:16+09:00*
G04 #@! TF.ProjectId,baloon-markII,62616c6f-6f6e-42d6-9d61-726b49492e6b,rev?*
G04 #@! TF.SameCoordinates,PX258bd10PY730f910*
G04 #@! TF.FileFunction,Legend,Bot*
G04 #@! TF.FilePolarity,Positive*
%FSLAX46Y46*%
G04 Gerber Fmt 4.6, Leading zero omitted, Abs format (unit mm)*
G04 Created by KiCad (PCBNEW (5.1.5-0-10_14)) date 2020-02-05 16:48:16*
%MOMM*%
%LPD*%
G04 APERTURE LIST*
%ADD10O,2.200000X2.105000*%
%ADD11R,2.200000X2.105000*%
%ADD12O,3.700000X3.700000*%
%ADD13C,1.760000*%
%ADD14R,1.760000X1.760000*%
%ADD15O,1.600000X1.600000*%
%ADD16C,1.600000*%
%ADD17C,3.400000*%
%ADD18O,1.900000X2.050000*%
%ADD19C,0.100000*%
%ADD20C,2.540000*%
%ADD21R,1.500000X1.500000*%
%ADD22C,1.500000*%
%ADD23C,1.800000*%
%ADD24O,1.800000X1.800000*%
%ADD25R,1.800000X1.800000*%
G04 APERTURE END LIST*
%LPC*%
D10*
X48260000Y3810000D03*
X48260000Y6350000D03*
D11*
X48260000Y8890000D03*
D12*
X64060000Y6350000D03*
D13*
X76200000Y13410000D03*
X76200000Y15950000D03*
X76200000Y18490000D03*
X76200000Y21030000D03*
X76200000Y23570000D03*
X76200000Y26110000D03*
X76200000Y28650000D03*
X76200000Y31190000D03*
X76200000Y33730000D03*
X76200000Y36270000D03*
X76200000Y38810000D03*
X76200000Y41350000D03*
X76200000Y43890000D03*
X76200000Y46430000D03*
X76200000Y48970000D03*
X76200000Y51510000D03*
X76200000Y54050000D03*
X76200000Y56590000D03*
X76200000Y59130000D03*
X50800000Y15950000D03*
X50800000Y18490000D03*
X50800000Y21030000D03*
X50800000Y23570000D03*
X50800000Y26110000D03*
X50800000Y28650000D03*
X50800000Y31190000D03*
X50800000Y33730000D03*
X50800000Y36270000D03*
X50800000Y38810000D03*
X50800000Y41350000D03*
X50800000Y43890000D03*
X50800000Y46430000D03*
X50800000Y48970000D03*
X50800000Y51510000D03*
X50800000Y54050000D03*
X50800000Y13410000D03*
X50800000Y56590000D03*
D14*
X50800000Y59130000D03*
D15*
X33020000Y53340000D03*
D16*
X33020000Y45720000D03*
D17*
X74930000Y74930000D03*
X5080000Y74930000D03*
X5080000Y5080000D03*
X74930000Y5080000D03*
D18*
X39250000Y73660000D03*
X36750000Y73660000D03*
X34250000Y73660000D03*
D19*
G36*
X32447975Y74683655D02*
G01*
X32475099Y74679631D01*
X32501697Y74672969D01*
X32527514Y74663731D01*
X32552302Y74652007D01*
X32575821Y74637911D01*
X32597845Y74621576D01*
X32618162Y74603162D01*
X32636576Y74582845D01*
X32652911Y74560821D01*
X32667007Y74537302D01*
X32678731Y74512514D01*
X32687969Y74486697D01*
X32694631Y74460099D01*
X32698655Y74432975D01*
X32700000Y74405588D01*
X32700000Y72914412D01*
X32698655Y72887025D01*
X32694631Y72859901D01*
X32687969Y72833303D01*
X32678731Y72807486D01*
X32667007Y72782698D01*
X32652911Y72759179D01*
X32636576Y72737155D01*
X32618162Y72716838D01*
X32597845Y72698424D01*
X32575821Y72682089D01*
X32552302Y72667993D01*
X32527514Y72656269D01*
X32501697Y72647031D01*
X32475099Y72640369D01*
X32447975Y72636345D01*
X32420588Y72635000D01*
X31079412Y72635000D01*
X31052025Y72636345D01*
X31024901Y72640369D01*
X30998303Y72647031D01*
X30972486Y72656269D01*
X30947698Y72667993D01*
X30924179Y72682089D01*
X30902155Y72698424D01*
X30881838Y72716838D01*
X30863424Y72737155D01*
X30847089Y72759179D01*
X30832993Y72782698D01*
X30821269Y72807486D01*
X30812031Y72833303D01*
X30805369Y72859901D01*
X30801345Y72887025D01*
X30800000Y72914412D01*
X30800000Y74405588D01*
X30801345Y74432975D01*
X30805369Y74460099D01*
X30812031Y74486697D01*
X30821269Y74512514D01*
X30832993Y74537302D01*
X30847089Y74560821D01*
X30863424Y74582845D01*
X30881838Y74603162D01*
X30902155Y74621576D01*
X30924179Y74637911D01*
X30947698Y74652007D01*
X30972486Y74663731D01*
X30998303Y74672969D01*
X31024901Y74679631D01*
X31052025Y74683655D01*
X31079412Y74685000D01*
X32420588Y74685000D01*
X32447975Y74683655D01*
G37*
D18*
X39250000Y66040000D03*
X36750000Y66040000D03*
X34250000Y66040000D03*
D19*
G36*
X32447975Y67063655D02*
G01*
X32475099Y67059631D01*
X32501697Y67052969D01*
X32527514Y67043731D01*
X32552302Y67032007D01*
X32575821Y67017911D01*
X32597845Y67001576D01*
X32618162Y66983162D01*
X32636576Y66962845D01*
X32652911Y66940821D01*
X32667007Y66917302D01*
X32678731Y66892514D01*
X32687969Y66866697D01*
X32694631Y66840099D01*
X32698655Y66812975D01*
X32700000Y66785588D01*
X32700000Y65294412D01*
X32698655Y65267025D01*
X32694631Y65239901D01*
X32687969Y65213303D01*
X32678731Y65187486D01*
X32667007Y65162698D01*
X32652911Y65139179D01*
X32636576Y65117155D01*
X32618162Y65096838D01*
X32597845Y65078424D01*
X32575821Y65062089D01*
X32552302Y65047993D01*
X32527514Y65036269D01*
X32501697Y65027031D01*
X32475099Y65020369D01*
X32447975Y65016345D01*
X32420588Y65015000D01*
X31079412Y65015000D01*
X31052025Y65016345D01*
X31024901Y65020369D01*
X30998303Y65027031D01*
X30972486Y65036269D01*
X30947698Y65047993D01*
X30924179Y65062089D01*
X30902155Y65078424D01*
X30881838Y65096838D01*
X30863424Y65117155D01*
X30847089Y65139179D01*
X30832993Y65162698D01*
X30821269Y65187486D01*
X30812031Y65213303D01*
X30805369Y65239901D01*
X30801345Y65267025D01*
X30800000Y65294412D01*
X30800000Y66785588D01*
X30801345Y66812975D01*
X30805369Y66840099D01*
X30812031Y66866697D01*
X30821269Y66892514D01*
X30832993Y66917302D01*
X30847089Y66940821D01*
X30863424Y66962845D01*
X30881838Y66983162D01*
X30902155Y67001576D01*
X30924179Y67017911D01*
X30947698Y67032007D01*
X30972486Y67043731D01*
X30998303Y67052969D01*
X31024901Y67059631D01*
X31052025Y67063655D01*
X31079412Y67065000D01*
X32420588Y67065000D01*
X32447975Y67063655D01*
G37*
D18*
X25280000Y73660000D03*
X22780000Y73660000D03*
X20280000Y73660000D03*
D19*
G36*
X18477975Y74683655D02*
G01*
X18505099Y74679631D01*
X18531697Y74672969D01*
X18557514Y74663731D01*
X18582302Y74652007D01*
X18605821Y74637911D01*
X18627845Y74621576D01*
X18648162Y74603162D01*
X18666576Y74582845D01*
X18682911Y74560821D01*
X18697007Y74537302D01*
X18708731Y74512514D01*
X18717969Y74486697D01*
X18724631Y74460099D01*
X18728655Y74432975D01*
X18730000Y74405588D01*
X18730000Y72914412D01*
X18728655Y72887025D01*
X18724631Y72859901D01*
X18717969Y72833303D01*
X18708731Y72807486D01*
X18697007Y72782698D01*
X18682911Y72759179D01*
X18666576Y72737155D01*
X18648162Y72716838D01*
X18627845Y72698424D01*
X18605821Y72682089D01*
X18582302Y72667993D01*
X18557514Y72656269D01*
X18531697Y72647031D01*
X18505099Y72640369D01*
X18477975Y72636345D01*
X18450588Y72635000D01*
X17109412Y72635000D01*
X17082025Y72636345D01*
X17054901Y72640369D01*
X17028303Y72647031D01*
X17002486Y72656269D01*
X16977698Y72667993D01*
X16954179Y72682089D01*
X16932155Y72698424D01*
X16911838Y72716838D01*
X16893424Y72737155D01*
X16877089Y72759179D01*
X16862993Y72782698D01*
X16851269Y72807486D01*
X16842031Y72833303D01*
X16835369Y72859901D01*
X16831345Y72887025D01*
X16830000Y72914412D01*
X16830000Y74405588D01*
X16831345Y74432975D01*
X16835369Y74460099D01*
X16842031Y74486697D01*
X16851269Y74512514D01*
X16862993Y74537302D01*
X16877089Y74560821D01*
X16893424Y74582845D01*
X16911838Y74603162D01*
X16932155Y74621576D01*
X16954179Y74637911D01*
X16977698Y74652007D01*
X17002486Y74663731D01*
X17028303Y74672969D01*
X17054901Y74679631D01*
X17082025Y74683655D01*
X17109412Y74685000D01*
X18450588Y74685000D01*
X18477975Y74683655D01*
G37*
D18*
X25280000Y66040000D03*
X22780000Y66040000D03*
X20280000Y66040000D03*
D19*
G36*
X18477975Y67063655D02*
G01*
X18505099Y67059631D01*
X18531697Y67052969D01*
X18557514Y67043731D01*
X18582302Y67032007D01*
X18605821Y67017911D01*
X18627845Y67001576D01*
X18648162Y66983162D01*
X18666576Y66962845D01*
X18682911Y66940821D01*
X18697007Y66917302D01*
X18708731Y66892514D01*
X18717969Y66866697D01*
X18724631Y66840099D01*
X18728655Y66812975D01*
X18730000Y66785588D01*
X18730000Y65294412D01*
X18728655Y65267025D01*
X18724631Y65239901D01*
X18717969Y65213303D01*
X18708731Y65187486D01*
X18697007Y65162698D01*
X18682911Y65139179D01*
X18666576Y65117155D01*
X18648162Y65096838D01*
X18627845Y65078424D01*
X18605821Y65062089D01*
X18582302Y65047993D01*
X18557514Y65036269D01*
X18531697Y65027031D01*
X18505099Y65020369D01*
X18477975Y65016345D01*
X18450588Y65015000D01*
X17109412Y65015000D01*
X17082025Y65016345D01*
X17054901Y65020369D01*
X17028303Y65027031D01*
X17002486Y65036269D01*
X16977698Y65047993D01*
X16954179Y65062089D01*
X16932155Y65078424D01*
X16911838Y65096838D01*
X16893424Y65117155D01*
X16877089Y65139179D01*
X16862993Y65162698D01*
X16851269Y65187486D01*
X16842031Y65213303D01*
X16835369Y65239901D01*
X16831345Y65267025D01*
X16830000Y65294412D01*
X16830000Y66785588D01*
X16831345Y66812975D01*
X16835369Y66840099D01*
X16842031Y66866697D01*
X16851269Y66892514D01*
X16862993Y66917302D01*
X16877089Y66940821D01*
X16893424Y66962845D01*
X16911838Y66983162D01*
X16932155Y67001576D01*
X16954179Y67017911D01*
X16977698Y67032007D01*
X17002486Y67043731D01*
X17028303Y67052969D01*
X17054901Y67059631D01*
X17082025Y67063655D01*
X17109412Y67065000D01*
X18450588Y67065000D01*
X18477975Y67063655D01*
G37*
D20*
X19050000Y53340000D03*
X14050000Y55840000D03*
X19050000Y58340000D03*
D21*
X33020000Y58420000D03*
D22*
X33020000Y55880000D03*
X34290000Y57150000D03*
D23*
X33020000Y43100000D03*
X33020000Y38100000D03*
X25400000Y28020000D03*
X25400000Y33020000D03*
D24*
X44450000Y33020000D03*
X36830000Y25400000D03*
X44450000Y30480000D03*
X36830000Y27940000D03*
X44450000Y27940000D03*
X36830000Y30480000D03*
X44450000Y25400000D03*
D25*
X36830000Y33020000D03*
D20*
X44450000Y13970000D03*
X39450000Y16470000D03*
X44450000Y18970000D03*
D15*
X33020000Y17780000D03*
D16*
X33020000Y25400000D03*
D21*
X33020000Y15240000D03*
D22*
X33020000Y12700000D03*
X34290000Y13970000D03*
D23*
X33020000Y32940000D03*
X33020000Y27940000D03*
D18*
X26670000Y5080000D03*
D19*
G36*
X24867975Y6103655D02*
G01*
X24895099Y6099631D01*
X24921697Y6092969D01*
X24947514Y6083731D01*
X24972302Y6072007D01*
X24995821Y6057911D01*
X25017845Y6041576D01*
X25038162Y6023162D01*
X25056576Y6002845D01*
X25072911Y5980821D01*
X25087007Y5957302D01*
X25098731Y5932514D01*
X25107969Y5906697D01*
X25114631Y5880099D01*
X25118655Y5852975D01*
X25120000Y5825588D01*
X25120000Y4334412D01*
X25118655Y4307025D01*
X25114631Y4279901D01*
X25107969Y4253303D01*
X25098731Y4227486D01*
X25087007Y4202698D01*
X25072911Y4179179D01*
X25056576Y4157155D01*
X25038162Y4136838D01*
X25017845Y4118424D01*
X24995821Y4102089D01*
X24972302Y4087993D01*
X24947514Y4076269D01*
X24921697Y4067031D01*
X24895099Y4060369D01*
X24867975Y4056345D01*
X24840588Y4055000D01*
X23499412Y4055000D01*
X23472025Y4056345D01*
X23444901Y4060369D01*
X23418303Y4067031D01*
X23392486Y4076269D01*
X23367698Y4087993D01*
X23344179Y4102089D01*
X23322155Y4118424D01*
X23301838Y4136838D01*
X23283424Y4157155D01*
X23267089Y4179179D01*
X23252993Y4202698D01*
X23241269Y4227486D01*
X23232031Y4253303D01*
X23225369Y4279901D01*
X23221345Y4307025D01*
X23220000Y4334412D01*
X23220000Y5825588D01*
X23221345Y5852975D01*
X23225369Y5880099D01*
X23232031Y5906697D01*
X23241269Y5932514D01*
X23252993Y5957302D01*
X23267089Y5980821D01*
X23283424Y6002845D01*
X23301838Y6023162D01*
X23322155Y6041576D01*
X23344179Y6057911D01*
X23367698Y6072007D01*
X23392486Y6083731D01*
X23418303Y6092969D01*
X23444901Y6099631D01*
X23472025Y6103655D01*
X23499412Y6105000D01*
X24840588Y6105000D01*
X24867975Y6103655D01*
G37*
D24*
X13970000Y39370000D03*
X21590000Y46990000D03*
X13970000Y41910000D03*
X21590000Y44450000D03*
X13970000Y44450000D03*
X21590000Y41910000D03*
X13970000Y46990000D03*
D25*
X21590000Y39370000D03*
D15*
X25400000Y53340000D03*
D16*
X25400000Y45720000D03*
D23*
X25400000Y38180000D03*
X25400000Y43180000D03*
D21*
X24130000Y58420000D03*
D22*
X24130000Y55880000D03*
X25400000Y57150000D03*
D24*
X36830000Y39370000D03*
X44450000Y46990000D03*
X36830000Y41910000D03*
X44450000Y44450000D03*
X36830000Y44450000D03*
X44450000Y41910000D03*
X36830000Y46990000D03*
D25*
X44450000Y39370000D03*
D24*
X21590000Y33020000D03*
X13970000Y25400000D03*
X21590000Y30480000D03*
X13970000Y27940000D03*
X21590000Y27940000D03*
X13970000Y30480000D03*
X21590000Y25400000D03*
D25*
X13970000Y33020000D03*
D20*
X44450000Y52070000D03*
X39450000Y54570000D03*
X44450000Y57070000D03*
X19050000Y13970000D03*
X14050000Y16470000D03*
X19050000Y18970000D03*
D15*
X25594999Y17780000D03*
D16*
X25594999Y25400000D03*
D21*
X23914999Y15244999D03*
D22*
X23914999Y12704999D03*
X25184999Y13974999D03*
M02*
